<svg width="68" height="56" viewBox="0 0 68 56" fill="none" xmlns="http://www.w3.org/2000/svg">
<g clip-path="url(#clip0_1_810)">
<path fill-rule="evenodd" clip-rule="evenodd" d="M1.76135 28.2854C1.79796 28.4184 1.54104 28.7921 1.17643 29.1014C0.758507 29.462 0.46661 29.9536 0.371807 30.5077C0.199439 31.5152 0.667371 33.3781 1.28022 34.1338C1.51448 34.4129 1.65988 34.7777 1.64318 34.962C1.61732 35.1132 1.68033 35.1787 1.78696 35.0759C1.87583 34.9903 1.96309 34.6538 1.93455 34.3868C1.94157 34.0856 1.98626 34.0846 2.08696 34.4503C2.18712 34.7324 2.18064 35.1173 2.09232 35.2865C1.98622 35.4729 2.07777 35.8054 2.41166 36.283C2.67338 36.6618 2.96957 36.8391 3.06652 36.6195C3.16346 36.3999 3.3514 36.4291 3.47796 36.6438C3.61366 36.8916 3.6056 37.0256 3.48927 37.0115C3.16722 36.9853 3.23992 37.1676 3.86192 37.9565C4.15057 38.3515 4.33907 38.4644 4.27499 38.2317C4.22006 38.0322 4.32508 37.6785 4.53835 37.473C4.78717 37.2333 4.89488 37.2978 4.86147 37.6665C4.85446 37.9678 4.92122 38.6186 5.0316 39.1012C5.17968 39.8841 5.20609 39.8166 5.17166 38.6297C5.15822 37.9275 5.16307 37.2918 5.19861 37.2575C5.32302 37.1376 5.5901 38.3527 5.49369 38.656C5.28363 39.3632 6.1593 40.665 6.90195 40.7487C7.34033 40.7891 7.70763 40.8979 7.73509 40.9976C7.7534 41.0641 7.67315 41.0994 7.53905 41.1024C7.42272 41.0883 7.36133 41.2737 7.42541 41.5064C7.5078 41.8056 7.74906 41.7835 8.07759 41.4248C8.48636 41.0309 8.565 40.7448 8.43684 40.2793C8.18052 39.3484 8.51333 39.6588 8.9226 40.7368C9.13154 41.2507 9.22469 41.834 9.15467 42.0698C9.09327 42.2551 8.9861 42.2743 8.92202 42.0415C8.84878 41.7755 8.77769 41.844 8.66458 42.3317C8.53423 42.92 8.48953 42.921 8.4497 42.2863C8.39263 41.7523 8.35654 41.703 8.33283 42.1886C8.29135 42.6913 8.2558 42.7256 8.06624 42.4454C7.93053 42.1976 7.86807 42.2157 7.9413 42.4817C7.97846 42.6983 8.27517 42.9593 8.58861 43.0359C8.87512 43.0964 9.13578 43.308 9.1277 43.442C9.12877 43.6092 9.22785 43.7241 9.35279 43.6879C9.47774 43.6516 9.54668 43.2486 9.53485 42.7972C9.45679 41.7786 9.88655 41.8694 10.3944 42.9787C10.7029 43.691 10.7035 43.7746 10.4332 43.4462C10.0459 43.02 9.43144 43.4017 9.71201 43.9307C9.82941 44.1121 10.1525 44.3055 10.4563 44.2653C10.7514 44.2754 10.8952 44.3892 10.7708 44.5091C10.593 44.6804 10.6474 44.7962 10.9706 44.9897C11.4644 45.3131 11.5522 45.0603 11.3309 44.0115C11.2205 43.5288 11.2808 43.1762 11.5297 42.9365C11.814 42.6625 11.8501 42.7118 11.7101 43.1833C11.57 43.6548 11.5705 43.7385 11.7838 43.533C11.9615 43.3617 11.9901 43.6287 11.8522 44.4347C11.7073 45.5419 11.7078 45.6255 12.129 45.7666C12.4068 45.8775 12.4693 45.8593 12.3072 45.679C11.9739 45.285 12.9702 44.4933 13.4458 44.7502C13.6342 44.8631 13.9558 44.8057 14.1513 44.6173C14.329 44.446 14.5256 44.4249 14.5805 44.6244C14.6354 44.8239 14.4754 44.978 14.1184 45.0696C13.3682 45.2036 13.3596 45.254 13.7053 46.1829C13.8965 46.7139 14.1216 46.9597 14.2815 46.8056C14.4237 46.6686 14.6574 46.8641 14.812 47.2621C15.0118 47.7427 15.1556 47.8565 15.2967 47.5522C15.4114 47.3155 15.5094 47.2631 15.4927 47.4475C15.4852 47.6651 15.7103 47.911 15.9973 48.0551C16.5084 48.2778 16.5262 48.2606 16.2187 47.7156C15.7932 46.9055 16.0873 46.7484 16.789 47.4185C17.1126 47.6955 17.2306 47.9605 17.0604 47.9141C16.8547 47.902 16.8283 47.9695 16.9812 48.1167C17.1164 48.2809 17.3577 48.2587 17.5176 48.1046C17.7842 47.8477 17.8025 47.9142 17.6539 48.4361C17.5316 48.8904 17.5763 48.8895 17.8591 48.3646C18.0713 47.9918 18.4704 47.4811 18.7816 47.2232C19.066 46.9492 19.3224 46.4918 19.3385 46.2238C19.3628 45.8218 19.3983 45.7876 19.4807 46.0868C19.5357 46.2863 19.5211 46.8052 19.4521 47.2082C19.3665 47.7955 19.3945 47.9789 19.6088 47.9406C19.7429 47.9376 19.6988 48.0222 19.4758 48.1109C19.262 48.2327 19.0046 48.5229 18.9081 48.8261C18.7767 49.2473 18.8489 49.346 19.2334 49.3541C19.493 49.3985 19.689 49.2937 19.6524 49.1607C19.6158 49.0277 19.8221 49.1235 20.1182 49.3008C20.4058 49.5285 20.6654 49.5729 20.6999 49.3714C20.7257 49.2203 20.8065 49.2686 20.8706 49.5014C20.953 49.8006 21.0499 49.581 21.1706 48.8758C21.3333 47.7514 21.7248 47.4583 21.8556 48.3419C21.8933 48.6421 21.9747 48.7741 22.0188 48.6895C22.063 48.6048 22.3048 48.6663 22.5649 48.7943C22.8072 48.9394 23.111 48.8992 23.2079 48.6795C23.3227 48.4428 23.5009 48.3552 23.6 48.47C23.6991 48.5849 23.6469 48.8035 23.46 48.9415C23.3 49.0956 23.2122 49.3485 23.2941 49.5641C23.4029 49.7959 23.3145 49.9651 23.1002 50.0034C22.8589 50.0255 22.8239 50.1434 22.9952 50.357C23.1481 50.5041 23.3888 50.3984 23.566 50.1435C23.7518 49.8382 23.8768 49.802 23.8876 50.0861C23.9446 50.6201 25.2091 51.2106 25.6001 50.8338C25.7601 50.6797 25.9303 50.726 25.9852 50.9255C26.031 51.0918 26.1381 51.0726 26.1995 50.8873C26.2787 50.6848 26.3589 50.6495 26.4139 50.849C26.4596 51.0153 26.7106 51.11 26.9783 51.0203C27.2281 50.9478 27.4872 50.9086 27.5771 50.9902C27.8647 51.2179 29.3921 50.9662 29.7297 50.6408C29.9075 50.4696 30.229 50.4122 30.4175 50.5251C30.8661 50.7659 32.0008 50.6401 32.0525 50.3378C32.0875 50.22 32.3471 50.2643 32.6433 50.4417L33.2088 50.7803L33.309 49.674C33.3844 48.8862 33.3198 48.5698 33.1318 48.5406C32.9439 48.5114 32.9519 48.3773 33.1652 48.1718C33.3252 48.0177 33.504 48.0137 33.5589 48.2132C33.6047 48.3794 33.7393 48.46 33.846 48.3573C33.9348 48.2717 33.9246 48.0712 33.8255 47.9563C33.7173 47.8082 33.7162 47.641 33.805 47.5553C33.9117 47.4526 34.0372 47.4999 34.0921 47.6994C34.1379 47.8657 34.308 47.912 34.468 47.7579C34.7168 47.5181 34.7351 47.5846 34.6678 48.2385C34.609 48.842 34.538 48.9105 34.3484 48.6304C33.9871 48.0531 33.4469 48.8681 33.6224 49.7507C33.6972 50.2675 33.8416 50.465 34.0015 50.3109C34.1437 50.1739 34.3225 50.1699 34.3947 50.2686C34.476 50.4006 34.7711 50.4107 35.0921 50.2697C35.6269 50.0068 35.6603 49.638 35.2053 48.3937C35.0782 48.0955 35.1401 47.9937 35.4977 47.9857C36.0702 48.0231 36.2301 47.8689 35.969 47.5737C35.8607 47.4256 35.8418 47.2755 35.9307 47.1898C36.0373 47.0871 36.2258 47.1999 36.3615 47.4478C36.4881 47.6624 36.6669 47.6584 36.7369 47.4227C36.8333 47.1194 36.8694 47.1688 36.8721 47.5869C36.8565 47.9385 36.927 47.7864 37.0488 47.2484C37.182 46.6433 37.3374 46.7178 37.5151 47.4721C37.6535 48.1381 37.863 48.7355 37.9621 48.8504C38.2588 49.1114 38.7398 48.8162 38.4786 48.521C38.3795 48.4061 38.4048 48.1714 38.547 48.0344C38.7069 47.8803 38.7231 47.6123 38.5965 47.3977C38.47 47.1831 38.4409 46.8325 38.5196 46.5463C38.6337 46.226 38.679 46.3086 38.7086 46.7428C38.729 47.1438 38.8464 47.3252 38.9531 47.2224C39.0775 47.1025 39.0705 47.4038 38.9573 47.8914C38.8356 48.4294 38.9225 48.4999 39.218 48.103C39.6257 47.5419 40.0393 47.9006 39.8115 48.625C39.7409 48.7771 39.7765 48.7428 39.8917 48.5897C39.98 48.4204 40.1405 48.35 40.2127 48.4487C40.2849 48.5474 40.2574 48.4477 40.1578 48.2492C40.0668 48.0003 39.8939 47.5358 39.8024 47.2034C39.6834 46.7711 39.5665 46.6734 39.4701 46.9766C39.3823 47.2295 39.3554 47.2134 39.3624 46.9122C39.3694 46.6109 39.2881 46.4789 39.1814 46.5817C39.0748 46.6844 38.9935 46.5524 39.001 46.3348C39.0172 46.0668 39.1777 45.9963 39.42 46.1414C39.6532 46.2533 39.8945 46.2311 39.9559 46.0458C40.0081 45.8271 40.0975 45.8251 40.1525 46.0246C40.1982 46.1909 40.1557 46.5264 40.0673 46.6956C39.9262 46.9999 39.9445 47.0664 40.1223 46.8951C40.2381 46.8256 40.3905 46.8891 40.4454 47.0886C40.4912 47.2548 40.4206 47.407 40.2596 47.3938C40.0894 47.3475 40.0899 47.4311 40.2343 47.6286C40.3872 47.7757 40.5746 47.7213 40.6893 47.4845C40.8218 47.2307 40.9565 47.3113 41.0663 47.7103C41.167 48.076 41.3383 48.2896 41.4449 48.1869C41.5515 48.0841 41.5499 47.8333 41.4325 47.6519C41.306 47.4373 41.2317 47.004 41.2651 46.6353C41.3066 46.1326 41.3335 46.1487 41.3636 46.6666C41.4116 47.1673 41.5284 47.265 41.7417 47.0595C41.9727 46.8369 42.0088 46.8863 41.8952 47.2902C41.7637 47.7114 41.7821 47.7779 42.0411 47.7386C42.2732 47.6832 42.3336 47.3306 42.2124 46.5639C42.1182 45.8133 42.1602 45.3942 42.374 45.2723C42.5609 45.1343 42.835 44.6598 43.002 44.2044C43.1776 43.6987 43.2928 43.5455 43.2858 43.8468C43.2697 44.1148 43.3332 44.2639 43.4398 44.1611C43.5465 44.0584 43.6375 44.3073 43.6665 44.6579C43.6875 45.1425 43.7683 45.1908 43.9272 44.8695C44.0328 44.5995 44.2821 44.4433 44.4792 44.5058C44.748 44.5834 44.7393 44.6338 44.4625 44.6902C44.2573 44.7617 44.1335 44.9652 44.1792 45.1314C44.344 45.7299 43.9686 45.7551 43.5626 45.1787C43.2648 44.7505 43.2023 44.7686 43.3213 45.2009C43.3951 45.5505 43.3794 45.9021 43.2728 46.0048C43.1839 46.0905 43.1026 45.9585 43.1102 45.7408C43.1086 45.49 43.0364 45.3912 42.9476 45.4769C42.8409 45.5796 42.8161 45.898 42.8985 46.1972C42.9718 46.4632 42.9195 46.6818 42.8032 46.6677C42.6599 46.6375 42.5689 46.3886 42.5673 46.1378C42.5738 45.7529 42.556 45.77 42.4693 46.1901C42.27 47.1815 42.8726 47.7367 43.387 47.0728C43.6261 46.7162 43.8399 46.5943 43.8323 46.8119C43.8156 46.9963 43.8878 47.095 43.9944 46.9923C44.0833 46.9066 44.1797 46.6034 44.1873 46.3858C44.1857 46.1349 44.3268 45.8306 44.469 45.6936C44.6111 45.5566 44.728 45.6544 44.7205 45.872C44.7043 46.14 44.5713 46.3102 44.4372 46.3133C44.2314 46.3011 44.2406 46.3344 44.4652 46.4966C44.6359 46.6266 45.3936 46.2751 46.1589 45.7059C47.2716 44.9283 47.5732 44.5535 47.7213 43.948C47.8339 43.3768 47.9405 43.274 48.1296 43.4705C48.2739 43.668 48.2744 43.7516 48.1042 43.7052C47.9432 43.6921 47.8727 43.8443 47.9184 44.0105C47.9734 44.21 48.0724 44.3248 48.1705 44.2725C49.0338 43.6509 49.4862 43.0888 49.4479 42.705C49.427 42.2204 50.2106 41.7177 50.3204 42.1167C50.4394 42.5489 51.1762 41.7128 51.2877 40.9743C51.4514 40.0172 51.7293 40.128 51.6195 41.1174C51.5516 41.6876 51.579 41.7874 51.8101 41.5647C51.97 41.4106 52.102 41.0731 52.1095 40.8555C52.1257 40.5875 52.2587 40.4173 52.402 40.4475C52.5808 40.4435 52.5355 40.3609 52.3018 40.1654C52.0589 39.9366 51.9771 39.721 52.0471 39.4853C52.1257 39.1992 52.0342 38.8667 51.7811 38.4374C51.5641 38.0576 51.4278 37.7261 51.4811 37.6747C51.7122 37.4521 52.4645 37.6527 52.5469 37.9519C52.6019 38.1514 52.5491 38.2864 52.4327 38.2723C52.3164 38.2582 52.2286 38.511 52.2577 38.8616C52.2787 39.3462 52.3681 39.3443 52.6331 38.8365C52.8453 38.4638 52.9146 38.5793 52.8409 39.1831C52.6696 40.3579 52.7434 40.7074 53.0348 40.1322C53.1404 39.8622 53.1743 39.5771 53.0844 39.4955C52.8862 39.2657 53.7985 37.9239 54.245 37.8302C54.5665 37.7728 54.5756 37.8061 54.3198 38.3471C54.1345 38.7359 54.3128 38.6483 54.8282 38.1517C55.4233 37.5362 55.5025 37.3336 55.2338 37.256C54.992 37.1945 54.8557 36.8631 54.8078 36.3623C54.7782 35.9281 54.6678 35.4455 54.5687 35.3306C54.4605 35.1825 54.4691 35.1322 54.5946 35.1795C54.7023 35.244 54.8434 34.9398 54.8763 34.4874C54.9522 33.7832 54.97 33.766 55.1003 34.566C55.1752 35.0828 55.1789 35.6682 55.1089 35.904C55.0125 36.2072 55.0938 36.3392 55.3889 36.3493C56.131 36.3494 57.5179 35.0972 57.1667 34.7204C57.0407 34.5894 57.1204 34.4705 57.317 34.4494C57.5222 34.3779 57.6902 34.0897 57.7058 33.7381C57.7209 33.3029 57.7743 33.2515 57.8475 33.5175C57.9299 33.8167 58.1706 33.711 58.5611 33.2506C59.1648 32.5847 59.2941 31.8291 58.7254 32.3771C58.4318 32.6179 58.4227 32.5846 58.6424 31.9943C58.8266 31.4381 58.8078 31.288 58.5482 31.2437C58.3156 31.2154 58.3236 31.0814 58.608 30.8074C58.8213 30.6019 59.0146 30.0791 59.012 29.661C59.0362 29.259 59.0976 29.0736 59.1617 29.3063C59.2166 29.5058 59.2101 29.8907 59.1401 30.1264C59.0609 30.3289 59.1175 30.7793 59.2623 31.0604C59.4072 31.3415 59.4454 31.7253 59.3485 31.945C59.2602 32.1142 59.412 32.0941 59.6786 31.8372C59.9544 31.6136 60.2102 31.0726 60.2969 30.6525C60.3831 30.1487 60.4892 29.9623 60.6335 30.1598C60.7865 30.3069 60.9098 30.0198 61.0041 29.3821C61.1581 28.3081 61.1188 27.757 60.926 28.3635C60.8646 28.5488 60.7574 28.568 60.7117 28.4017C60.6567 28.2022 60.682 27.9675 60.7709 27.8819C60.8598 27.7963 60.884 27.3943 60.8366 26.9772C60.7893 26.56 60.8846 26.0895 61.0446 25.9354C61.2223 25.7642 61.3214 25.8791 61.3144 26.1803C61.2987 26.5319 61.3612 26.5138 61.5379 26.1753C61.679 25.871 61.777 25.8186 61.7608 26.0866C61.7625 26.3375 61.5858 26.676 61.3903 26.8644C60.9815 27.2583 61.1571 28.1408 61.6482 28.0462C62.1394 27.9516 62.2013 27.8498 61.9482 27.4206C61.7764 27.1233 61.8114 27.0055 62.0436 26.9501C62.2757 26.8947 62.3107 26.7768 62.1577 26.6297C62.0226 26.4655 62.0123 26.265 62.1012 26.1794C62.2078 26.0766 62.3791 26.2902 62.4889 26.6892C62.5896 27.0549 62.5735 27.3229 62.4394 27.3259C62.3231 27.3118 62.2525 27.4639 62.2983 27.6302C62.463 28.2286 62.7458 27.7038 62.7491 26.8172C62.7534 26.0978 62.9037 25.8268 63.6598 25.2244C64.5317 24.5525 64.5404 24.5022 64.3637 23.4523C64.1877 22.4861 64.1607 22.47 64.0939 23.2075C64.0433 23.677 63.9383 24.0306 63.8483 23.949C63.7406 23.8845 63.6938 23.551 63.7363 23.2155C63.7875 22.8296 63.7498 22.5294 63.6868 22.4639C63.606 22.4155 63.738 22.078 63.9949 21.7043C64.2518 21.3305 64.5249 20.6888 64.5852 20.3362C64.6633 19.9664 64.9181 19.2581 65.1566 18.8179C65.8541 17.4306 65.2192 16.0231 64.295 16.9136C64.0462 17.1534 63.7344 17.3277 63.6175 17.2299C63.5098 17.1654 63.198 17.3397 62.9136 17.6137C62.647 17.8706 62.479 18.1587 62.5689 18.2403C62.6502 18.3723 62.5888 18.5577 62.4289 18.7118C62.2689 18.8659 62.1434 18.8186 62.1601 18.6342C62.1677 18.4166 62.06 18.3521 61.9178 18.4891C61.7756 18.6261 61.697 18.9122 61.7519 19.1117C61.8068 19.3112 61.7088 19.3636 61.5203 19.2508C61.1164 19.0089 60.8051 19.2668 61.0932 19.5781C61.1923 19.693 61.2203 19.8763 61.1137 19.9791C61.0248 20.0647 60.8369 20.0355 60.7378 19.9206C60.6026 19.7564 60.4691 19.843 60.3996 20.1624C60.3301 20.4818 59.9041 20.9764 59.4592 21.3209C58.9697 21.6664 58.5797 22.2104 58.4839 22.5973C58.3444 23.1524 58.3266 23.1696 58.3417 22.7343C58.3487 22.4331 58.2674 22.3011 58.0897 22.4723C57.9475 22.6093 57.8155 22.9468 57.808 23.1644C57.7918 23.4324 57.6857 23.6188 57.5694 23.6047C57.4439 23.5573 57.3109 23.7276 57.2317 23.9301C57.1703 24.1154 56.5671 24.865 55.8923 25.5993C55.1997 26.3509 54.6061 27.2172 54.5017 27.6545C54.3885 28.1421 54.3444 28.2268 54.3509 27.8419C54.367 27.5739 54.2766 27.4086 54.1877 27.4943C54.0811 27.597 54.0288 27.8156 54.0837 28.0151C54.1295 28.1814 54.0142 28.3345 53.8091 28.406C53.5769 28.4614 53.5328 28.546 53.6949 28.7264C53.83 28.8906 53.8403 29.0911 53.7336 29.1939C53.627 29.2966 53.4477 29.217 53.3303 29.0357C53.0772 28.6065 51.3457 30.4852 51.3855 31.12C51.3957 31.3205 51.2622 31.407 51.092 31.3607C50.7064 31.1853 47.5999 33.3793 46.8729 34.3323C46.5535 34.7242 46.3397 34.8461 46.3472 34.6285C46.3634 34.3605 46.2557 34.296 46.1313 34.4159C45.2421 35.1885 43.6571 36.211 42.6317 36.6522C41.972 36.9513 41.036 37.3905 40.5459 37.6524C40.0466 37.881 39.458 38.1116 39.2167 38.1338C38.9754 38.1559 38.3426 38.4712 37.7997 38.8681C37.23 39.2489 36.7302 39.3939 36.5945 39.146C36.4679 38.9314 36.2175 38.9203 36.0398 39.0916C35.862 39.2628 35.5852 39.3192 35.4506 39.2386C35.289 39.1419 34.9497 39.2164 34.7004 39.3725C34.4602 39.5619 33.8085 39.7271 33.2544 39.7562C32.7002 39.7854 32.0755 39.9666 31.8444 40.1893C31.6134 40.4119 31.4346 40.4159 31.4421 40.1983C31.4744 39.6623 29.6692 39.8032 28.9486 40.3713C28.6551 40.6121 28.3691 40.6352 28.332 40.4186C28.304 40.2352 28.0541 40.3078 27.7967 40.5979C27.4504 40.9737 27.2985 40.9938 27.2694 40.6431C27.2581 40.2754 26.9716 40.2149 26.4363 40.3942C25.9456 40.5725 25.6322 40.4959 25.6392 40.1946C25.6462 39.8934 25.6193 39.8773 25.5315 40.1301C25.3387 40.7366 23.6751 40.6569 23.072 40.018C22.7569 39.6906 22.381 39.6321 22.1144 39.889C21.8301 40.163 21.6868 40.1327 21.7024 39.7811C21.7095 39.4799 21.6825 39.4638 21.5947 39.7166C21.4105 40.2728 20.4524 40.0601 20.5472 39.5059C20.5726 39.2712 20.537 39.3055 20.4578 39.508C20.3787 39.7105 20.0749 39.7507 19.7701 39.6237C19.4561 39.4635 19.1605 39.3698 19.1072 39.4211C19.0539 39.4725 18.7851 39.3949 18.4981 39.2508C18.2202 39.14 17.7807 38.9324 17.5206 38.8044C17.2605 38.6764 16.9212 38.7509 16.7796 38.9715C16.611 39.176 16.4947 39.1619 16.5114 38.9776C16.5189 38.7599 16.1328 38.501 15.6222 38.3619C15.1208 38.256 14.6992 38.0313 14.6803 37.8812C14.6615 37.7311 14.3297 37.588 13.9274 37.597C13.5251 37.606 13.2742 37.5113 13.3539 37.3924C13.6027 37.1527 12.7588 36.6196 12.2321 36.7485C11.9553 36.8049 11.7485 36.6255 11.7561 36.4079C11.7544 36.157 11.6193 35.9928 11.4496 36.0301C11.2622 36.0845 11.0737 35.9716 11.028 35.8053C10.8815 35.2734 9.96703 34.8924 9.38754 35.1563C8.86137 35.3688 8.85221 35.3356 9.03534 34.6122C9.16928 34.1186 9.12675 33.9913 8.90773 34.2304C8.70361 34.4692 8.54257 34.4561 8.50488 34.1558C8.40204 33.4556 7.01854 32.4328 7.05837 33.0675C7.06967 33.4353 7.03413 33.4695 6.94259 33.1371C6.86074 32.9214 6.76218 32.8902 6.68301 33.0927C6.62161 33.278 6.49613 33.2307 6.41374 32.9314C6.33135 32.6322 6.22364 32.5677 6.14447 32.7702C6.08307 32.9556 5.97589 32.9747 5.93012 32.8085C5.87519 32.609 5.91829 32.3571 6.00715 32.2715C6.11379 32.1687 6.14826 31.9672 6.09334 31.7677C6.04756 31.6015 5.90484 31.6549 5.79013 31.8916C5.66679 32.1787 5.47828 32.0659 5.23379 31.5863C5.05232 31.1722 4.81806 30.8931 4.72919 30.9787C4.64033 31.0644 4.50518 30.9001 4.43194 30.6341C4.35871 30.3681 4.22354 30.2039 4.1169 30.3066C4.02804 30.3923 3.88424 30.2784 3.81101 30.0124C3.6737 29.5137 2.57612 29.8561 2.3833 30.4626C2.33105 30.6813 2.17056 30.7517 2.06232 30.6036C1.9363 30.4726 1.91745 30.3225 2.01546 30.2701C2.61219 29.9055 2.89443 29.297 2.69464 28.8164C2.57671 28.5514 2.44045 28.2199 2.41299 28.1202C2.30368 27.8048 1.67896 27.9861 1.76135 28.2854ZM1.07678 30.2912C1.17587 30.4061 1.20386 30.5894 1.09723 30.6922C1.00836 30.7778 0.820415 30.7486 0.721325 30.6337C0.613081 30.4856 0.594219 30.3355 0.700855 30.2327C0.789719 30.1471 0.968536 30.1431 1.07678 30.2912ZM1.62116 32.9218C1.6944 33.1878 1.65992 33.3893 1.54359 33.3752C1.42727 33.3611 1.34543 33.1455 1.35297 32.9279C1.39392 32.3415 1.46554 32.3566 1.62116 32.9218ZM2.61643 31.9628C2.6455 32.3134 2.60241 32.5653 2.5394 32.4998C2.45862 32.4514 2.42148 32.2348 2.43764 31.9668C2.45113 31.2807 2.58522 31.2777 2.61643 31.9628ZM3.48618 32.3448C3.59604 32.7437 3.39192 32.9825 2.88353 33.1779C2.82105 33.196 2.90885 32.9431 3.05857 32.5885C3.2083 32.2339 3.33163 31.9468 3.34941 31.9296C3.34025 31.8964 3.41295 32.0788 3.48618 32.3448ZM6.05449 34.0769C6.08195 34.1767 6.05663 34.4114 5.97746 34.6139C5.91606 34.7993 5.80888 34.8184 5.76311 34.6522C5.70818 34.4527 5.75128 34.2008 5.84014 34.1152C5.94678 34.0124 6.03618 34.0104 6.05449 34.0769ZM6.77991 34.2614C6.85314 34.5274 6.88167 34.7944 6.84613 34.8286C6.81058 34.8629 6.67541 34.6986 6.53109 34.5011C6.40453 34.2865 6.376 34.0195 6.46487 33.9339C6.5715 33.8312 6.70667 33.9954 6.77991 34.2614ZM4.33909 37.0761C4.31324 37.2272 4.16244 37.4146 4.01057 37.4347C3.84093 37.472 3.86677 37.3208 4.06227 37.1325C4.24861 36.9108 4.38272 36.9078 4.33909 37.0761ZM5.6688 36.6783C6.04632 36.9876 6.03768 37.038 5.65208 36.8626C5.41028 36.8011 5.19488 36.6722 5.17657 36.6057C5.10333 36.3397 5.29129 36.3689 5.6688 36.6783ZM6.69908 35.6013C6.78147 35.9006 6.91556 35.8976 7.09222 35.5591C7.28665 35.2035 7.31357 35.2196 7.25377 35.6558C7.15089 36.3439 6.50841 36.5423 6.33448 35.9106C6.26124 35.6446 6.29518 35.3595 6.38404 35.2739C6.49068 35.1711 6.62585 35.3354 6.69908 35.6013ZM7.27798 36.6422C7.53435 36.1848 7.60597 36.1999 7.51979 36.7036C7.40828 37.4421 6.8105 37.6395 6.66349 37.0239C6.5811 36.7247 6.61664 36.6904 6.73404 36.8718C6.85144 37.0532 7.08302 36.9142 7.27798 36.6422ZM6.70328 39.047C6.87774 39.7624 6.9429 40.1623 6.8255 39.981C6.73503 39.8157 6.57345 39.719 6.48459 39.8046C6.37795 39.9074 6.40597 40.0908 6.54114 40.255C6.67631 40.4192 6.66768 40.4696 6.50665 40.4565C6.2293 40.4292 6.08824 39.3451 6.33706 39.1054C6.42592 39.0198 6.43294 38.7185 6.3597 38.4525C6.28647 38.1865 6.25794 37.9195 6.31125 37.8682C6.3468 37.8339 6.53796 38.3649 6.70328 39.047ZM7.52237 39.8984C7.64892 40.113 7.66779 40.2631 7.53369 40.2662C7.39959 40.2692 7.26442 40.1049 7.20949 39.9054C7.08133 39.44 7.23318 39.4198 7.52237 39.8984ZM10.2427 37.4455C10.2351 37.6631 10.0854 38.0177 9.92545 38.1718C9.65886 38.4287 9.64056 38.3622 9.79837 37.8736C10.0348 37.0989 10.2659 36.8762 10.2427 37.4455ZM10.8809 37.9664C10.7941 38.3866 10.1462 39.137 10.0822 38.9043C10.0364 38.738 10.1953 38.4167 10.4441 38.1769C10.6929 37.9372 10.8889 37.8324 10.8809 37.9664ZM10.0428 41.1299C9.93073 41.7847 9.60814 41.6749 9.64855 41.0049C9.64694 40.754 9.77081 40.5505 9.90491 40.5475C10.0482 40.5777 10.1031 40.7773 10.0428 41.1299ZM11.3035 39.7467C11.4026 39.8616 11.3865 40.1296 11.2718 40.3663C11.1484 40.6535 11.0676 40.6051 11.0472 40.2041C11.0074 39.5694 11.0693 39.4676 11.3035 39.7467ZM11.3374 42.2383C11.4457 42.3864 11.3665 42.5889 11.1618 42.744C10.9663 42.9324 10.8139 42.8689 10.8128 42.7017C10.8366 42.2161 11.1123 41.9924 11.3374 42.2383ZM12.6132 43.1965C12.659 43.3628 12.6245 43.5643 12.5534 43.6328C12.4645 43.7184 12.3294 43.5542 12.2561 43.2882C12.1829 43.0222 12.2174 42.8207 12.3337 42.8348C12.4323 42.866 12.5583 42.997 12.6132 43.1965ZM15.4633 40.0716C15.5619 40.1028 15.5812 40.3366 15.5198 40.522C15.4584 40.7073 15.2441 40.7456 15.0734 40.6156C14.795 40.4211 14.7853 40.3043 15.0168 40.1653C15.186 40.0444 15.3825 40.0232 15.4633 40.0716ZM15.8273 43.8437C15.9264 43.9586 15.9366 44.1591 15.8477 44.2447C15.7411 44.3474 15.6064 44.2668 15.5607 44.1006C15.5057 43.9011 15.5047 43.7339 15.5402 43.6996C15.5935 43.6482 15.719 43.6956 15.8273 43.8437ZM15.2262 44.9277C15.2801 44.96 15.3 45.2773 15.2843 45.6289C15.2428 46.1317 15.1809 46.2334 15.0452 45.9856C14.9278 45.8042 14.7582 45.8414 14.6612 46.0611C14.5643 46.2807 14.2961 46.2867 14.0715 46.1245C13.7209 45.8313 13.7473 45.7638 14.4151 45.3306C14.798 45.0879 15.1724 44.8955 15.2262 44.9277ZM16.0528 45.5615C16.2699 45.9414 16.2613 45.9917 15.9295 45.8486C15.4992 45.6743 15.4087 45.5091 15.6398 45.2864C15.7286 45.2008 15.9171 45.3137 16.0528 45.5615ZM17.1908 45.9374C17.2274 46.0704 17.1213 46.2568 16.9517 46.2941C16.7729 46.2981 16.5935 46.2185 16.5478 46.0522C16.5112 45.9192 16.6173 45.7328 16.7869 45.6956C16.9657 45.6916 17.145 45.7712 17.1908 45.9374ZM21.6615 41.7558C21.6889 41.8556 21.6636 42.0903 21.5844 42.2928C21.523 42.4782 21.4158 42.4973 21.3701 42.331C21.3151 42.1316 21.3582 41.8797 21.4471 41.7941C21.5537 41.6913 21.6431 41.6893 21.6615 41.7558ZM18.3471 46.3799C18.3939 46.7134 18.3255 47.2 18.1661 47.4377C17.9533 47.7268 17.8725 47.6785 17.8338 47.211C17.8225 46.8432 17.7051 46.6619 17.5807 46.7818C17.4385 46.9188 17.4288 46.8019 17.5338 46.4483C17.7703 45.6735 18.2173 45.6635 18.3471 46.3799ZM20.3623 46.9201C20.3294 47.3725 20.2874 47.7916 20.2879 47.8752C20.2793 47.9256 20.1619 47.7442 19.9988 47.3966C19.7903 46.9664 19.8157 46.7316 20.0823 46.4748C20.4022 46.1665 20.4382 46.2159 20.3623 46.9201ZM33.4095 40.2378C33.787 40.5472 33.7783 40.5975 33.3927 40.4222C33.1509 40.3607 32.9355 40.2317 32.9172 40.1652C32.844 39.8992 33.0319 39.9285 33.4095 40.2378ZM24.9124 49.5613C24.8866 49.7124 24.6712 49.5834 24.4369 49.3043C24.0136 48.8287 24.0314 48.8116 24.48 49.0525C24.7493 49.2137 24.9474 49.4434 24.9124 49.5613ZM28.1368 47.6323C28.272 47.7965 28.2994 47.8963 28.174 47.8489C28.0663 47.7844 27.8891 48.0393 27.7932 48.4261C27.6451 49.0316 27.6359 48.9984 27.7027 48.2609C27.804 47.3219 27.8304 47.2544 28.1368 47.6323ZM29.0905 48.5643C29.0647 48.7154 28.9139 48.9028 28.762 48.923C28.5924 48.9602 28.6182 48.8091 28.8137 48.6207C29.0001 48.3991 29.1342 48.3961 29.0905 48.5643ZM30.1515 48.0889C30.1973 48.2551 30.1369 48.6078 30.0044 48.8616C29.8014 49.2676 29.7745 49.2515 29.851 48.6309C29.9442 47.8259 30.0325 47.6567 30.1515 48.0889ZM29.8132 49.719C29.9123 49.8338 29.9226 50.0343 29.8337 50.12C29.7271 50.2227 29.5924 50.1421 29.5467 49.9759C29.4917 49.7764 29.4906 49.6091 29.5262 49.5749C29.5795 49.5235 29.705 49.5709 29.8132 49.719ZM31.4203 49.3484C31.3142 49.5348 31.0912 49.6234 30.9566 49.5428C30.7412 49.4138 30.8031 49.3121 31.1419 49.1539C31.4095 49.0643 31.535 49.1117 31.4203 49.3484ZM32.3121 48.9939C32.4112 49.1087 32.4215 49.3092 32.3326 49.3948C32.226 49.4976 32.0913 49.417 32.0456 49.2507C31.9906 49.0512 31.9895 48.884 32.0251 48.8498C32.0784 48.7984 32.2039 48.8457 32.3121 48.9939ZM36.4876 46.1905C36.5867 46.3053 36.6066 46.6227 36.5366 46.8584C36.4488 47.1113 36.4041 47.1123 36.4111 46.8111C36.4187 46.5935 36.2921 46.3789 36.1672 46.4151C35.9706 46.4363 35.9345 46.3869 36.0945 46.2327C36.1919 46.0967 36.3708 46.0927 36.4876 46.1905ZM35.2295 49.38C35.2478 49.4465 35.1417 49.6329 34.9995 49.7699C34.8573 49.9069 34.6963 49.8938 34.6414 49.6943C34.5956 49.5281 34.7017 49.3417 34.8713 49.3044C35.0501 49.3004 35.2112 49.3135 35.2295 49.38ZM62.4141 24.784C62.4325 24.8505 62.3538 25.1366 62.2213 25.3905C62.1066 25.6273 62.0264 25.6625 62.0248 25.4116C62.0399 24.9764 62.3409 24.518 62.4141 24.784ZM63.7088 24.5041C64.0864 24.8134 64.0777 24.8638 63.6921 24.6884C63.4503 24.6269 63.2349 24.498 63.2166 24.4315C63.1434 24.1655 63.3313 24.1947 63.7088 24.5041ZM56.7888 31.5507C56.7629 31.7019 56.6121 31.8893 56.4602 31.9094C56.2906 31.9467 56.3164 31.7955 56.5119 31.6071C56.6983 31.3855 56.8324 31.3825 56.7888 31.5507ZM58.021 31.2889C58.0037 31.3897 57.7991 31.5448 57.5314 31.6345C57.2013 31.7422 57.1291 31.6435 57.2342 31.2898C57.3656 30.8687 58.0899 30.8859 58.021 31.2889ZM58.5671 30.0054C58.6662 30.1203 58.6942 30.3037 58.5876 30.4064C58.4987 30.492 58.3107 30.4628 58.2117 30.3479C58.1034 30.1998 58.0846 30.0497 58.1912 29.947C58.2801 29.8613 58.4589 29.8573 58.5671 30.0054ZM59.7407 28.9588C59.6857 28.7593 59.7552 28.4399 59.9152 28.2858C60.164 28.046 60.1731 28.0793 60.0616 28.8178C59.906 29.6409 59.5225 29.8 59.3394 29.1351C59.2753 28.9023 59.3556 28.867 59.5446 29.0635C59.7428 29.2933 59.823 29.258 59.7407 28.9588ZM45.4578 43.7311C45.5752 43.9125 45.6123 44.1291 45.5413 44.1976C45.1939 44.4061 45.0975 44.7094 45.384 44.7699C45.6166 44.7981 45.6533 44.9311 45.5315 45.4691C45.4184 45.9567 45.3295 46.0423 45.1405 45.8459C45.0053 45.6816 45.0048 45.598 45.1658 45.6111C45.3269 45.6242 45.28 45.2907 44.9892 44.5613C44.6349 43.6827 44.6247 43.4822 44.9015 43.4258C45.0711 43.3885 45.3312 43.5165 45.4578 43.7311ZM49.6118 40.3595C49.7857 40.9912 49.8304 40.9902 49.9871 40.3344C50.1347 39.6453 50.1439 39.6785 50.1045 40.5157C50.0787 41.1296 49.8952 41.3345 49.5541 41.1303C49.2848 40.969 49.0592 40.6395 49.0667 40.4219C49.1066 39.6683 49.4104 39.628 49.6118 40.3595ZM50.9329 38.6237C50.9786 38.79 50.8726 38.9764 50.7029 39.0136C50.5241 39.0176 50.3631 39.0045 50.3448 38.938C50.3265 38.8715 50.4326 38.6851 50.5747 38.5481C50.7169 38.4111 50.878 38.4242 50.9329 38.6237ZM56.4424 33.3148C56.4882 33.4811 56.4451 33.733 56.3384 33.8357C56.2496 33.9213 56.1683 33.7893 56.1758 33.5717C56.1742 33.3208 56.2265 33.1022 56.2798 33.0508C56.3153 33.0166 56.3875 33.1153 56.4424 33.3148ZM57.3413 32.6591C57.3607 32.8928 57.2546 33.0792 57.1032 33.1829C56.9605 33.2363 56.9347 33.3874 57.0607 33.5184C57.1781 33.6998 57.1258 33.9184 56.9125 34.1239C56.6993 34.3294 56.5851 34.6498 56.6492 34.8825C56.7041 35.082 56.6691 35.1999 56.5614 35.1354C56.4537 35.0709 56.5032 34.4342 56.6686 33.7279C56.9821 32.4162 57.2918 31.9075 57.3413 32.6591ZM59.935 29.9915C60.2054 30.3199 60.0416 31.277 59.7196 31.2508C59.46 31.2065 59.3189 30.1224 59.55 29.8998C59.6388 29.8141 59.809 29.8605 59.935 29.9915ZM47.3681 43.2367C47.3422 43.3878 47.1725 43.425 46.9841 43.3122C46.7326 43.1338 46.7412 43.0835 47.0449 43.0432C47.2501 42.9717 47.3939 43.0856 47.3681 43.2367ZM47.9169 42.3713C47.9626 42.5375 47.9729 42.738 47.9373 42.7723C47.884 42.8237 47.7494 42.743 47.6503 42.6282C47.542 42.4801 47.5409 42.3128 47.6298 42.2272C47.7364 42.1244 47.8619 42.1718 47.9169 42.3713ZM53.9499 36.4318C53.8002 36.7864 53.8185 36.8529 54.0872 36.9305C54.3737 36.991 54.3829 37.0242 54.1422 37.13C53.6962 37.3073 53.4415 36.6271 53.8239 36.3008C54.0372 36.0953 54.091 36.1275 53.9499 36.4318ZM48.4527 42.2756C48.4209 42.8952 48.7225 42.5205 48.8518 41.7649C48.938 41.2612 48.9649 41.2773 49.0042 41.8284C49.0457 42.714 48.7101 43.3738 48.4479 42.9114C48.3305 42.73 48.2481 42.4308 48.2739 42.2796C48.3601 41.7759 48.4764 41.79 48.4527 42.2756ZM56.1865 35.2442C56.2856 35.359 56.2959 35.5595 56.207 35.6451C56.1004 35.7479 55.9657 35.6673 55.92 35.501C55.865 35.3015 55.8639 35.1343 55.8995 35.1001C55.9528 35.0487 56.0783 35.096 56.1865 35.2442ZM50.6797 40.9712C50.7255 41.1374 50.7357 41.3379 50.7001 41.3722C50.6468 41.4235 50.5122 41.3429 50.4131 41.2281C50.3048 41.0799 50.3038 40.9127 50.3926 40.8271C50.4993 40.7243 50.6248 40.7717 50.6797 40.9712Z" fill="#BF57F3"/>
<path fill-rule="evenodd" clip-rule="evenodd" d="M19.6319 12.7485C19.4208 13.2885 19.1407 14.2315 19.0281 14.8027C18.8977 15.3911 18.775 15.7618 18.7475 15.6621C18.7109 15.5291 18.5967 15.8494 18.4836 16.3371C18.3796 16.8579 18.357 17.5108 18.4485 17.8433C18.5492 18.209 18.497 18.4276 18.2918 18.4991C17.8006 18.5938 17.6622 19.3161 18.0666 19.6416C18.3542 19.8693 18.3817 19.9691 18.1409 20.0748C17.9804 20.1454 17.7747 20.1333 17.6848 20.0516C17.3789 19.7574 18.723 24.394 19.0838 24.8878C19.3541 25.2162 19.3638 25.3331 19.1489 25.2877C18.9163 25.2595 18.9443 25.4429 19.2345 26.0887C19.4521 26.5522 19.7682 27.0469 19.9298 27.1437C20.2712 27.4036 20.6633 27.1941 20.3929 26.8656C20.303 26.784 20.4086 26.514 20.631 26.3418C20.8534 26.1695 21.057 25.8471 21.0646 25.6295C21.0899 25.3948 21.322 25.3393 21.5913 25.5006C22.1836 25.8553 23.1444 25.0978 22.837 24.5527C22.7287 24.4046 22.7626 24.1194 22.9226 23.9653C23.0825 23.8112 23.1429 23.4586 23.0605 23.1593C22.9873 22.8933 23.0126 22.6586 23.1289 22.6727C23.4601 22.7322 24.212 20.0725 24.0559 19.4236C23.9552 19.0579 24.0429 18.805 24.3542 18.5472C24.7905 18.253 24.9117 17.6314 24.7437 16.5312C24.5757 15.431 24.5423 14.4114 24.6845 14.2744C24.7734 14.1887 24.7621 13.821 24.6614 13.4553C24.5607 13.0895 24.3717 12.8931 24.2295 13.0301C24.0695 13.1842 23.9338 12.9364 23.7954 12.2704C23.6937 11.7374 23.6296 11.5046 23.6312 11.7555C23.6349 12.3409 22.8863 12.7257 22.7582 12.2602C22.7033 12.0607 22.8094 11.8743 22.979 11.8371C23.1578 11.833 23.2994 11.6124 23.307 11.3948C23.3232 11.1268 23.1977 11.0794 23.0555 11.2164C22.8955 11.3706 22.7695 11.2396 22.7588 10.9555C22.7098 10.2875 21.2713 10.4536 20.5609 11.2222C20.2857 11.5295 19.8699 12.2246 19.6319 12.7485Z" fill="#BF57F3"/>
<path fill-rule="evenodd" clip-rule="evenodd" d="M38.1223 6.79711C38.0172 7.15073 38.0447 7.2505 38.2591 7.21224C38.4287 7.17498 38.3134 7.32809 37.993 7.55272C37.3257 8.06949 36.3266 11.2198 36.661 11.7811C36.7876 11.9957 36.7633 12.3977 36.6131 12.6687C36.0476 13.7184 36.5634 17.4704 37.5316 19.2719C38.0206 20.2311 39.3642 22.0075 39.8403 22.3481C39.8941 22.3803 40.2237 22.1889 40.5706 21.8968C41.0063 21.519 41.1388 21.2652 40.9761 21.0012C40.8587 20.8198 40.8571 20.5689 40.9815 20.449C41.106 20.3292 40.9794 20.1146 40.6924 19.9705C40.4322 19.8425 40.3601 19.7437 40.575 19.7891C40.7629 19.8183 41.0946 19.9614 41.2923 20.1076C41.5621 20.3524 41.6154 20.301 41.5147 19.9353C41.4415 19.6693 41.5934 19.6492 41.9348 19.9091C42.3839 20.2336 42.4642 20.1984 42.434 19.6805C42.405 19.3299 42.3506 19.214 42.2892 19.3994C42.2278 19.5847 42.0942 19.6714 41.9951 19.5565C41.923 19.4578 42.0016 19.1717 42.2149 18.9662C42.419 18.7274 42.6123 18.2045 42.6366 17.8025C42.67 17.4338 42.9156 16.6923 43.1628 16.2017C43.4278 15.6939 43.5678 15.2224 43.4962 15.2073C43.2808 15.0783 43.5323 13.8684 43.7828 13.8795C43.9169 13.8765 43.9255 13.8261 43.8178 13.7616C43.7278 13.68 43.6438 13.1299 43.6487 12.4942C43.6347 11.7083 43.5518 11.3254 43.3272 11.1632C43.0935 10.9677 43.1016 10.8337 43.3504 10.594C43.617 10.3371 43.6165 10.2534 43.3569 10.2091C43.1598 10.1466 43.0962 9.99749 43.1662 9.76174C43.3068 9.37387 42.5179 7.65196 42.1506 7.54311C42.0698 7.49474 41.7273 7.06754 41.3665 6.57383C41.0326 6.09624 40.5382 5.68917 40.2431 5.67906C39.403 5.73136 38.2801 6.30849 38.1223 6.79711Z" fill="#BF57F3"/>
<path fill-rule="evenodd" clip-rule="evenodd" d="M20.931 27.1218C20.9057 27.3566 21.0484 27.3032 21.2164 27.0151C21.5703 26.4217 21.5595 26.1375 21.204 26.4801C21.0619 26.6171 20.9385 26.9042 20.931 27.1218Z" fill="#BF57F3"/>
<path fill-rule="evenodd" clip-rule="evenodd" d="M42.6471 20.5834C42.6153 21.2031 42.4742 21.5073 42.242 21.5627C41.9475 21.6362 41.9388 21.6866 42.235 21.864C42.5043 22.0252 42.5926 21.8559 42.7478 20.9492C42.8512 20.3447 42.8835 19.8087 42.8119 19.7936C42.7311 19.7452 42.6708 20.0978 42.6471 20.5834Z" fill="#BF57F3"/>
<path fill-rule="evenodd" clip-rule="evenodd" d="M40.4927 22.6514C40.6488 23.3003 41.3097 23.1684 41.5375 22.444C41.7303 21.8375 41.2289 21.7317 40.9467 22.3402C40.8406 22.5265 40.6623 22.6142 40.5449 22.4328C40.4453 22.2344 40.4103 22.3522 40.4927 22.6514Z" fill="#BF57F3"/>
<path d="M18.5543 48.8055C18.7015 48.6637 18.7799 48.3998 18.7293 48.2162C18.6788 48.0326 18.5184 47.9987 18.3712 48.1406C18.224 48.2825 18.1456 48.5463 18.1962 48.7299C18.2467 48.9136 18.4071 48.9474 18.5543 48.8055Z" fill="#BF57F3"/>
<path fill-rule="evenodd" clip-rule="evenodd" d="M21.4204 49.2406C21.3261 49.8784 21.4888 50.1423 22.0887 50.2794C22.5362 50.353 22.7231 50.215 22.8987 49.7093C23.0393 49.3214 23.0291 49.1209 22.8955 49.2076C22.7619 49.2942 22.5751 49.4322 22.4593 49.5017C22.3704 49.5873 22.1103 49.4594 21.8943 49.2468C21.6606 49.0513 21.4549 49.0391 21.4204 49.2406Z" fill="#BF57F3"/>
<path fill-rule="evenodd" clip-rule="evenodd" d="M35.7013 49.0165C35.7343 49.5176 35.8788 49.7429 36.1348 49.6926C36.3669 49.6372 36.4197 49.5022 36.257 49.2382C36.0944 48.9742 36.1472 48.8392 36.4504 48.7153C36.7267 48.5753 36.7972 48.4232 36.6615 48.1753C36.3901 47.6796 35.6609 48.2981 35.7013 49.0165Z" fill="#BF57F3"/>
<path fill-rule="evenodd" clip-rule="evenodd" d="M37.141 48.5204C37.2401 48.6353 37.2686 48.9023 37.1986 49.138C37.0494 49.5763 37.3564 50.0377 37.6407 49.7637C37.7296 49.6781 37.728 49.4272 37.6014 49.2126C37.484 49.0313 37.4275 48.5809 37.4792 48.2787C37.5482 47.8757 37.4852 47.8102 37.2541 48.0328C37.0942 48.1869 37.0241 48.4227 37.141 48.5204Z" fill="#BF57F3"/>
<path fill-rule="evenodd" clip-rule="evenodd" d="M53.5743 39.3348C53.7263 39.3147 53.8773 39.1271 53.9032 38.9757C53.9468 38.8072 53.8125 38.8101 53.626 39.032C53.4303 39.2206 53.4044 39.372 53.5743 39.3348Z" fill="#BF57F3"/>
</g>
<defs>
<clipPath id="clip0_1_810">
<rect width="68" height="56" fill="white"/>
</clipPath>
</defs>
</svg>
