<svg width="94" height="75" viewBox="0 0 94 75" fill="none" xmlns="http://www.w3.org/2000/svg">
<g clip-path="url(#clip0_1_386)">
<path fill-rule="evenodd" clip-rule="evenodd" d="M2.63308 37.6826C2.6837 37.7811 2.32852 38.0578 1.82446 38.2867C1.2467 38.5536 0.843167 38.9176 0.712107 39.3277C0.473816 40.0735 1.12071 41.4525 1.96794 42.0119C2.29179 42.2185 2.4928 42.4885 2.46971 42.625C2.43397 42.7369 2.52107 42.7854 2.66849 42.7093C2.79134 42.6459 2.91198 42.3968 2.87253 42.1992C2.88222 41.9762 2.94401 41.9755 3.08322 42.2462C3.22169 42.455 3.21273 42.7399 3.09063 42.8652C2.94395 43.0032 3.07052 43.2493 3.5321 43.6028C3.89392 43.8833 4.30339 44.0145 4.43741 43.8519C4.57143 43.6894 4.83125 43.711 5.0062 43.8699C5.19381 44.0534 5.18267 44.1525 5.02185 44.1421C4.57663 44.1227 4.67713 44.2577 5.53701 44.8417C5.93606 45.1341 6.19665 45.2176 6.10806 45.0453C6.03213 44.8977 6.17731 44.6359 6.47215 44.4838C6.81613 44.3063 6.96503 44.354 6.91885 44.627C6.90916 44.85 7.00144 45.3318 7.15404 45.689C7.35875 46.2685 7.39527 46.2186 7.34767 45.34C7.32909 44.8202 7.33579 44.3496 7.38493 44.3242C7.55692 44.2355 7.92614 45.1349 7.79286 45.3594C7.50246 45.8829 8.71302 46.8466 9.73971 46.9086C10.3457 46.9384 10.8535 47.019 10.8915 47.0928C10.9168 47.1421 10.8058 47.1681 10.6205 47.1704C10.4596 47.1599 10.3748 47.2972 10.4634 47.4694C10.5773 47.6909 10.9108 47.6745 11.365 47.4091C11.9301 47.1175 12.0388 46.9057 11.8616 46.5611C11.5073 45.872 11.9674 46.1017 12.5331 46.8998C12.822 47.2801 12.9508 47.7119 12.854 47.8865C12.7691 48.0237 12.6209 48.0378 12.5324 47.8656C12.4311 47.6687 12.3328 47.7194 12.1765 48.0803C11.9963 48.5159 11.9345 48.5166 11.8794 48.0468C11.8005 47.6515 11.7506 47.6149 11.7178 47.9744C11.6605 48.3466 11.6113 48.3719 11.3493 48.1646C11.1617 47.9811 11.0753 47.9945 11.1766 48.1914C11.2279 48.3518 11.6381 48.5449 12.0714 48.6016C12.4675 48.6464 12.8279 48.8031 12.8167 48.9023C12.8182 49.0261 12.9551 49.1111 13.1279 49.0842C13.3006 49.0574 13.3959 48.7591 13.3796 48.425C13.2716 47.671 13.8658 47.7381 14.5678 48.5593C14.9944 49.0866 14.9952 49.1485 14.6214 48.9053C14.0861 48.5898 13.2366 48.8725 13.6245 49.264C13.7868 49.3983 14.2335 49.5415 14.6534 49.5117C15.0614 49.5192 15.2602 49.6034 15.0882 49.6922C14.8425 49.8189 14.9177 49.9047 15.3644 50.0479C16.0471 50.2874 16.1684 50.1002 15.8625 49.3238C15.7099 48.9665 15.7933 48.7055 16.1373 48.528C16.5304 48.3252 16.5803 48.3618 16.3867 48.7108C16.1931 49.0598 16.1938 49.1217 16.4886 48.9696C16.7343 48.8428 16.7738 49.0405 16.5832 49.6371C16.3829 50.4567 16.3836 50.5186 16.9658 50.623C17.35 50.7051 17.4363 50.6917 17.2122 50.5582C16.7514 50.2665 18.1288 49.6804 18.7862 49.8707C19.0468 49.9542 19.4912 49.9117 19.7615 49.7722C20.0072 49.6455 20.279 49.6298 20.3549 49.7775C20.4308 49.9252 20.2097 50.0393 19.7161 50.1071C18.6789 50.2062 18.667 50.2435 19.145 50.9312C19.4093 51.3243 19.7205 51.5062 19.9416 51.3921C20.1382 51.2907 20.4613 51.4354 20.6749 51.73C20.9511 52.0858 21.1499 52.1701 21.345 51.9448C21.5036 51.7696 21.6391 51.7308 21.616 51.8673C21.6056 52.0284 21.9168 52.2104 22.3136 52.3171C23.0201 52.4819 23.0447 52.4692 22.6196 52.0657C22.0315 51.4661 22.438 51.3498 23.408 51.8458C23.8555 52.0509 24.0185 52.2471 23.7833 52.2127C23.4989 52.2038 23.4624 52.2538 23.6738 52.3627C23.8607 52.4842 24.1942 52.4678 24.4153 52.3537C24.7839 52.1636 24.8092 52.2128 24.6037 52.5991C24.4347 52.9354 24.4965 52.9347 24.8874 52.5462C25.1807 52.2702 25.7325 51.8922 26.1628 51.7013C26.5559 51.4984 26.9103 51.1599 26.9327 50.9615C26.9662 50.6639 27.0153 50.6386 27.1292 50.8601C27.2052 51.0077 27.185 51.3918 27.0897 51.6901C26.9713 52.1249 27.01 52.2607 27.3063 52.2323C27.4917 52.2301 27.4307 52.2927 27.1224 52.3584C26.8269 52.4486 26.471 52.6634 26.3377 52.8878C26.156 53.1996 26.2557 53.2727 26.7873 53.2787C27.1462 53.3115 27.4172 53.2339 27.3666 53.1355C27.316 53.0371 27.6011 53.1079 28.0106 53.2392C28.4081 53.4078 28.767 53.4406 28.8147 53.2915C28.8504 53.1796 28.9621 53.2154 29.0507 53.3877C29.1646 53.6092 29.2986 53.4466 29.4654 52.9246C29.6903 52.0923 30.2316 51.8753 30.4124 52.5294C30.4645 52.7516 30.577 52.8493 30.638 52.7867C30.6991 52.724 31.0334 52.7696 31.393 52.8643C31.728 52.9717 32.1479 52.9419 32.2819 52.7793C32.4405 52.6041 32.687 52.5392 32.8239 52.6242C32.9609 52.7093 32.8887 52.8711 32.6303 52.9732C32.4092 53.0873 32.2879 53.2745 32.401 53.4341C32.5514 53.6057 32.4293 53.731 32.133 53.7593C31.7994 53.7757 31.751 53.8629 31.9878 54.021C32.1992 54.1299 32.532 54.0517 32.777 53.863C33.0338 53.637 33.2066 53.6102 33.2215 53.8205C33.3004 54.2158 35.0484 54.6529 35.589 54.374C35.8101 54.2599 36.0454 54.2942 36.1213 54.4419C36.1846 54.565 36.3328 54.5508 36.4177 54.4136C36.5271 54.2637 36.638 54.2376 36.714 54.3853C36.7773 54.5083 37.1242 54.5784 37.4942 54.5121C37.8397 54.4584 38.1978 54.4294 38.3221 54.4898C38.7197 54.6583 40.8312 54.472 41.298 54.2312C41.5437 54.1044 41.9882 54.0619 42.2487 54.1455C42.8689 54.3237 44.4376 54.2306 44.5091 54.0069C44.5575 53.9196 44.9164 53.9525 45.3258 54.0838L46.1076 54.3344L46.2461 53.5155C46.3504 52.9323 46.261 52.6981 46.0012 52.6765C45.7414 52.6548 45.7525 52.5556 46.0474 52.4035C46.2685 52.2894 46.5157 52.2864 46.5916 52.4341C46.6549 52.5572 46.841 52.6168 46.9885 52.5408C47.1113 52.4774 47.0972 52.329 46.9602 52.2439C46.8105 52.1343 46.809 52.0105 46.9319 51.9471C47.0793 51.8711 47.2528 51.9061 47.3287 52.0538C47.392 52.1769 47.6273 52.2112 47.8484 52.0971C48.1924 51.9196 48.2177 51.9688 48.1246 52.4528C48.0434 52.8996 47.9451 52.9503 47.6831 52.7429C47.1835 52.3156 46.4367 52.9189 46.6794 53.5722C46.7829 53.9548 46.9824 54.101 47.2035 53.9869C47.4001 53.8855 47.6473 53.8825 47.747 53.9556C47.8595 54.0533 48.2674 54.0608 48.7112 53.9564C49.4505 53.7618 49.4967 53.4889 48.8676 52.5678C48.6919 52.347 48.7775 52.2717 49.2719 52.2657C50.0633 52.2934 50.2845 52.1793 49.9234 51.9607C49.7737 51.8511 49.7477 51.74 49.8705 51.6766C50.0179 51.6005 50.2785 51.6841 50.4661 51.8675C50.6411 52.0264 50.8883 52.0234 50.9851 51.8489C51.1184 51.6244 51.1682 51.661 51.1719 51.9705C51.1503 52.2308 51.2479 52.1182 51.4162 51.7199C51.6003 51.272 51.8153 51.3272 52.0609 51.8855C52.2522 52.3785 52.5418 52.8208 52.6788 52.9058C53.089 53.099 53.7539 52.8805 53.3928 52.662C53.2558 52.5769 53.2908 52.4032 53.4874 52.3018C53.7085 52.1877 53.7308 51.9893 53.5559 51.8304C53.3809 51.6716 53.3408 51.412 53.4495 51.2002C53.6073 50.9631 53.6699 51.0242 53.7108 51.3457C53.7391 51.6425 53.9014 51.7768 54.0488 51.7007C54.2208 51.6119 54.2111 51.8349 54.0547 52.1959C53.8864 52.5941 54.0065 52.6464 54.415 52.3526C54.9787 51.9372 55.5504 52.2027 55.2355 52.7389C55.1379 52.8515 55.1871 52.8262 55.3464 52.7128C55.4685 52.5875 55.6904 52.5353 55.7902 52.6084C55.8899 52.6815 55.852 52.6077 55.7142 52.4608C55.5884 52.2766 55.3495 51.9327 55.2229 51.6866C55.0584 51.3666 54.8968 51.2943 54.7635 51.5188C54.6422 51.7059 54.6049 51.694 54.6146 51.471C54.6243 51.248 54.5119 51.1503 54.3645 51.2264C54.2171 51.3024 54.1047 51.2047 54.1151 51.0436C54.1374 50.8453 54.3593 50.7931 54.6943 50.9005C55.0167 50.9833 55.3502 50.9669 55.4351 50.8297C55.5074 50.6678 55.631 50.6664 55.7069 50.814C55.7702 50.9371 55.7113 51.1855 55.5892 51.3107C55.3941 51.536 55.4194 51.5852 55.6651 51.4584C55.8252 51.407 56.0359 51.4539 56.1119 51.6016C56.1751 51.7247 56.0776 51.8373 55.855 51.8276C55.6197 51.7933 55.6204 51.8552 55.82 52.0014C56.0314 52.1103 56.2905 52.07 56.4491 51.8947C56.6323 51.7068 56.8184 51.7665 56.9703 52.0618C57.1095 52.3326 57.3462 52.4907 57.4936 52.4146C57.6411 52.3386 57.6388 52.1529 57.4765 52.0186C57.3016 51.8598 57.1989 51.539 57.245 51.2661C57.3024 50.8939 57.3396 50.9059 57.3813 51.2892C57.4475 51.6599 57.6091 51.7322 57.9039 51.5801C58.2233 51.4153 58.2732 51.4519 58.1161 51.7509C57.9344 52.0626 57.9597 52.1119 58.3178 52.0828C58.6387 52.0418 58.7221 51.7808 58.5547 51.2132C58.4244 50.6576 58.4825 50.3474 58.7781 50.2571C59.0364 50.155 59.4154 49.8037 59.6462 49.4666C59.8889 49.0922 60.0483 48.9789 60.0386 49.2019C60.0163 49.4003 60.1041 49.5107 60.2515 49.4346C60.3989 49.3585 60.5247 49.5428 60.5649 49.8023C60.5939 50.161 60.7056 50.1968 60.9253 49.9589C61.0712 49.7591 61.4159 49.6435 61.6884 49.6897C62.0599 49.7472 62.048 49.7845 61.6653 49.8262C61.3817 49.8791 61.2104 50.0298 61.2737 50.1528C61.5015 50.5959 60.9826 50.6145 60.4212 50.1879C60.0095 49.8709 59.9232 49.8843 60.0877 50.2043C60.1897 50.463 60.168 50.7233 60.0206 50.7994C59.8978 50.8628 59.7854 50.7651 59.7958 50.604C59.7936 50.4183 59.6938 50.3452 59.571 50.4086C59.4235 50.4846 59.3893 50.7203 59.5032 50.9418C59.6044 51.1387 59.5322 51.3005 59.3714 51.2901C59.1733 51.2677 59.0475 51.0835 59.0453 50.8978C59.0543 50.6129 59.0297 50.6255 58.9098 50.9365C58.6343 51.6704 59.4674 52.0814 60.1784 51.5899C60.509 51.3259 60.8046 51.2357 60.7941 51.3968C60.7711 51.5333 60.8708 51.6064 61.0182 51.5303C61.1411 51.4669 61.2744 51.2424 61.2848 51.0814C61.2826 50.8957 61.4777 50.6704 61.6742 50.569C61.8708 50.4676 62.0323 50.54 62.0219 50.701C61.9996 50.8994 61.8157 51.0255 61.6303 51.0277C61.3459 51.0187 61.3585 51.0433 61.669 51.1634C61.905 51.2597 62.9525 50.9994 64.0105 50.5781C65.5487 50.0025 65.9657 49.7251 66.1705 49.2768C66.3261 48.854 66.4735 48.7779 66.7348 48.9233C66.9343 49.0695 66.9351 49.1314 66.6998 49.0971C66.4772 49.0874 66.3797 49.2 66.443 49.3231C66.5189 49.4708 66.6559 49.5558 66.7914 49.517C67.9849 49.0569 68.6103 48.6408 68.5574 48.3567C68.5284 47.9979 69.6117 47.6258 69.7636 47.9212C69.9281 48.2411 70.9467 47.6222 71.1008 47.0755C71.3272 46.367 71.7114 46.4491 71.5594 47.1815C71.4656 47.6036 71.5035 47.6774 71.8229 47.5126C72.0441 47.3985 72.2265 47.1487 72.237 46.9876C72.2593 46.7892 72.4432 46.6632 72.6412 46.6856C72.8884 46.6826 72.8259 46.6215 72.5028 46.4768C72.167 46.3074 72.0538 46.1478 72.1506 45.9733C72.2593 45.7615 72.1328 45.5154 71.7829 45.1977C71.4829 44.9165 71.2945 44.6711 71.3682 44.6331C71.6876 44.4683 72.7277 44.6167 72.8416 44.8382C72.9176 44.9859 72.8446 45.0858 72.6838 45.0754C72.523 45.0649 72.4016 45.2521 72.4418 45.5117C72.4708 45.8704 72.5944 45.8689 72.9607 45.4931C73.2541 45.2171 73.3499 45.3027 73.2481 45.7497C73.0113 46.6192 73.1133 46.878 73.5161 46.4522C73.662 46.2523 73.7089 46.0413 73.5846 45.9808C73.3106 45.8108 74.5719 44.8175 75.1891 44.7482C75.6336 44.7057 75.6462 44.7303 75.2925 45.1307C75.0364 45.4186 75.2829 45.3538 75.9954 44.9861C76.8181 44.5305 76.9276 44.3806 76.5561 44.3231C76.2218 44.2776 76.0334 44.0322 75.9672 43.6616C75.9263 43.3401 75.7736 42.9829 75.6367 42.8979C75.487 42.7882 75.499 42.7509 75.6724 42.786C75.8213 42.8337 76.0164 42.6085 76.0618 42.2737C76.1668 41.7524 76.1914 41.7397 76.3716 42.3318C76.475 42.7144 76.4802 43.1478 76.3834 43.3223C76.2501 43.5467 76.3625 43.6445 76.7705 43.6519C77.7965 43.652 79.7137 42.7251 79.2283 42.4461C79.0541 42.3491 79.1643 42.2612 79.436 42.2455C79.7197 42.1926 79.952 41.9793 79.9736 41.719C79.9944 41.3968 80.0682 41.3588 80.1694 41.5557C80.2833 41.7772 80.6161 41.6989 81.1559 41.3581C81.9905 40.8652 82.1692 40.3059 81.383 40.7115C80.9772 40.8897 80.9646 40.8651 81.2683 40.4281C81.523 40.0165 81.4969 39.9053 81.1381 39.8725C80.8165 39.8516 80.8276 39.7524 81.2208 39.5496C81.5156 39.3974 81.7829 39.0104 81.7792 38.7009C81.8127 38.4033 81.8976 38.2661 81.9862 38.4384C82.0622 38.5861 82.0532 38.8709 81.9564 39.0455C81.8469 39.1954 81.9251 39.5287 82.1253 39.7368C82.3256 39.9449 82.3785 40.2291 82.2444 40.3916C82.1223 40.5169 82.3323 40.502 82.7008 40.3119C83.082 40.1463 83.4357 39.7459 83.5556 39.4349C83.6747 39.062 83.8214 38.924 84.0209 39.0702C84.2324 39.1791 84.4029 38.9665 84.5332 38.4945C84.7462 37.6994 84.6919 37.2915 84.4253 37.7405C84.3404 37.8777 84.1923 37.8918 84.129 37.7688C84.053 37.6211 84.088 37.4473 84.2109 37.384C84.3337 37.3206 84.3672 37.023 84.3017 36.7142C84.2362 36.4055 84.3681 36.0572 84.5892 35.9431C84.8349 35.8163 84.9719 35.9014 84.9622 36.1244C84.9406 36.3847 85.0269 36.3712 85.2712 36.1207C85.4662 35.8954 85.6018 35.8566 85.5794 36.055C85.5816 36.2407 85.3374 36.4913 85.0671 36.6308C84.502 36.9223 84.7447 37.5757 85.4237 37.5056C86.1027 37.4355 86.1883 37.3602 85.8384 37.0425C85.6009 36.8224 85.6493 36.7352 85.9702 36.6942C86.2911 36.6532 86.3395 36.566 86.1281 36.4571C85.9412 36.3355 85.9271 36.1871 86.0499 36.1237C86.1973 36.0476 86.4341 36.2057 86.586 36.5011C86.7252 36.7718 86.7028 36.9702 86.5174 36.9724C86.3566 36.962 86.2591 37.0746 86.3224 37.1976C86.5502 37.6407 86.9411 37.2521 86.9456 36.5958C86.9516 36.0633 87.1593 35.8627 88.2046 35.4168C89.41 34.9194 89.4219 34.8821 89.1778 34.105C88.9344 33.3898 88.8971 33.3778 88.8048 33.9237C88.7348 34.2713 88.5896 34.5331 88.4652 34.4726C88.3163 34.4249 88.2516 34.178 88.3104 33.9297C88.3812 33.6441 88.3291 33.4218 88.242 33.3733C88.1303 33.3375 88.3127 33.0877 88.6679 32.811C89.023 32.5344 89.4005 32.0593 89.4839 31.7983C89.5919 31.5246 89.9441 31.0003 90.2739 30.6744C91.2381 29.6475 90.3604 28.6056 89.0828 29.2648C88.7388 29.4422 88.3077 29.5713 88.1462 29.4989C87.9973 29.4512 87.5662 29.5801 87.173 29.783C86.8045 29.9731 86.5722 30.1864 86.6965 30.2469C86.8089 30.3446 86.7241 30.4818 86.5029 30.5959C86.2818 30.7099 86.1083 30.6749 86.1314 30.5384C86.1418 30.3773 85.993 30.3296 85.7964 30.431C85.5998 30.5324 85.4911 30.7442 85.5671 30.8919C85.643 31.0396 85.5075 31.0783 85.2469 30.9948C84.6885 30.8158 84.2582 31.0067 84.6565 31.2371C84.7935 31.3222 84.8322 31.4579 84.6848 31.534C84.5619 31.5973 84.3021 31.5757 84.1651 31.4907C83.9782 31.3691 83.7936 31.4332 83.6975 31.6696C83.6015 31.9061 83.0125 32.2722 82.3975 32.5272C81.7207 32.783 81.1817 33.1857 81.0492 33.4721C80.8563 33.883 80.8317 33.8957 80.8526 33.5735C80.8623 33.3505 80.7499 33.2528 80.5042 33.3796C80.3076 33.481 80.1252 33.7308 80.1148 33.8919C80.0924 34.0903 79.9457 34.2282 79.7849 34.2178C79.6114 34.1827 79.4275 34.3087 79.3181 34.4586C79.2332 34.5959 78.3993 35.1507 77.4664 35.6943C76.5089 36.2506 75.6884 36.892 75.5439 37.2156C75.3876 37.5766 75.3265 37.6393 75.3355 37.3544C75.3578 37.156 75.2327 37.0336 75.1099 37.097C74.9625 37.1731 74.8903 37.3349 74.9662 37.4826C75.0295 37.6056 74.8701 37.719 74.5865 37.772C74.2656 37.813 74.2045 37.8756 74.4286 38.0091C74.6155 38.1307 74.6296 38.2791 74.4822 38.3551C74.3348 38.4312 74.0868 38.3723 73.9245 38.238C73.5746 37.9203 71.1809 39.3111 71.236 39.7809C71.2501 39.9293 71.0655 39.9934 70.8302 39.9591C70.2971 39.8293 66.0027 41.4534 64.9975 42.1589C64.556 42.449 64.2604 42.5392 64.2709 42.3781C64.2932 42.1797 64.1443 42.132 63.9723 42.2207C62.7431 42.7927 60.5519 43.5495 59.1343 43.8761C58.2223 44.0976 56.9283 44.4226 56.2508 44.6165C55.5606 44.7858 54.7468 44.9565 54.4133 44.9729C54.0797 44.9893 53.2049 45.2227 52.4544 45.5165C51.6667 45.7983 50.9758 45.9057 50.7881 45.7222C50.6132 45.5633 50.267 45.5551 50.0213 45.6819C49.7756 45.8086 49.3929 45.8504 49.2068 45.7907C48.9834 45.7191 48.5144 45.7743 48.1696 45.8898C47.8376 46.03 46.9367 46.1523 46.1706 46.1739C45.4045 46.1955 44.5408 46.3296 44.2214 46.4944C43.902 46.6593 43.6548 46.6622 43.6653 46.5011C43.7099 46.1044 41.2143 46.2086 40.2181 46.6292C39.8124 46.8074 39.417 46.8246 39.3656 46.6642C39.3269 46.5285 38.9815 46.5822 38.6256 46.7969C38.1469 47.0751 37.9369 47.09 37.8967 46.8304C37.8811 46.5582 37.485 46.5134 36.7449 46.6461C36.0667 46.7781 35.6334 46.7214 35.6431 46.4984C35.6528 46.2754 35.6155 46.2635 35.4942 46.4507C35.2276 46.8996 32.9278 46.8406 32.0939 46.3677C31.6584 46.1253 31.1387 46.082 30.7702 46.2721C30.3771 46.475 30.179 46.4526 30.2007 46.1923C30.2103 45.9693 30.1731 45.9574 30.0517 46.1446C29.7971 46.5562 28.4726 46.3988 28.6037 45.9886C28.6387 45.8148 28.5895 45.8402 28.4801 45.9901C28.3706 46.14 27.9507 46.1698 27.5293 46.0758C27.0953 45.9572 26.6865 45.8878 26.6128 45.9258C26.5391 45.9639 26.1676 45.9064 25.7708 45.7998C25.3866 45.7177 24.7791 45.564 24.4195 45.4693C24.0599 45.3746 23.5908 45.4297 23.395 45.593C23.162 45.7444 23.0012 45.734 23.0243 45.5975C23.0347 45.4364 22.5009 45.2447 21.7951 45.1417C21.1019 45.0634 20.519 44.897 20.4929 44.7859C20.4669 44.6748 20.0083 44.5689 19.4521 44.5755C18.896 44.5822 18.549 44.5121 18.6592 44.4241C19.0032 44.2466 17.8365 43.852 17.1084 43.9474C16.7257 43.9892 16.4398 43.8564 16.4503 43.6953C16.448 43.5096 16.2612 43.388 16.0266 43.4156C15.7675 43.4559 15.507 43.3723 15.4437 43.2493C15.2412 42.8555 13.977 42.5735 13.1759 42.7688C12.4485 42.9261 12.4358 42.9015 12.689 42.3661C12.8742 42.0006 12.8154 41.9064 12.5126 42.0834C12.2304 42.2602 12.0078 42.2505 11.9557 42.0282C11.8135 41.5099 9.90089 40.7528 9.95595 41.2226C9.97157 41.4948 9.92244 41.5202 9.79589 41.2741C9.68273 41.1145 9.54648 41.0913 9.43703 41.2412C9.35214 41.3784 9.17867 41.3434 9.06477 41.1219C8.95088 40.9004 8.80197 40.8526 8.69252 41.0025C8.60764 41.1397 8.45947 41.1539 8.3962 41.0308C8.32026 40.8832 8.37984 40.6967 8.50269 40.6333C8.65011 40.5573 8.69777 40.4081 8.62184 40.2604C8.55856 40.1374 8.36126 40.1769 8.20266 40.3521C8.03215 40.5647 7.77155 40.4812 7.43356 40.1261C7.18268 39.8196 6.85883 39.613 6.73598 39.6764C6.61313 39.7398 6.42628 39.6182 6.32504 39.4213C6.2238 39.2244 6.03693 39.1028 5.88951 39.1789C5.76666 39.2423 5.56788 39.158 5.46663 38.9611C5.2768 38.5919 3.75946 38.8454 3.49289 39.2943C3.42066 39.4562 3.1988 39.5084 3.04915 39.3987C2.87494 39.3018 2.84888 39.1906 2.98438 39.1519C3.80932 38.8819 4.1995 38.4315 3.92331 38.0757C3.76027 37.8796 3.57191 37.6342 3.53394 37.5604C3.38282 37.3269 2.51918 37.4611 2.63308 37.6826ZM1.6867 39.1674C1.82368 39.2525 1.86238 39.3882 1.71496 39.4643C1.59211 39.5277 1.33228 39.506 1.1953 39.421C1.04566 39.3113 1.01958 39.2002 1.167 39.1242C1.28985 39.0608 1.53705 39.0578 1.6867 39.1674ZM2.43928 41.1148C2.54052 41.3117 2.49286 41.4608 2.33204 41.4504C2.17123 41.4399 2.05809 41.2803 2.06852 41.1192C2.12513 40.6852 2.22414 40.6964 2.43928 41.1148ZM3.81519 40.4049C3.85538 40.6644 3.7958 40.8508 3.70869 40.8023C3.59702 40.7665 3.54567 40.6062 3.56802 40.4078C3.58666 39.8999 3.77204 39.8977 3.81519 40.4049ZM5.01758 40.6876C5.16944 40.9829 4.88727 41.1597 4.18443 41.3043C4.09807 41.3177 4.21944 41.1305 4.42643 40.868C4.63342 40.6055 4.80392 40.393 4.82849 40.3803C4.81583 40.3557 4.91634 40.4907 5.01758 40.6876ZM8.56813 41.9698C8.6061 42.0436 8.57109 42.2174 8.46164 42.3673C8.37675 42.5045 8.22859 42.5187 8.16531 42.3956C8.08938 42.248 8.14896 42.0615 8.27181 41.9981C8.41923 41.9221 8.54282 41.9206 8.56813 41.9698ZM9.57099 42.1063C9.67223 42.3032 9.71167 42.5009 9.66253 42.5262C9.61339 42.5516 9.42653 42.43 9.227 42.2838C9.05205 42.125 9.01261 41.9273 9.13546 41.8639C9.28288 41.7879 9.46975 41.9095 9.57099 42.1063ZM6.19668 44.1899C6.16094 44.3018 5.95247 44.4405 5.74252 44.4554C5.50799 44.483 5.54372 44.3711 5.81399 44.2316C6.0716 44.0676 6.257 44.0654 6.19668 44.1899ZM8.03494 43.8954C8.55684 44.1244 8.5449 44.1617 8.01183 44.0319C7.67754 43.9864 7.37976 43.8909 7.35445 43.8417C7.25321 43.6448 7.51305 43.6664 8.03494 43.8954ZM9.45925 43.0982C9.57315 43.3198 9.75852 43.3176 10.0027 43.067C10.2715 42.8037 10.3087 42.8157 10.2261 43.1386C10.0839 43.648 9.19565 43.7948 8.9552 43.3272C8.85396 43.1303 8.90087 42.9192 9.02372 42.8558C9.17114 42.7798 9.35801 42.9014 9.45925 43.0982ZM10.2596 43.8687C10.614 43.5302 10.713 43.5413 10.5938 43.9142C10.4397 44.4609 9.61328 44.607 9.41005 44.1513C9.29615 43.9298 9.34528 43.9044 9.50758 44.0387C9.66988 44.1729 9.99002 44.0701 10.2596 43.8687ZM9.46505 45.6489C9.70624 46.1784 9.79632 46.4745 9.63402 46.3403C9.50895 46.2179 9.28557 46.1463 9.16272 46.2097C9.0153 46.2858 9.05404 46.4215 9.24091 46.5431C9.42777 46.6647 9.41584 46.7019 9.19323 46.6922C8.8098 46.6721 8.61479 45.8696 8.95877 45.6921C9.08162 45.6287 9.09132 45.4057 8.99008 45.2088C8.88883 45.0119 8.84939 44.8143 8.9231 44.7763C8.97224 44.7509 9.23651 45.144 9.46505 45.6489ZM10.5974 46.2791C10.7724 46.438 10.7984 46.5491 10.6131 46.5514C10.4277 46.5536 10.2408 46.432 10.1649 46.2843C9.98769 45.9398 10.1976 45.9249 10.5974 46.2791ZM14.3581 44.4633C14.3477 44.6244 14.1407 44.887 13.9195 45.001C13.551 45.1912 13.5257 45.142 13.7439 44.7803C14.0707 44.2068 14.3902 44.042 14.3581 44.4633ZM15.2403 44.849C15.1205 45.16 14.2248 45.7155 14.1362 45.5432C14.0729 45.4202 14.2926 45.1823 14.6365 45.0048C14.9805 44.8274 15.2515 44.7498 15.2403 44.849ZM14.0817 47.1907C13.9268 47.6755 13.4809 47.5941 13.5367 47.0982C13.5345 46.9125 13.7058 46.7619 13.8911 46.7596C14.0892 46.782 14.1651 46.9297 14.0817 47.1907ZM15.8247 46.1669C15.9617 46.2519 15.9394 46.4503 15.7808 46.6255C15.6103 46.838 15.4986 46.8022 15.4703 46.5054C15.4152 46.0356 15.5008 45.9602 15.8247 46.1669ZM15.8715 48.0112C16.0212 48.1208 15.9117 48.2707 15.6288 48.3856C15.3585 48.525 15.1478 48.478 15.1463 48.3542C15.1791 47.9948 15.5603 47.8292 15.8715 48.0112ZM17.6352 48.7205C17.6985 48.8436 17.6508 48.9928 17.5526 49.0435C17.4297 49.1069 17.2428 48.9853 17.1416 48.7884C17.0404 48.5915 17.088 48.4423 17.2488 48.4528C17.3851 48.4759 17.5593 48.5729 17.6352 48.7205ZM21.5754 46.4073C21.7116 46.4305 21.7384 46.6035 21.6535 46.7407C21.5686 46.8779 21.2723 46.9062 21.0363 46.81C20.6514 46.6661 20.638 46.5796 20.9581 46.4767C21.1919 46.3872 21.4637 46.3715 21.5754 46.4073ZM22.0785 49.1996C22.2155 49.2846 22.2296 49.4331 22.1068 49.4964C21.9594 49.5725 21.7732 49.5128 21.71 49.3898C21.634 49.2421 21.6325 49.1183 21.6817 49.093C21.7554 49.0549 21.9289 49.09 22.0785 49.1996ZM21.2476 50.0021C21.322 50.0259 21.3495 50.2608 21.3279 50.5211C21.2706 50.8933 21.185 50.9686 20.9973 50.7851C20.8351 50.6509 20.6005 50.6784 20.4665 50.841C20.3325 51.0036 19.9617 51.0081 19.6512 50.888C19.1666 50.6709 19.2031 50.621 20.1263 50.3003C20.6557 50.1206 21.1731 49.9782 21.2476 50.0021ZM22.3904 50.4712C22.6904 50.7524 22.6785 50.7897 22.2199 50.6838C21.625 50.5547 21.4999 50.4324 21.8193 50.2676C21.9422 50.2042 22.2027 50.2877 22.3904 50.4712ZM23.9635 50.7495C24.0142 50.8479 23.8675 50.9859 23.633 51.0135C23.3858 51.0165 23.1379 50.9575 23.0746 50.8345C23.024 50.736 23.1706 50.598 23.4052 50.5705C23.6523 50.5675 23.9003 50.6264 23.9635 50.7495ZM30.144 47.6541C30.182 47.7279 30.1469 47.9017 30.0375 48.0516C29.9526 48.1888 29.8044 48.2029 29.7412 48.0799C29.6652 47.9322 29.7248 47.7458 29.8477 47.6824C29.9951 47.6063 30.1187 47.6048 30.144 47.6541ZM25.562 51.077C25.6268 51.3239 25.5322 51.6841 25.3118 51.8601C25.0177 52.0741 24.906 52.0383 24.8524 51.6922C24.8368 51.42 24.6745 51.2858 24.5025 51.3745C24.306 51.4759 24.2926 51.3894 24.4377 51.1276C24.7646 50.5541 25.3826 50.5467 25.562 51.077ZM28.348 51.4769C28.3025 51.8118 28.2444 52.122 28.2452 52.1839C28.2333 52.2212 28.071 52.087 27.8454 51.8296C27.5573 51.5112 27.5923 51.3374 27.9608 51.1472C28.4031 50.9191 28.453 50.9556 28.348 51.4769ZM46.385 46.5304C46.9069 46.7594 46.895 46.7967 46.3619 46.6669C46.0276 46.6213 45.7298 46.5259 45.7045 46.4766C45.6033 46.2797 45.8631 46.3014 46.385 46.5304ZM34.6383 53.432C34.6025 53.5439 34.3048 53.4484 33.9809 53.2418C33.3957 52.8898 33.4203 52.8771 34.0405 53.0554C34.4127 53.1747 34.6867 53.3448 34.6383 53.432ZM39.0958 52.0041C39.2827 52.1257 39.3207 52.1995 39.1472 52.1644C38.9983 52.1167 38.7533 52.3054 38.6208 52.5918C38.416 53.04 38.4034 53.0154 38.4957 52.4694C38.6357 51.7744 38.6722 51.7244 39.0958 52.0041ZM40.4143 52.694C40.3786 52.8059 40.1701 52.9446 39.9602 52.9595C39.7256 52.9871 39.7614 52.8752 40.0316 52.7358C40.2892 52.5717 40.4746 52.5695 40.4143 52.694ZM41.8811 52.3421C41.9443 52.4652 41.8609 52.7262 41.6778 52.9141C41.3971 53.2147 41.3598 53.2027 41.4656 52.7433C41.5944 52.1474 41.7165 52.0221 41.8811 52.3421ZM41.4134 53.5488C41.5504 53.6338 41.5645 53.7822 41.4417 53.8456C41.2943 53.9217 41.1082 53.862 41.0449 53.7389C40.9689 53.5912 40.9674 53.4675 41.0166 53.4421C41.0903 53.4041 41.2638 53.4391 41.4134 53.5488ZM43.6351 53.2745C43.4884 53.4124 43.1802 53.478 42.994 53.4184C42.6962 53.3229 42.7819 53.2476 43.2502 53.1305C43.6202 53.0641 43.7937 53.0992 43.6351 53.2745ZM44.868 53.012C45.005 53.097 45.0192 53.2454 44.8963 53.3088C44.7489 53.3849 44.5628 53.3252 44.4995 53.2021C44.4236 53.0545 44.422 52.9307 44.4712 52.9053C44.5449 52.8673 44.7184 52.9024 44.868 53.012ZM50.6404 50.9368C50.7774 51.0218 50.8049 51.2568 50.7081 51.4313C50.5868 51.6184 50.525 51.6192 50.5347 51.3962C50.5451 51.2351 50.3701 51.0763 50.1974 51.1031C49.9257 51.1187 49.8758 51.0822 50.0969 50.9681C50.2317 50.8674 50.4789 50.8644 50.6404 50.9368ZM48.9011 53.2979C48.9264 53.3471 48.7797 53.4851 48.5832 53.5865C48.3866 53.6879 48.164 53.6782 48.0881 53.5305C48.0248 53.4075 48.1715 53.2695 48.406 53.2419C48.6532 53.2389 48.8758 53.2486 48.9011 53.2979ZM86.4826 35.0908C86.5079 35.14 86.3991 35.3518 86.216 35.5397C86.0574 35.715 85.9465 35.7411 85.9442 35.5554C85.9651 35.2332 86.3813 34.8939 86.4826 35.0908ZM88.2724 34.8836C88.7943 35.1125 88.7824 35.1498 88.2493 35.02C87.915 34.9745 87.6172 34.879 87.5919 34.8298C87.4907 34.6329 87.7505 34.6546 88.2724 34.8836ZM78.7057 40.0998C78.67 40.2117 78.4615 40.3504 78.2516 40.3653C78.017 40.3929 78.0528 40.281 78.323 40.1416C78.5807 39.9775 78.7661 39.9753 78.7057 40.0998ZM80.4092 39.906C80.3854 39.9806 80.1025 40.0954 79.7324 40.1618C79.276 40.2416 79.1763 40.1684 79.3215 39.9067C79.5032 39.595 80.5045 39.6077 80.4092 39.906ZM81.1642 38.9559C81.3012 39.0409 81.3399 39.1767 81.1925 39.2527C81.0696 39.3161 80.8098 39.2945 80.6728 39.2094C80.5232 39.0998 80.4971 38.9887 80.6445 38.9126C80.7674 38.8492 81.0146 38.8463 81.1642 38.9559ZM82.7866 38.1811C82.7107 38.0335 82.8067 37.797 83.0278 37.6829C83.3718 37.5055 83.3845 37.5301 83.2303 38.0767C83.0151 38.686 82.485 38.8039 82.2319 38.3116C82.1433 38.1393 82.2543 38.1132 82.5156 38.2587C82.7895 38.4287 82.9005 38.4026 82.7866 38.1811ZM63.0412 49.1163C63.2035 49.2506 63.2549 49.4109 63.1566 49.4616C62.6764 49.616 62.5431 49.8404 62.9392 49.8852C63.2608 49.9061 63.3115 50.0046 63.1432 50.4028C62.9868 50.7638 62.8639 50.8272 62.6026 50.6817C62.4158 50.5601 62.415 50.4982 62.6376 50.5079C62.8602 50.5176 62.7955 50.2708 62.3935 49.7308C61.9036 49.0804 61.8895 48.932 62.2722 48.8903C62.5067 48.8627 62.8663 48.9574 63.0412 49.1163ZM68.7839 46.6204C69.0243 47.0881 69.0861 47.0874 69.3028 46.6019C69.5068 46.0917 69.5195 46.1163 69.4651 46.7361C69.4294 47.1905 69.1757 47.3422 68.7042 47.191C68.3319 47.0717 68.02 46.8277 68.0304 46.6666C68.0856 46.1088 68.5055 46.079 68.7839 46.6204ZM70.6103 45.3356C70.6735 45.4586 70.5269 45.5966 70.2924 45.6242C70.0452 45.6271 69.8226 45.6174 69.7972 45.5682C69.7719 45.519 69.9186 45.381 70.1152 45.2796C70.3117 45.1782 70.5343 45.1879 70.6103 45.3356ZM78.2269 41.4057C78.2902 41.5287 78.2306 41.7152 78.0832 41.7912C77.9604 41.8546 77.848 41.7569 77.8584 41.5958C77.8562 41.4101 77.9284 41.2483 78.0021 41.2103C78.0512 41.1849 78.151 41.258 78.2269 41.4057ZM79.4696 40.9202C79.4964 41.0933 79.3497 41.2312 79.1405 41.308C78.9432 41.3476 78.9074 41.4594 79.0816 41.5564C79.2439 41.6906 79.1717 41.8525 78.8769 42.0046C78.582 42.1567 78.4242 42.3939 78.5128 42.5662C78.5887 42.7138 78.5403 42.8011 78.3914 42.7533C78.2425 42.7056 78.311 42.2342 78.5396 41.7115C78.973 40.7405 79.4011 40.3639 79.4696 40.9202ZM83.0553 38.9456C83.429 39.1887 83.2027 39.8972 82.7574 39.8778C82.3986 39.845 82.2036 39.0425 82.523 38.8777C82.6458 38.8143 82.8811 38.8486 83.0553 38.9456ZM65.6821 48.7503C65.6464 48.8621 65.4118 48.8897 65.1512 48.8062C64.8035 48.6741 64.8155 48.6369 65.2354 48.607C65.519 48.5541 65.7178 48.6384 65.6821 48.7503ZM66.4408 48.1097C66.5041 48.2327 66.5182 48.3811 66.4691 48.4065C66.3954 48.4445 66.2092 48.3849 66.0722 48.2998C65.9226 48.1902 65.9211 48.0664 66.044 48.003C66.1914 47.9269 66.3649 47.962 66.4408 48.1097ZM74.7812 43.713C74.5742 43.9755 74.5995 44.0247 74.971 44.0822C75.3671 44.1269 75.3797 44.1515 75.0469 44.2298C74.4305 44.361 74.0783 43.8576 74.6069 43.616C74.9018 43.4639 74.9763 43.4878 74.7812 43.713ZM67.1816 48.0389C67.1376 48.4975 67.5546 48.2201 67.7333 47.6608C67.8524 47.2879 67.8897 47.2998 67.944 47.7078C68.0013 48.3634 67.5374 48.8518 67.1749 48.5095C67.0126 48.3752 66.8987 48.1537 66.9344 48.0418C67.0535 47.6689 67.2144 47.6794 67.1816 48.0389ZM77.8732 42.8338C78.0102 42.9189 78.0243 43.0673 77.9015 43.1307C77.7541 43.2067 77.5679 43.1471 77.5047 43.024C77.4287 42.8763 77.4272 42.7525 77.4764 42.7272C77.5501 42.6892 77.7236 42.7242 77.8732 42.8338ZM70.2602 47.0732C70.3235 47.1963 70.3377 47.3447 70.2885 47.3701C70.2148 47.4081 70.0287 47.3484 69.8917 47.2634C69.7421 47.1538 69.7405 47.03 69.8634 46.9666C70.0108 46.8905 70.1843 46.9256 70.2602 47.0732Z" fill="#BF57F3"/>
<path fill-rule="evenodd" clip-rule="evenodd" d="M27.3417 26.18C27.0499 26.5797 26.6626 27.2777 26.507 27.7006C26.3268 28.1361 26.1571 28.4106 26.1191 28.3367C26.0685 28.2383 25.9106 28.4754 25.7543 28.8364C25.6105 29.222 25.5792 29.7052 25.7058 29.9514C25.845 30.2221 25.7728 30.3839 25.4891 30.4368C24.8101 30.5069 24.6187 31.0416 25.1778 31.2825C25.5754 31.4511 25.6134 31.525 25.2806 31.6033C25.0587 31.6555 24.7743 31.6465 24.65 31.5861C24.2271 31.3683 26.0852 34.8005 26.584 35.166C26.9577 35.4092 26.9711 35.4957 26.6741 35.4621C26.3525 35.4412 26.3911 35.5769 26.7924 36.055C27.0932 36.3981 27.5302 36.7643 27.7536 36.8359C28.2256 37.0284 28.7676 36.8732 28.3938 36.6301C28.2695 36.5697 28.4155 36.3698 28.7229 36.2423C29.0304 36.1148 29.3119 35.8762 29.3223 35.7151C29.3573 35.5413 29.6782 35.5003 30.0505 35.6196C30.8694 35.8822 32.1977 35.3215 31.7726 34.918C31.6229 34.8083 31.6698 34.5973 31.891 34.4832C32.1121 34.3691 32.1955 34.1081 32.0816 33.8865C31.9804 33.6896 32.0154 33.5159 32.1762 33.5263C32.6341 33.5704 33.6736 31.6015 33.4577 31.1212C33.3185 30.8505 33.4398 30.6633 33.8701 30.4724C34.4732 30.2547 34.6408 29.7945 34.4085 28.9801C34.1763 28.1657 34.1302 27.4109 34.3267 27.3095C34.4496 27.2461 34.434 26.9739 34.2948 26.7032C34.1556 26.4324 33.8942 26.287 33.6977 26.3884C33.4765 26.5025 33.2889 26.319 33.0976 25.8261C32.9569 25.4315 32.8684 25.2592 32.8706 25.4449C32.8758 25.8782 31.8409 26.1631 31.6637 25.8185C31.5878 25.6708 31.7344 25.5329 31.969 25.5053C32.2161 25.5023 32.412 25.339 32.4224 25.1779C32.4447 24.9795 32.2713 24.9445 32.0747 25.0459C31.8536 25.16 31.6794 25.063 31.6645 24.8527C31.5968 24.3582 29.6082 24.4812 28.6261 25.0502C28.2456 25.2776 27.6708 25.7922 27.3417 26.18Z" fill="#BF57F3"/>
<path fill-rule="evenodd" clip-rule="evenodd" d="M52.9006 21.774C52.7554 22.0358 52.7934 22.1096 53.0897 22.0813C53.3242 22.0537 53.1649 22.1671 52.7219 22.3333C51.7994 22.7159 50.4182 25.0479 50.8805 25.4633C51.0555 25.6222 51.0219 25.9198 50.8142 26.1204C50.0324 26.8975 50.7455 29.6749 52.0841 31.0084C52.7601 31.7185 54.6176 33.0334 55.2757 33.2855C55.3502 33.3094 55.8058 33.1677 56.2853 32.9515C56.8876 32.6718 57.0708 32.4839 56.8459 32.2885C56.6836 32.1542 56.6814 31.9685 56.8534 31.8798C57.0254 31.791 56.8505 31.6322 56.4536 31.5255C56.094 31.4308 55.9943 31.3577 56.2913 31.3912C56.5512 31.4129 57.0098 31.5188 57.283 31.627C57.656 31.8082 57.7297 31.7702 57.5905 31.4995C57.4893 31.3026 57.6992 31.2877 58.1712 31.4801C58.7921 31.7203 58.9031 31.6942 58.8614 31.3109C58.8212 31.0513 58.746 30.9655 58.6612 31.1028C58.5763 31.24 58.3916 31.3041 58.2547 31.2191C58.1549 31.146 58.2636 30.9342 58.5584 30.7821C58.8406 30.6053 59.1079 30.2183 59.1414 29.9207C59.1876 29.6477 59.5271 29.0989 59.8689 28.7357C60.2352 28.3598 60.4288 28.0108 60.3298 27.9996C60.032 27.9041 60.3798 27.0085 60.726 27.0167C60.9114 27.0145 60.9232 26.9772 60.7743 26.9294C60.65 26.869 60.5339 26.4618 60.5406 25.9912C60.5213 25.4095 60.4067 25.1261 60.0962 25.006C59.7731 24.8613 59.7843 24.7621 60.1283 24.5846C60.4968 24.3944 60.4961 24.3325 60.1372 24.2997C59.8647 24.2534 59.7769 24.1431 59.8737 23.9686C60.068 23.6814 58.9774 22.4068 58.4696 22.3262C58.3579 22.2904 57.8844 21.9742 57.3856 21.6087C56.924 21.2552 56.2406 20.9539 55.8326 20.9464C54.6711 20.9851 53.1188 21.4123 52.9006 21.774Z" fill="#BF57F3"/>
<path fill-rule="evenodd" clip-rule="evenodd" d="M29.1106 36.8172C29.0756 36.991 29.2729 36.9515 29.5052 36.7382C29.9944 36.2989 29.9795 36.0886 29.4881 36.3422C29.2915 36.4436 29.121 36.6561 29.1106 36.8172Z" fill="#BF57F3"/>
<path fill-rule="evenodd" clip-rule="evenodd" d="M59.1433 31.9773C59.0994 32.436 58.9043 32.6612 58.5834 32.7022C58.1761 32.7566 58.1642 32.7939 58.5737 32.9252C58.946 33.0446 59.0681 32.9193 59.2825 32.2481C59.4255 31.8006 59.4702 31.4038 59.3712 31.3926C59.2595 31.3568 59.1761 31.6179 59.1433 31.9773Z" fill="#BF57F3"/>
<path fill-rule="evenodd" clip-rule="evenodd" d="M56.166 33.5101C56.3819 33.9904 57.2954 33.8927 57.6104 33.3565C57.8769 32.9076 57.1838 32.8292 56.7936 33.2797C56.647 33.4176 56.4005 33.4825 56.2382 33.3483C56.1005 33.2013 56.0521 33.2886 56.166 33.5101Z" fill="#BF57F3"/>
<path d="M25.8311 52.8688C26.0349 52.7637 26.1434 52.5683 26.0735 52.4323C26.0036 52.2964 25.7817 52.2714 25.5779 52.3765C25.3742 52.4817 25.2657 52.6771 25.3356 52.813C25.4055 52.949 25.6273 52.974 25.8311 52.8688Z" fill="#BF57F3"/>
<path fill-rule="evenodd" clip-rule="evenodd" d="M29.7897 53.1903C29.6593 53.6623 29.8842 53.8578 30.7136 53.9592C31.3322 54.0137 31.5906 53.9116 31.8333 53.5372C32.0277 53.2501 32.0135 53.1017 31.8289 53.1658C31.6443 53.2299 31.3859 53.332 31.2258 53.3835C31.103 53.4469 30.7434 53.3522 30.4448 53.1948C30.1217 53.0501 29.8373 53.0411 29.7897 53.1903Z" fill="#BF57F3"/>
<path fill-rule="evenodd" clip-rule="evenodd" d="M49.5438 53.0265C49.5894 53.3974 49.7892 53.5642 50.1431 53.527C50.464 53.486 50.5369 53.386 50.3121 53.1906C50.0873 52.9952 50.1603 52.8953 50.5794 52.8036C50.9614 52.6999 51.0589 52.5873 50.8713 52.4038C50.4961 52.0369 49.488 52.4948 49.5438 53.0265Z" fill="#BF57F3"/>
<path fill-rule="evenodd" clip-rule="evenodd" d="M51.5257 52.6596C51.6627 52.7446 51.7021 52.9423 51.6053 53.1168C51.3991 53.4412 51.8234 53.7828 52.2165 53.5799C52.3394 53.5166 52.3372 53.3308 52.1622 53.172C51.9999 53.0377 51.9217 52.7044 51.9932 52.4806C52.0885 52.1823 52.0015 52.1338 51.682 52.2986C51.4609 52.4127 51.3641 52.5872 51.5257 52.6596Z" fill="#BF57F3"/>
<path fill-rule="evenodd" clip-rule="evenodd" d="M74.2399 45.8596C74.4501 45.8446 74.6588 45.7057 74.6946 45.5938C74.755 45.4692 74.5694 45.4715 74.3115 45.6357C74.041 45.7753 74.0052 45.8873 74.2399 45.8596Z" fill="#BF57F3"/>
</g>
<defs>
<clipPath id="clip0_1_386">
<rect width="94" height="75" fill="white"/>
</clipPath>
</defs>
</svg>
