<svg width="51" height="51" viewBox="0 0 51 51" fill="none" xmlns="http://www.w3.org/2000/svg">
<path d="M26.2033 5.40375C26.0826 5.44449 25.8862 5.33408 25.7345 5.35328C25.1051 5.437 24.8486 5.40599 24.2564 5.527C23.3842 5.65273 20.8667 7.05288 20.4248 6.21633C20.4248 6.21631 20.4248 6.2163 20.4248 6.21628C20.4206 6.20785 20.4167 6.19919 20.413 6.19031C20.3419 6.02193 20.4836 5.73101 20.4277 5.52893C20.372 5.32675 19.7611 4.1415 20.0655 3.91206C20.5071 3.5826 21.8615 3.3602 22.1336 3.24706C22.3183 3.16312 22.5103 2.96082 22.7526 2.85285C23.5397 2.509 23.9884 2.47412 24.6973 1.98506C25.0465 2.08986 25.3867 2.20766 25.7178 2.33813C26.1117 2.20037 26.7441 2.38555 26.9832 2.36843C27.1837 2.352 27.2978 2.21343 27.5109 2.20873C27.7475 2.20313 28.1056 2.36192 28.528 2.37872C29.2209 2.41329 29.3977 2.09131 29.8298 2.11914C29.8314 2.11926 29.8331 2.11939 29.8347 2.11953C30.2907 2.15502 30.9092 2.50705 31.4749 2.55331C31.5541 2.53668 31.632 2.52007 31.7113 2.50436C31.6906 2.40415 31.6695 2.30405 31.6473 2.20383C31.9337 2.25107 31.9939 2.46404 32.2368 2.55316C32.5229 2.65957 32.7306 2.55475 32.923 2.63123C33.0816 2.69468 33.2396 2.90924 33.4423 2.9874C33.7371 3.10279 33.756 2.8934 33.9279 2.92986C33.9998 2.93633 35.1889 3.40326 35.2495 3.44439C35.734 3.69896 35.6383 3.96224 35.9952 4.20062C36.4688 4.5201 36.9697 4.80486 37.4664 5.08975C37.9635 5.36916 38.4815 5.63378 38.9608 5.93581C39.3716 6.19412 39.774 6.52815 40.1299 6.88897C39.0907 6.92418 40.0188 8.44348 40.2636 7.20264C40.5768 7.68855 41.07 7.7531 41.4098 8.18412C41.6257 8.46308 41.6742 8.74175 41.9906 9.11898C42.386 9.58978 42.9464 10.0028 43.054 10.4363C43.0916 10.6045 43.0557 10.7773 42.9014 10.9596C43.535 11.6745 43.7179 12.5165 44.4848 12.451C44.6493 12.6395 44.6164 13.3899 44.7035 13.6548C44.7974 13.8995 45.5852 15.7438 45.7073 16.0571C45.8228 16.3133 46.0084 16.7376 46.1606 17.0106C46.187 17.057 46.2126 17.0981 46.237 17.1324C46.4368 17.4148 47.1957 17.3709 46.6456 18.2521C46.9685 18.8913 47.0359 19.1404 47.1635 19.805C47.1861 19.9256 47.0724 19.9775 47.0949 20.0448C47.1411 20.1828 47.3055 20.3896 47.393 20.6371C47.5368 21.0447 47.3479 21.3528 47.7202 21.1995C47.8615 21.458 47.9985 21.7217 48.1304 21.9904C48.0788 22.1076 48.0262 22.224 47.9726 22.3395C48.0877 22.4723 48.2015 22.608 48.3138 22.7459C47.7172 22.6763 48.239 23.6844 48.5063 23.284C48.4811 23.8689 48.4282 24.4486 48.3484 25.0183C47.6978 24.985 48.3278 26.2389 48.6747 26.1365C48.6748 26.1799 48.6748 26.2233 48.6747 26.2668C48.6746 26.2877 48.6745 26.3086 48.6744 26.3296C48.5006 26.8792 48.6344 27.3814 48.4921 28.0388C48.3474 28.6939 48.2837 28.6277 47.972 28.8105C47.9808 28.965 47.9888 29.1198 47.9961 29.2745C48.7631 30.1445 47.3579 29.886 47.8485 31.3225C47.5301 31.5393 47.4369 31.9816 47.4143 32.4638C47.3975 32.8355 47.4264 33.2309 47.4375 33.559C47.4404 33.6465 47.5398 33.6653 47.5493 33.7842C47.5755 34.0741 47.2889 34.7555 47.6077 34.8094C47.4553 35.0378 47.2967 35.2642 47.1312 35.4837C47.1263 35.703 47.1144 35.9256 47.0943 36.1506C47.1901 36.1849 47.2858 36.2191 47.3816 36.2533C46.9812 36.5068 46.8028 37.0232 46.6011 37.3419C46.5664 37.3968 46.5318 37.4452 46.4962 37.4834C46.4518 37.5305 46.3221 37.4762 46.1965 37.6271C46.0494 37.8031 45.88 38.1899 45.7063 38.4001C45.7881 38.5685 45.8686 38.738 45.9478 38.9088C45.7686 39.3724 45.3273 39.3015 45.1489 39.5232C45.12 39.5652 44.6272 40.3599 44.6019 40.4049C44.4183 40.7808 44.7885 40.899 43.985 41.8214C43.84 41.9841 43.6357 42.0446 43.5076 42.1921C43.2889 42.4547 42.7903 43.4168 42.9077 43.6527C42.3885 43.7527 41.6486 44.6352 41.3226 44.7844C41.2508 44.8185 41.1493 44.7502 40.9919 44.7832C40.9404 44.793 40.8828 44.814 40.818 44.8539C40.612 44.9819 40.2249 45.5051 39.9557 45.6759C39.6719 45.8566 39.4733 45.7906 39.3455 45.8692C39.2245 45.9432 39.1971 46.1313 39.035 46.2422C38.5261 46.5874 37.9315 46.6891 37.5034 46.9139C36.8854 47.2383 36.4676 47.8601 35.9304 48.238C35.7748 48.2641 35.6043 48.2283 35.4497 48.2746C34.6355 48.518 33.7494 48.6708 32.8656 48.7234C31.7421 48.7884 30.6314 48.7801 29.5932 48.7383C28.7496 48.7189 26.6936 48.0847 27.2073 49.0231C27.0484 49.1008 26.3788 49.0072 25.7173 48.8662C25.1428 48.7428 24.5767 48.5938 24.3863 48.5678C23.9844 48.514 23.6396 48.633 23.3175 48.587C22.3442 48.4413 21.6841 48.2052 20.4614 48.0189C20.1459 47.9698 19.758 48.0524 19.5757 47.9894C19.3561 47.9135 19.1842 47.654 18.9114 47.5382C18.2552 47.2742 17.03 46.7657 16.4612 46.3961C16.3566 46.3298 16.4016 46.1651 16.2767 46.0324C16.1844 45.9338 16.088 45.8404 15.9889 45.7557C15.5866 45.4074 15.1554 45.236 15.0101 45.6525C14.4688 44.9449 13.6853 44.737 13.0455 44.2963C12.1849 43.7036 10.9502 42.7095 9.87259 41.7789C9.25766 41.2511 8.69176 40.7372 8.25445 40.3772C7.50978 39.7409 7.29651 39.9065 6.62383 38.5799C6.48148 38.2838 6.36292 37.9795 6.21679 37.6202C6.10351 37.3409 6.03325 37.0529 5.96408 36.7825C5.82492 36.2373 5.68833 35.7651 5.18632 35.5129C4.92104 34.592 4.5557 33.9298 4.73642 33.1243C4.60657 33.0862 4.47669 33.0472 4.34683 33.0075C4.30503 32.901 4.26352 32.7938 4.22255 32.6865C4.3079 32.6181 4.39342 32.55 4.47911 32.4823C4.29711 31.9052 3.85396 31.2841 3.5659 30.7098C3.46714 30.5149 3.38604 30.3266 3.33954 30.1519C3.12906 29.379 2.78004 27.621 2.85722 26.1388C2.88537 25.6062 2.90386 25.0981 2.9342 24.7638C2.98586 24.1871 2.76499 24.1546 3.21317 23.8104C3.17941 23.6799 3.1466 23.5481 3.11498 23.4149C3.01539 23.3311 2.91626 23.2474 2.81768 23.1608C2.81963 22.3793 3.04776 21.4398 3.18837 20.6809C3.34228 19.777 3.59218 18.5313 4.10928 17.4766C4.3414 16.9893 4.58902 16.5336 4.85267 16.1722C5.04344 15.9108 5.41587 15.6547 5.56565 15.3792C5.78526 14.9776 5.54154 14.7125 5.83288 14.1974C6.3487 13.3007 7.64438 11.897 8.57982 11.0506C8.68952 10.9504 8.77631 10.8554 8.85552 10.7671C8.93009 10.6648 8.97563 10.5709 9.06799 10.4954C9.69567 9.9805 10.248 9.61015 10.8067 9.00922C11.7086 8.81463 11.8758 9.21759 12.3183 9.44661C12.4853 9.53442 12.7968 9.66125 13.0706 9.81553C13.3238 9.96107 13.6391 10.1888 13.3199 10.3614C13.0771 10.4458 13.4684 10.5849 13.5416 10.6673C13.6379 10.7638 13.7026 10.8643 13.6822 10.9847C13.8333 10.957 13.7182 11.0135 13.6762 11.0514C13.6179 11.0936 13.5513 11.137 13.4824 11.1774C13.3459 11.2578 13.2051 11.3233 13.0603 11.3754C12.7687 11.4814 12.4584 11.5345 12.05 11.6231C11.4757 12.0141 10.9026 12.4217 10.3317 12.8361C10.0154 13.0675 9.55023 13.6725 9.1718 14.2501C9.00463 14.2858 8.83485 14.3279 8.66539 14.3717C8.66517 14.3716 8.66495 14.3715 8.66473 14.3713C8.25477 14.7577 8.39674 15.1211 8.30559 15.4099C8.00448 16.369 7.45324 17.5676 6.80346 18.8627C5.66865 20.9237 5.61571 23.8385 5.66684 26.0585C5.66685 26.0614 5.66686 26.0644 5.66688 26.0674C5.61455 26.6903 6.15904 28.6735 6.12041 29.17C6.10181 29.2964 5.93356 29.3759 5.95943 29.5013C6.01799 29.6558 6.07799 29.8105 6.1393 29.9657C6.49789 30.8679 6.9031 31.7608 7.3386 32.6288C7.59003 33.62 7.98123 34.5839 8.4631 35.4752C9.08288 36.6293 9.86937 37.6009 10.763 38.4918C11.1157 38.8466 11.4913 39.1891 11.8821 39.524C13.5873 40.9689 15.4914 42.2956 17.4064 43.4389C19.9701 44.9934 22.8636 45.5652 25.9954 45.8416C26.3795 45.8782 26.7711 45.9067 27.1652 45.9294C28.3628 46.0013 29.9049 45.8652 31.0839 45.9023C31.5748 45.9171 31.8023 46.2016 32.4248 45.934C32.4377 46.0124 32.4507 46.0908 32.464 46.1692C32.5246 46.1538 32.5819 46.1375 32.6366 46.1206C33.0654 45.9811 33.3587 45.7961 33.8495 45.6763C34.3224 45.5832 35.5048 45.1587 35.8956 44.9816C36.101 44.8992 36.0929 45.0683 36.2797 44.9721C36.604 44.808 37.1604 44.2358 37.5723 43.9408C37.9486 43.6829 38.6846 43.3233 38.9579 43.0634C39.0656 42.9625 39.173 42.858 39.2806 42.7504C40.1062 41.9193 40.8146 40.8887 41.6191 39.9593C41.8702 39.6727 42.3173 39.3842 42.3835 39.2809C42.5124 39.0806 42.3992 38.9159 42.4691 38.772C42.8264 38.047 43.6674 37.081 44.0562 36.3715C44.1098 36.2752 44.1634 36.1772 44.2161 36.0795C44.8064 35.0115 45.0611 33.6373 45.2663 32.1484C45.4142 31.0684 45.5086 29.9547 45.5878 28.8741C45.6403 28.1513 45.678 27.2148 45.6815 26.2798C45.6919 25.1026 45.5578 23.9217 45.4621 23.0904C45.426 22.7741 45.6431 22.8121 45.5819 22.5484C45.5119 22.2556 45.3358 22.1332 45.2887 22.001C44.9842 21.0823 44.0871 19.0915 43.8303 18.1572C43.8173 18.1067 43.8156 18.0556 43.8187 18.0059C43.8303 17.8888 43.8703 17.7758 43.84 17.7086C43.8184 17.6602 43.6707 17.597 43.5903 17.451C42.8696 16.1648 42.3686 15.1696 41.625 13.8719C41.29 13.2934 40.9174 12.7044 40.5216 12.1191C39.3315 10.2938 37.586 8.99579 35.6871 7.61073C35.6514 7.58367 35.6159 7.55677 35.5804 7.53C35.0809 7.15364 34.875 6.66049 34.7964 6.61532C34.6238 6.51807 34.408 6.63433 34.0404 6.48658C32.8315 5.98878 31.297 5.09875 30.0935 4.91091C29.8601 4.87183 29.5853 4.86505 29.3114 4.87768C28.8892 4.89454 28.4638 4.95504 28.1313 4.96638C27.6936 4.96443 26.6554 4.89196 26.4728 5.04123C26.3628 5.12392 26.3342 5.35843 26.2033 5.40375ZM42.1752 9.63807C41.8265 9.77746 42.6871 10.4422 42.6187 10.01C42.6032 9.90882 42.2671 9.59856 42.1752 9.63807ZM32.7939 48.1289C32.8068 48.2029 32.8198 48.277 32.8328 48.351C32.8382 48.3809 32.8437 48.4108 32.8491 48.4407C32.985 48.3847 33.1149 48.3272 33.2478 48.2671C33.1627 48.2137 33.0803 48.1593 32.9983 48.1041C32.937 48.1121 32.8752 48.1196 32.8131 48.1267C32.8067 48.1274 32.8003 48.1282 32.7939 48.1289Z" fill="#EDAE00"/>
</svg>
