<svg width="70" height="70" viewBox="0 0 70 70" fill="none" xmlns="http://www.w3.org/2000/svg">
<g clip-path="url(#clip0_1_431)">
<path d="M34.8274 11.3565C34.6854 11.4044 34.4544 11.2745 34.2759 11.2971C33.5354 11.3956 33.2336 11.3591 32.537 11.5015C31.5108 11.6494 28.549 13.2966 28.0292 12.3125C28.0292 12.3124 28.0292 12.3124 28.0292 12.3124C28.0243 12.3025 28.0197 12.2923 28.0153 12.2818C27.9317 12.0838 28.0984 11.7415 28.0326 11.5038C27.9671 11.2659 27.2484 9.87149 27.6065 9.60156C28.1261 9.21396 29.7195 8.95232 30.0396 8.81921C30.2569 8.72046 30.4827 8.48245 30.7678 8.35543C31.6938 7.95091 32.2217 7.90986 33.0556 7.33451C33.4665 7.45779 33.8668 7.59639 34.2563 7.74988C34.7197 7.58781 35.4637 7.80567 35.7449 7.78552C35.9808 7.7662 36.1151 7.60317 36.3658 7.59764C36.6441 7.59105 37.0654 7.77786 37.5623 7.79763C38.3776 7.8383 38.5856 7.4595 39.0939 7.49224C39.0958 7.49239 39.0978 7.49254 39.0997 7.4927C39.6362 7.53445 40.3637 7.94861 41.0293 8.00304C41.1225 7.98346 41.2141 7.96393 41.3074 7.94545C41.2831 7.82755 41.2582 7.70978 41.2321 7.59188C41.5691 7.64746 41.6399 7.89801 41.9257 8.00286C42.2622 8.12805 42.5066 8.00473 42.733 8.09471C42.9196 8.16935 43.1055 8.42178 43.3439 8.51373C43.6907 8.64947 43.7129 8.40314 43.9152 8.44603C43.9998 8.45365 45.3987 9.00297 45.47 9.05137C46.04 9.35086 45.9275 9.6606 46.3473 9.94104C46.9045 10.3169 47.4938 10.6519 48.0782 10.9871C48.663 11.3158 49.2724 11.6271 49.8363 11.9824C50.3196 12.2863 50.7929 12.6793 51.2117 13.1038C49.9891 13.1452 51.081 14.9326 51.369 13.4728C51.7375 14.0445 52.3176 14.1204 52.7175 14.6275C52.9714 14.9557 53.0285 15.2836 53.4008 15.7273C53.866 16.2812 54.5252 16.7672 54.6518 17.2772C54.696 17.475 54.6538 17.6783 54.4723 17.8928C55.2177 18.7338 55.4329 19.7244 56.335 19.6474C56.5286 19.8691 56.4899 20.752 56.5924 21.0636C56.7029 21.3515 57.6297 23.5213 57.7733 23.8898C57.9092 24.1913 58.1276 24.6904 58.3067 25.0116C58.3376 25.0661 58.3678 25.1146 58.3965 25.155C58.6316 25.4872 59.5244 25.4355 58.8772 26.4722C59.2571 27.2242 59.3364 27.5172 59.4866 28.2991C59.5131 28.441 59.3793 28.502 59.4058 28.5812C59.4601 28.7436 59.6535 28.987 59.7565 29.2781C59.9257 29.7576 59.7034 30.1201 60.1414 29.9397C60.3076 30.2439 60.4688 30.554 60.624 30.8701C60.5633 31.008 60.5014 31.145 60.4384 31.2809C60.5738 31.4372 60.7077 31.5968 60.8398 31.759C60.138 31.6771 60.7518 32.8631 61.0663 32.3921C61.0366 33.0802 60.9744 33.7622 60.8805 34.4324C60.1151 34.3933 60.8562 35.8685 61.2644 35.748C61.2645 35.799 61.2645 35.8501 61.2643 35.9013C61.2642 35.9258 61.2641 35.9504 61.264 35.9751C61.0596 36.6217 61.217 37.2126 61.0495 37.9859C60.8794 38.7567 60.8044 38.6788 60.4377 38.8938C60.448 39.0756 60.4575 39.2577 60.4661 39.4397C61.3683 40.4633 59.7152 40.1592 60.2924 41.8492C59.9178 42.1042 59.8082 42.6245 59.7816 43.1918C59.7617 43.6292 59.7958 44.0943 59.8089 44.4804C59.8123 44.5832 59.9292 44.6053 59.9404 44.7453C59.9712 45.0864 59.634 45.888 60.0091 45.9514C59.8298 46.2201 59.6432 46.4864 59.4485 46.7447C59.4427 47.0027 59.4287 47.2646 59.4051 47.5293C59.5177 47.5696 59.6304 47.6099 59.7431 47.6501C59.272 47.9483 59.0621 48.5558 58.8249 48.9308C58.784 48.9954 58.7433 49.0523 58.7014 49.0973C58.6492 49.1526 58.4967 49.0888 58.3488 49.2663C58.1757 49.4734 57.9765 49.9285 57.7721 50.1758C57.8683 50.3738 57.9631 50.5732 58.0562 50.7742C57.8454 51.3196 57.3262 51.2362 57.1163 51.497C57.0824 51.5464 56.5027 52.4814 56.4728 52.5343C56.2569 52.9766 56.6923 53.1156 55.7471 54.2008C55.5765 54.3922 55.3362 54.4633 55.1854 54.6369C54.9281 54.9459 54.3416 56.0777 54.4797 56.3552C53.8688 56.4729 52.9984 57.5111 52.6149 57.6866C52.5304 57.7268 52.411 57.6465 52.2258 57.6853C52.1652 57.6968 52.0974 57.7215 52.0212 57.7684C51.7789 57.9191 51.3234 58.5345 51.0068 58.7355C50.6728 58.9481 50.4392 58.8705 50.2888 58.9629C50.1465 59.05 50.1143 59.2713 49.9236 59.4018C49.3249 59.8079 48.6254 59.9274 48.1216 60.192C47.3946 60.5736 46.9031 61.3051 46.2711 61.7497C46.088 61.7805 45.8874 61.7383 45.7056 61.7927C44.7477 62.0792 43.7052 62.2589 42.6654 62.3208C41.3437 62.3973 40.0369 62.3875 38.8156 62.3383C37.8231 62.3155 35.4043 61.5693 36.0087 62.6734C35.8217 62.7648 35.0339 62.6546 34.2557 62.4888C33.5798 62.3436 32.9139 62.1683 32.6899 62.1377C32.2169 62.0744 31.8113 62.2144 31.4324 62.1603C30.2873 61.9889 29.5108 61.7111 28.0723 61.492C27.701 61.4342 27.2447 61.5314 27.0302 61.4573C26.7719 61.3679 26.5696 61.0627 26.2487 60.9264C25.4768 60.6158 24.0354 60.0176 23.3662 59.5828C23.2431 59.5048 23.296 59.311 23.1491 59.1549C23.0406 59.0389 22.9271 58.929 22.8105 58.8293C22.3372 58.4196 21.8299 58.218 21.659 58.708C21.0222 57.8754 20.1004 57.6309 19.3477 57.1124C18.3352 56.4152 16.8827 55.2456 15.6148 54.1508C14.8914 53.5298 14.2256 52.9252 13.7112 52.5017C12.8351 51.7531 12.5842 51.9479 11.7928 50.3872C11.6253 50.0388 11.4858 49.6809 11.3139 49.2582C11.1806 48.9296 11.098 48.5908 11.0166 48.2727C10.8529 47.6313 10.6922 47.0757 10.1016 46.7791C9.78949 45.6957 9.35968 44.9165 9.57229 43.9689C9.41952 43.9241 9.26673 43.8782 9.11395 43.8315C9.06478 43.7062 9.01594 43.5801 8.96774 43.4539C9.06815 43.3734 9.16877 43.2933 9.26958 43.2136C9.05545 42.5347 8.5341 41.8039 8.19521 41.1283C8.07902 40.899 7.98361 40.6774 7.9289 40.4719C7.68127 39.5627 7.27066 37.4945 7.36146 35.7507C7.39459 35.1241 7.41634 34.5263 7.45203 34.1331C7.51281 33.4546 7.25296 33.4163 7.78022 33.0114C7.74052 32.8579 7.70191 32.7028 7.66471 32.5461C7.54754 32.4475 7.43092 32.349 7.31495 32.2471C7.31724 31.3277 7.58563 30.2224 7.75106 29.3296C7.93212 28.2661 8.22613 26.8006 8.83448 25.5599C9.10755 24.9865 9.39887 24.4504 9.70905 24.0252C9.93348 23.7177 10.3716 23.4164 10.5479 23.0924C10.8062 22.6198 10.5195 22.308 10.8622 21.702C11.4691 20.6471 12.9934 18.9956 14.0939 17.9999C14.223 17.882 14.3251 17.7701 14.4183 17.6663C14.506 17.5459 14.5596 17.4355 14.6682 17.3467C15.4067 16.7409 16.0565 16.3052 16.7138 15.5982C17.7749 15.3693 17.9715 15.8434 18.4921 16.1128C18.6886 16.2161 19.0551 16.3653 19.3772 16.5468C19.6751 16.718 20.0461 16.9859 19.6705 17.1891C19.3848 17.2883 19.8452 17.452 19.9313 17.5489C20.0446 17.6624 20.1208 17.7807 20.0968 17.9223C20.2745 17.8897 20.1391 17.9563 20.0897 18.0008C20.0211 18.0505 19.9428 18.1014 19.8617 18.1491C19.7011 18.2436 19.5355 18.3207 19.3651 18.382C19.0221 18.5066 18.657 18.5691 18.1765 18.6734C17.5009 19.1334 16.8266 19.6129 16.155 20.1004C15.7829 20.3727 15.2356 21.0844 14.7904 21.764C14.5937 21.806 14.394 21.8555 14.1946 21.9071C14.1943 21.9069 14.1941 21.9067 14.1938 21.9066C13.7115 22.3612 13.8785 22.7886 13.7713 23.1284C13.4171 24.2568 12.7685 25.6669 12.0041 27.1906C10.669 29.6153 10.6067 33.0445 10.6669 35.6562C10.6669 35.6597 10.6669 35.6631 10.6669 35.6666C10.6054 36.3995 11.246 38.7327 11.2005 39.3167C11.1786 39.4655 10.9807 39.559 11.0111 39.7065C11.08 39.8883 11.1506 40.0703 11.2227 40.2529C11.6446 41.3143 12.1213 42.3648 12.6337 43.3859C12.9295 44.552 13.3897 45.6861 13.9566 46.7346C14.6858 48.0925 15.6111 49.2355 16.6624 50.2836C17.0773 50.701 17.5192 51.104 17.979 51.498C19.9851 53.1978 22.2252 54.7586 24.4781 56.1037C27.4943 57.9325 30.8984 58.6052 34.5829 58.9304C35.0347 58.9735 35.4955 59.007 35.9591 59.0337C37.3681 59.1184 39.1823 58.9581 40.5694 59.0019C41.1469 59.0192 41.4145 59.3539 42.1468 59.0391C42.1621 59.1313 42.1774 59.2236 42.193 59.3158C42.2643 59.2977 42.3317 59.2786 42.396 59.2587C42.9005 59.0946 43.2455 58.8769 43.823 58.736C44.3794 58.6264 45.7703 58.127 46.2301 57.9187C46.4718 57.8217 46.4622 58.0206 46.682 57.9075C47.0636 57.7144 47.7182 57.0412 48.2028 56.6941C48.6455 56.3908 49.5113 55.9678 49.8328 55.662C49.9595 55.5433 50.0859 55.4203 50.2125 55.2938C51.1838 54.316 52.0172 53.1034 52.9636 52.0101C53.259 51.6729 53.7851 51.3335 53.863 51.2119C54.0146 50.9763 53.8814 50.7826 53.9637 50.6132C54.3841 49.7603 55.3734 48.6239 55.8308 47.7891C55.8939 47.6758 55.957 47.5605 56.0189 47.4457C56.7134 46.1892 57.0131 44.5724 57.2545 42.8207C57.4286 41.5502 57.5396 40.24 57.6328 38.9687C57.6945 38.1183 57.7389 37.0165 57.743 35.9165C57.7552 34.5317 57.5974 33.1423 57.4849 32.1643C57.4424 31.7922 57.6978 31.8368 57.6258 31.5266C57.5435 31.1822 57.3363 31.0382 57.2809 30.8827C56.9227 29.8019 55.8672 27.4598 55.5651 26.3606C55.5498 26.3012 55.5477 26.241 55.5514 26.1825C55.5651 26.0448 55.6122 25.9119 55.5765 25.8328C55.5511 25.7758 55.3773 25.7015 55.2827 25.5298C54.4349 24.0165 53.8454 22.8457 52.9706 21.3191C52.5765 20.6384 52.1381 19.9455 51.6725 19.257C50.2724 17.1095 48.2188 15.5824 45.9848 13.9529C45.9429 13.9211 45.901 13.8895 45.8593 13.858C45.2716 13.4152 45.0295 12.835 44.937 12.7819C44.7339 12.6675 44.48 12.8042 44.0476 12.6304C42.6253 12.0448 40.82 10.9977 39.4041 10.7767C39.1295 10.7307 38.8062 10.7227 38.484 10.7376C37.9874 10.7574 37.4869 10.8286 37.0957 10.8419C36.5807 10.8396 35.3593 10.7544 35.1445 10.93C35.0151 11.0273 34.9814 11.3032 34.8274 11.3565ZM53.6179 16.338C53.2076 16.502 54.2201 17.2841 54.1396 16.7756C54.1214 16.6566 53.7261 16.2916 53.6179 16.338ZM42.5811 61.6214C42.5963 61.7085 42.6116 61.7956 42.6269 61.8827C42.6332 61.9179 42.6396 61.953 42.6461 61.9882C42.8059 61.9223 42.9587 61.8546 43.115 61.784C43.015 61.7211 42.918 61.6571 42.8216 61.5922C42.7494 61.6016 42.6767 61.6104 42.6036 61.6188C42.5961 61.6196 42.5886 61.6205 42.5811 61.6214Z" fill="#EDAE00"/>
<path d="M47.0582 42.6787C47.0403 42.6298 47.2126 42.6127 47.2339 42.5647C47.324 42.3651 47.4523 42.3123 47.5606 42.1302C47.7246 41.862 47.6955 40.9214 48.8008 41.1277C48.8008 41.1277 48.8008 41.1277 48.8008 41.1277C48.8117 41.1298 48.8227 41.132 48.8337 41.1343C49.0439 41.1779 49.2585 41.3024 49.4944 41.3605C49.7303 41.4189 51.2712 41.7067 51.3339 41.8445C51.4142 42.0414 50.9337 42.378 50.9306 42.4731C50.9289 42.5387 51.0508 42.648 51.0572 42.7349C51.0767 43.0178 50.9431 43.129 51.2577 43.4652C51.0352 43.5128 50.8129 43.5573 50.5904 43.5996C50.6486 43.7488 50.3366 43.8638 50.329 43.942C50.3229 44.0063 50.4667 44.0887 50.4544 44.1555C50.4412 44.2313 50.241 44.29 50.2235 44.4283C50.1934 44.6548 50.5767 44.8313 50.5796 44.9831C50.5819 45.1416 50.2882 45.2728 50.3544 45.5021C50.3883 45.5415 50.4221 45.5811 50.4558 45.6209C50.5591 45.6451 50.6625 45.6688 50.766 45.6921C50.7676 45.7141 50.7601 45.7301 50.7469 45.742L50.686 45.8752C50.6295 45.92 50.488 45.8947 50.4513 45.9582C50.3971 46.0515 50.5514 46.1936 50.5153 46.2578C50.4851 46.3111 50.3054 46.2986 50.2771 46.3692C50.2347 46.4717 50.4508 46.568 50.4592 46.6414C50.4636 46.6709 50.3482 47.1137 50.3357 47.1343C50.2445 47.297 49.9635 47.1376 49.8617 47.2425C49.5794 47.5345 49.5592 48.0148 49.4156 48.3717C49.3525 48.53 49.232 48.6565 49.0903 48.7536C48.5956 48.048 47.7516 48.0821 48.8905 48.7225C48.6353 48.7486 48.8253 49.0672 48.6691 49.1631C48.5678 49.2247 48.3824 49.1673 48.2832 49.2901C48.1111 49.5054 48.2757 50.0805 47.5447 49.5166C47.4433 49.8666 47.0099 49.8319 47.5019 50.4884C47.4753 50.5861 46.9786 50.397 46.8656 50.4142C46.7593 50.4357 46.1069 50.7383 46.0125 50.7986C45.92 50.863 45.7613 50.9791 45.7326 51.0943C45.6993 51.2352 46.1477 51.9558 45.3717 51.3117C45.2222 51.5263 45.1302 51.5588 44.8735 51.5999C44.8268 51.6073 44.7397 51.4898 44.7196 51.5036C44.6784 51.532 44.6684 51.6697 44.5988 51.7314C44.5474 51.7771 44.4702 51.7585 44.4264 51.7597L44.1074 51.9028C44.0629 51.8869 44.051 51.9152 44.1287 52.1607C44.0677 52.2597 44.0056 52.3594 43.938 52.4602C43.883 52.3815 43.8276 52.3029 43.7718 52.2244C43.7504 52.3329 43.7296 52.4411 43.7054 52.55C43.5854 51.879 43.3463 52.3574 43.5563 52.7051C43.3373 52.6171 43.1175 52.526 42.9014 52.4297C42.7623 51.6712 42.4818 52.4259 42.5887 52.8315C42.5664 52.8351 42.5439 52.8386 42.5213 52.8421C42.2925 52.6752 42.1416 52.87 41.8848 52.7649C41.6302 52.6584 41.6461 52.5792 41.5377 52.2339C41.4863 52.2599 41.4361 52.2853 41.384 52.3105C41.1756 53.3045 41.1078 51.6242 40.6728 52.3886C40.5011 51.7826 40.1516 52.1062 39.8927 52.2819C39.863 52.3024 39.8575 52.4211 39.8177 52.4562C39.7189 52.5412 39.4846 52.3744 39.4681 52.7569C39.389 52.6407 39.3129 52.5238 39.239 52.4063C39.1649 52.47 39.0893 52.5331 39.0142 52.5956C39.0027 52.7147 38.9913 52.8338 38.9798 52.9529C38.8782 52.5335 38.6468 52.6638 38.5508 52.5524C38.5323 52.53 38.5495 52.366 38.4909 52.3125C38.4597 52.2835 38.4119 52.2736 38.3608 52.265C38.3038 52.2554 38.2428 52.2479 38.2005 52.2131C38.1398 52.3887 38.0785 52.5643 38.0168 52.7397C37.8453 52.8134 37.8677 52.3282 37.7838 52.2767C37.7684 52.2679 37.4672 52.2528 37.4495 52.26C37.3053 52.3178 37.2716 52.7304 36.906 52.5746C36.8407 52.5465 36.8124 52.3965 36.7526 52.3794C36.6476 52.3496 36.2606 52.6023 36.1751 52.8888C36.116 52.4969 35.7351 52.5728 35.6539 52.4444C35.6298 52.4052 35.6734 52.1716 35.5894 52.1013C35.5215 52.0442 35.2811 52.1849 35.1902 52.131C35.0942 52.073 35.1031 51.8699 35.0602 51.8452C35.0198 51.8221 34.942 51.9692 34.8825 51.9539C34.6971 51.9032 34.5926 51.6095 34.4485 51.5674C34.2405 51.506 33.9312 51.9169 33.6948 52.0714C33.6585 52.0292 33.6425 51.9184 33.5963 51.9045C33.0256 51.729 32.4061 51.4439 31.8741 51.1502C31.6223 51.0158 31.2095 50.1679 30.9979 51.2427C30.8362 51.3864 30.33 50.7158 30.2115 50.6557C30.0897 50.5973 29.9136 50.7323 29.8137 50.6917C29.5121 50.568 29.3643 50.3476 28.9332 50.3259C28.8215 50.3206 28.6195 50.4764 28.5652 50.4461C28.5002 50.4092 28.5295 50.175 28.4512 50.1186C28.2635 49.9868 27.8531 49.8465 27.6802 49.702C27.6489 49.6754 27.7339 49.4994 27.7153 49.4182C27.6431 49.1015 27.4253 48.9919 27.1371 49.5452C27.0766 49.1105 26.7106 49.2126 26.4691 49.0989C26.4604 49.0951 26.4518 49.0908 26.4436 49.0862C26.0058 48.8403 25.3049 48.1968 24.7727 48.1439C24.4378 48.1114 24.2813 48.3443 24.0611 47.8897C24.0121 47.7885 23.9751 47.6724 23.9161 47.5497C23.7761 47.26 23.8894 46.6974 23.3349 47.0518C23.1845 46.7284 22.9094 46.6489 23.0741 46.0904C22.9701 46.1691 22.8656 46.2473 22.7606 46.3251C22.7283 46.3013 22.6961 46.2774 22.6639 46.2533C22.7346 46.1537 22.8056 46.0543 22.8768 45.955C22.6901 45.7478 22.0818 45.8628 21.9033 45.6797C21.5997 45.3881 21.0145 44.4232 20.9196 43.9956C20.8643 43.7729 20.6442 43.9106 21.0145 43.5063C20.9574 43.4892 20.9004 43.4717 20.8433 43.4536C20.7297 43.4946 20.6157 43.5348 20.5012 43.5741C20.3677 43.3799 20.3355 43.0823 20.2543 42.858C20.2418 42.8207 20.2271 42.786 20.2092 42.755C20.0041 42.4007 19.4206 42.0142 19.4093 41.549C19.4057 41.4304 19.5578 41.2037 19.5067 41.1145C19.4345 40.9879 19.0626 41.1432 18.9676 40.9806C18.8029 40.6978 18.9371 39.9453 18.7677 39.6872C18.7167 39.609 18.5649 39.639 18.5218 39.5885C18.3407 39.3787 18.2554 39.1771 17.934 39.0376C18.1585 38.6124 18.6224 38.4307 19.0412 38.1432C19.3569 37.9262 20.0819 37.3967 20.3923 37.2785C20.6057 37.1862 20.8939 37.101 21.1261 36.993C21.393 37.0984 21.257 37.3359 21.0339 37.7044C21.2432 38.1072 21.4655 38.5147 21.6923 38.9198C21.5879 39.0219 21.4832 39.123 21.3793 39.2258C21.379 39.226 21.3788 39.2261 21.3785 39.2262C21.3192 39.4605 21.6739 39.3617 21.7905 39.4074C22.4562 39.6753 22.842 40.4381 23.1499 41.2163C23.3108 41.6649 23.4862 42.1185 23.6889 42.4237C23.7927 42.5907 24.3534 42.9245 24.2924 43.1774C24.2754 43.244 24.1306 43.4037 24.1515 43.4376C24.4867 43.5889 24.8274 43.7235 25.1734 43.847C25.506 44.5642 26.2992 44.8006 26.9505 45.1871C27.4542 45.4867 27.9731 45.781 28.4972 46.0872C29.6773 46.7628 30.9482 47.2941 32.2332 47.8255C32.5815 47.9703 33.0844 47.9765 33.4029 48.1896C33.5357 48.2782 33.4938 48.6282 33.7663 48.4432C33.7407 48.5328 33.7152 48.6224 33.6897 48.7121C33.8953 48.6579 34.0653 48.4877 34.2631 48.523C34.4294 48.5539 34.8628 48.6593 34.9984 48.731C35.0687 48.7679 34.9965 48.929 35.0672 48.9465C35.189 48.9755 35.5046 48.8067 35.67 48.8463C35.8196 48.8827 36.0296 49.137 36.1535 49.1348C36.5981 49.1288 37.1128 48.9304 37.5464 49.0908C37.6665 49.1359 37.7868 49.3863 37.8278 49.387C37.907 49.3874 37.9668 49.1751 38.0225 49.156C38.257 49.076 38.5479 49.2841 38.7867 49.3834C38.8316 49.4031 38.8741 49.4182 38.9134 49.4253C39.6741 49.5643 40.466 49.4928 41.1888 49.4591C41.6536 49.4458 42.3795 49.2569 42.8857 49.2813C42.9942 49.2882 43.0331 49.5267 43.1189 49.5026C43.2154 49.4753 43.2257 49.3036 43.2689 49.2778C43.2951 49.2622 43.3241 49.2453 43.3555 49.2275L42.9286 49.4189C43.1347 49.1819 43.4914 48.7599 43.7806 48.7152C43.8411 48.7068 43.9911 48.8269 44.0155 48.8056C44.028 48.7951 43.9735 48.6731 44.0033 48.6306C44.266 48.2523 44.554 48.0837 44.9013 47.7949C45.5687 47.2366 46.0332 46.307 46.6481 45.646C46.782 45.5027 47.1662 45.5958 47.1793 45.5692C47.2074 45.5128 47.0191 45.3437 47.0324 45.2079C47.0682 44.8524 47.3858 44.5771 47.5297 44.2885L47.482 44.3927C47.5148 44.313 47.5368 44.2325 47.54 44.1522C47.549 43.9578 47.3311 43.6173 47.3175 43.428C47.3081 43.2776 47.5238 42.983 47.4061 42.8816C47.3353 42.8211 47.0789 42.7319 47.0582 42.6787ZM48.0159 49.2792C47.7118 48.9699 47.7577 49.4605 48.0154 49.5205C48.0739 49.5337 48.0953 49.3593 48.0159 49.2792ZM33.0523 50.9538C33.0187 51.0729 32.9852 51.192 32.9516 51.3111C33.0076 51.2745 33.0634 51.2377 33.119 51.2008C33.1178 51.1227 33.1167 51.0446 33.1157 50.9666C33.0946 50.9624 33.0735 50.9581 33.0523 50.9538ZM31.9043 32.5712C31.9335 32.588 31.7705 32.6013 31.761 32.6189C31.7198 32.6924 31.6061 32.7147 31.539 32.7797C31.4393 32.876 31.6369 33.1871 30.5119 33.13C30.5119 33.13 30.5119 33.13 30.5119 33.13C30.5008 33.1294 30.4897 33.1288 30.4784 33.1282C30.2641 33.1163 30.0315 33.0789 29.7893 33.0628C29.547 33.0467 27.9816 32.97 27.8954 32.9293C27.7821 32.8708 28.1899 32.765 28.1735 32.7361C28.1622 32.7163 28.0211 32.6854 27.9971 32.6596C27.9197 32.5764 28.0258 32.5404 27.6429 32.4495C27.8481 32.4314 28.0532 32.4132 28.2584 32.3951C28.1658 32.3531 28.4373 32.3104 28.4236 32.287C28.4124 32.2679 28.2519 32.2489 28.2454 32.2292C28.2372 32.207 28.4127 32.1826 28.3885 32.1419C28.3497 32.0751 27.9301 32.0423 27.8787 32.0009C27.8255 31.9579 28.0571 31.907 27.9118 31.8482C27.8659 31.8394 27.82 31.8306 27.7741 31.8219C27.6693 31.8212 27.5645 31.8205 27.4598 31.8198C27.4124 31.7915 27.6272 31.7912 27.6323 31.7677C27.6384 31.74 27.436 31.7155 27.4379 31.6967C27.4396 31.6814 27.6036 31.6688 27.5944 31.6483C27.5818 31.6185 27.3463 31.6129 27.3031 31.595C27.2863 31.5879 27.1624 31.4658 27.1609 31.4592C27.1541 31.4092 27.4762 31.4212 27.5064 31.3831C27.5887 31.2774 27.3343 31.1517 27.2412 31.0453C27.1995 30.9978 27.2206 30.9515 27.2744 30.909C28.0946 31.0219 28.7437 30.8971 27.4516 30.8905C27.6376 30.8496 27.2914 30.7964 27.3526 30.7517C27.3926 30.7229 27.5724 30.7106 27.57 30.6664C27.5645 30.5879 27.0608 30.4768 27.9802 30.501C27.823 30.4012 28.1601 30.3388 27.3511 30.2646C27.3028 30.2385 27.7887 30.2024 27.8556 30.1793C27.9187 30.1574 28.1465 29.9762 28.1603 29.9454C28.174 29.9146 28.1901 29.8602 28.1203 29.8301C28.034 29.7924 27.1944 29.7264 28.1804 29.7171C28.1044 29.6442 28.1337 29.6211 28.2512 29.5628C28.2724 29.5523 28.4184 29.5584 28.4189 29.5516C28.4196 29.5376 28.313 29.5084 28.3011 29.4828C28.2816 29.4408 28.5899 29.433 28.1206 29.4137C28.0434 29.3827 27.9661 29.3517 27.8888 29.3207C27.9798 29.3158 28.0708 29.311 28.1618 29.3061C28.0639 29.2866 27.966 29.2672 27.8681 29.2477C28.5459 29.2992 28.1506 29.1772 27.7595 29.1904C27.9025 29.1452 28.0456 29.0999 28.1887 29.0547C28.9596 29.1012 28.2835 28.9443 27.8636 28.9333C27.8645 28.9273 27.8654 28.9213 27.8663 28.9154C28.074 28.8733 27.9088 28.8167 28.0496 28.7597C28.1905 28.7028 28.2653 28.7126 28.6211 28.7112C28.6015 28.6951 28.582 28.679 28.5624 28.6629C27.5938 28.5346 29.2771 28.6341 28.5378 28.461C29.1513 28.4488 28.8356 28.3261 28.6538 28.2461C28.6327 28.2368 28.5141 28.2306 28.4781 28.2178C28.3914 28.1866 28.5474 28.1261 28.1646 28.109C28.2765 28.091 28.3884 28.073 28.5004 28.055C28.4318 28.0322 28.3631 28.0093 28.2945 27.9865C28.1751 27.9805 28.0556 27.9745 27.9361 27.9686C28.3453 27.9504 28.1919 27.8813 28.2908 27.8561C28.3108 27.8511 28.4757 27.8582 28.5216 27.8418C28.5761 27.8228 28.5293 27.7797 28.5822 27.7563C28.4001 27.737 28.218 27.7176 28.036 27.6982C27.9393 27.6468 28.422 27.6549 28.4609 27.6296C28.4676 27.625 28.4375 27.5337 28.4275 27.5283C28.348 27.4847 27.9369 27.475 28.0306 27.3652C28.0475 27.3457 28.1904 27.3364 28.1971 27.3183C28.209 27.2864 27.8918 27.1721 27.5945 27.1493C27.9691 27.1288 27.8221 27.0156 27.9314 26.9901C27.965 26.9824 28.2024 26.9923 28.2544 26.9661C28.2967 26.9448 28.1098 26.875 28.1431 26.847C28.1793 26.8173 28.3792 26.8162 28.394 26.8028C28.4078 26.7902 28.2475 26.7697 28.2494 26.7517C28.2578 26.6953 28.5195 26.6572 28.5265 26.6127C28.5373 26.5484 28.0637 26.467 27.8549 26.4021C27.8865 26.3902 27.9894 26.3822 27.9911 26.3682C28.0149 26.1946 28.1127 26.0025 28.2236 25.8328C28.2746 25.754 28.9316 25.585 27.8497 25.5841C27.6621 25.5463 28.1076 25.3633 28.1162 25.3246C28.1246 25.286 27.9327 25.2452 27.9314 25.2144C27.9276 25.1215 28.0704 25.0634 27.9076 24.9423C27.865 24.9109 27.6374 24.8681 27.6409 24.8511C27.6457 24.8305 27.8686 24.8194 27.884 24.7933C27.9191 24.7308 27.8522 24.6077 27.8937 24.5482C27.9018 24.5374 28.0966 24.5433 28.1583 24.5304C28.3992 24.4799 28.3822 24.4088 27.76 24.3897C28.1169 24.3275 27.7988 24.237 27.7828 24.1618C27.7505 24.0028 27.9102 23.7242 27.6559 23.5742C27.4955 23.4797 27.2166 23.4677 27.4636 23.353C27.5184 23.3275 27.5918 23.3031 27.6572 23.2722C27.811 23.1997 28.3298 23.1523 27.7123 23.0597C27.8778 22.9789 27.7672 22.9023 28.3013 22.8632C28.1744 22.849 28.0475 22.8347 27.9206 22.8205C27.918 22.8094 27.9154 22.7983 27.9128 22.7873C28.0344 22.79 28.156 22.7928 28.2775 22.7955C28.3142 22.7191 27.8202 22.5946 27.8272 22.5286C27.8385 22.418 28.0468 22.1422 28.216 22.0453C28.3058 21.9939 28.046 21.9777 28.5821 21.9729C28.5455 21.9585 28.509 21.9441 28.4724 21.9298C28.3558 21.916 28.2392 21.9022 28.1225 21.8885C28.1215 21.8166 28.3076 21.7409 28.3092 21.6726C28.3118 21.548 27.9991 21.345 28.217 21.2308C28.272 21.2022 28.5153 21.1753 28.5141 21.1445C28.5127 21.0997 28.1127 21.0685 28.1081 21.0115C28.1009 20.9133 28.5754 20.7552 28.5445 20.6611C28.5356 20.6332 28.3872 20.6129 28.3722 20.5931C28.3079 20.5103 28.3234 20.4458 28.0969 20.3581C28.4849 20.2959 28.98 20.3281 29.4812 20.3281C29.8594 20.3281 30.7368 20.3137 31.0677 20.3221C31.3001 20.328 31.5977 20.3651 31.8536 20.3698C32.0527 20.4781 31.826 20.5078 31.4625 20.569C31.4693 20.7164 31.4762 20.8639 31.4831 21.0114C31.3429 21.0177 31.2028 21.0239 31.0626 21.0302C31.0623 21.0302 31.062 21.0302 31.0617 21.0301C30.8978 21.0783 31.2559 21.1204 31.3359 21.155C32.1018 21.4856 31.4617 22.0272 31.3574 22.3431C31.3352 22.4112 31.5118 22.6453 31.2828 22.6811C31.2232 22.6904 31.0079 22.6829 30.9979 22.6955C31.1199 22.8185 31.2419 22.9416 31.3639 23.0646C31.0175 23.2873 31.2809 23.5491 31.3202 23.7933C31.4265 24.4538 31.5632 25.1093 31.4791 25.7494C31.4625 25.8731 31.6156 26.0389 31.5055 26.1552C31.4599 26.2038 31.1134 26.2074 31.3674 26.2872C31.2743 26.2831 31.1812 26.2791 31.0882 26.2751C31.1975 26.339 31.4074 26.3869 31.4256 26.4532C31.4406 26.5091 31.4471 26.6551 31.409 26.7018C31.39 26.7261 31.2166 26.7079 31.2162 26.7314C31.217 26.7717 31.4531 26.8698 31.4502 26.9253C31.4477 26.9755 31.2431 27.05 31.2701 27.0901C31.3661 27.2344 31.6553 27.401 31.5682 27.5452C31.5436 27.585 31.3155 27.6262 31.3211 27.6394C31.3329 27.6651 31.5516 27.6836 31.5789 27.7019C31.7168 27.7946 31.4498 27.9146 31.4352 27.9978C31.3877 28.2691 31.4686 28.5631 31.4145 28.8328C31.3805 29.0033 31.4046 29.2906 31.2318 29.4407C31.1945 29.4731 30.955 29.4518 30.9535 29.4805C30.952 29.5123 31.1132 29.5378 31.1255 29.5533C31.2121 29.661 31.3644 29.8966 31.1938 29.9853C31.161 30.0022 30.9723 30.0061 30.9724 30.0173C30.9721 30.0229 31.0998 30.0421 31.112 30.0603C31.2202 30.2218 31.1396 30.3314 31.0879 30.4815C30.9898 30.7692 31.2113 31.1195 31.0666 31.4195C31.0351 31.4849 30.6609 31.5118 30.6641 31.5214C30.6706 31.5424 30.9201 31.5683 30.9797 31.6132C31.1758 31.7623 30.8994 31.9357 31.018 32.0741C31.0765 32.1425 31.3895 32.2483 31.4565 32.316C31.51 32.3702 31.3793 32.4849 31.5176 32.5147C31.6011 32.5328 31.8713 32.553 31.9043 32.5712ZM27.7811 30.6302C28.2132 30.6613 27.8586 30.547 27.6246 30.5713C27.5719 30.5767 27.669 30.6221 27.7811 30.6302ZM28.7603 26.1734C28.6367 26.168 28.5131 26.1626 28.3895 26.1572C28.4403 26.1724 28.4911 26.1876 28.5418 26.2028C28.6165 26.1995 28.6911 26.1962 28.7657 26.1929C28.7639 26.1864 28.7621 26.1799 28.7603 26.1734ZM43.6352 35.6351C43.6618 35.6575 43.4978 35.6552 43.4859 35.6743C43.4345 35.7542 43.3183 35.7674 43.2423 35.8347C43.1296 35.9344 43.2821 36.3122 42.1713 36.1254C42.1713 36.1254 42.1713 36.1254 42.1713 36.1254C42.1604 36.1236 42.1493 36.1217 42.1382 36.1198C41.9268 36.083 41.7007 36.015 41.4621 35.9704C41.2234 35.9259 39.6772 35.6692 39.5973 35.6132C39.4929 35.5339 39.9134 35.4566 39.9012 35.4217C39.8928 35.3978 39.7568 35.3472 39.7366 35.315C39.6713 35.2113 39.782 35.1814 39.414 35.036C39.6206 35.0373 39.8272 35.0386 40.0338 35.0399C39.9477 34.9818 40.2238 34.9622 40.2135 34.934C40.205 34.9108 40.048 34.8717 40.0444 34.8484C40.0393 34.8221 40.2174 34.8131 40.1991 34.7638C40.1699 34.6831 39.7572 34.6002 39.7119 34.5471C39.6651 34.4921 39.9026 34.4588 39.7664 34.3757C39.722 34.3607 39.6776 34.3457 39.6332 34.3307C39.5291 34.3186 39.425 34.3065 39.3209 34.2944C39.2778 34.2568 39.4914 34.2797 39.4998 34.2533C39.5098 34.2222 39.312 34.1722 39.3165 34.151C39.3204 34.1336 39.4852 34.1368 39.479 34.1123C39.4707 34.0768 39.2373 34.045 39.1968 34.0198C39.1811 34.0099 39.0752 33.8566 39.0746 33.8488C39.0749 33.7908 39.3936 33.8393 39.4289 33.7989C39.5258 33.6866 39.2905 33.515 39.2129 33.3831C39.1782 33.3241 39.2057 33.2733 39.2652 33.2304C40.065 33.4483 40.7282 33.3753 39.4441 33.2283C39.6348 33.2015 39.2981 33.1031 39.3653 33.0586C39.4091 33.0298 39.5897 33.0352 39.5935 32.9842C39.5991 32.8937 39.1138 32.7119 40.0249 32.8388C39.8826 32.7075 40.2267 32.6723 39.4326 32.5C39.3882 32.4648 39.8766 32.476 39.9465 32.4566C40.0123 32.4383 40.2645 32.2553 40.2825 32.2214C40.3006 32.1875 40.3242 32.127 40.259 32.0849C40.1785 32.0324 39.3529 31.8662 40.3348 31.9619C40.2695 31.8701 40.302 31.8468 40.427 31.7927C40.4496 31.7829 40.594 31.8056 40.5954 31.7979C40.5981 31.782 40.4962 31.737 40.488 31.7064C40.4746 31.656 40.7822 31.6804 40.3183 31.6077C40.2458 31.5638 40.1733 31.5199 40.1009 31.4761C40.1921 31.4803 40.2833 31.4845 40.3745 31.4887C40.2798 31.4559 40.1852 31.423 40.0906 31.3902C40.7575 31.5222 40.3815 31.3398 39.9906 31.3128C40.1393 31.2763 40.288 31.2399 40.4367 31.2035C41.1969 31.3399 40.5466 31.0871 40.1305 31.0292C40.1323 31.0225 40.134 31.0158 40.1358 31.009C40.3483 30.9832 40.1919 30.9004 40.3401 30.8504C40.4882 30.8003 40.5612 30.8196 40.9153 30.8563C40.8981 30.8358 40.8809 30.8153 40.8638 30.7947C39.9185 30.5432 41.5787 30.8387 40.8679 30.5606C41.4798 30.6128 41.1831 30.4381 41.0136 30.3268C40.994 30.3138 40.8768 30.294 40.8428 30.2754C40.761 30.2303 40.9247 30.1778 40.5464 30.1169C40.6603 30.1083 40.7741 30.0997 40.888 30.0912C40.823 30.0576 40.758 30.024 40.693 29.9904C40.575 29.9707 40.457 29.951 40.339 29.9312C40.7485 29.9545 40.6057 29.8588 40.7076 29.8406C40.7283 29.837 40.8913 29.8629 40.9392 29.8491C40.9961 29.8331 40.9557 29.7787 41.0116 29.7576C40.8332 29.7158 40.6549 29.674 40.4766 29.6321C40.3877 29.5627 40.8666 29.6241 40.9088 29.5992C40.9162 29.5947 40.8992 29.4868 40.89 29.4796C40.817 29.421 40.4095 29.3656 40.5183 29.2498C40.5379 29.2293 40.6813 29.2341 40.6905 29.214C40.7069 29.1787 40.4075 29.0135 40.1151 28.9553C40.4905 28.9722 40.3604 28.8267 40.4726 28.8091C40.5071 28.8039 40.7418 28.8409 40.7973 28.8164C40.8424 28.7966 40.6663 28.6965 40.7034 28.6679C40.7436 28.6378 40.9426 28.6581 40.9593 28.6444C40.9747 28.6314 40.8182 28.5907 40.8226 28.5701C40.839 28.5065 41.1046 28.491 41.1179 28.4407C41.1377 28.3682 40.6782 28.2238 40.4797 28.1269C40.5127 28.1167 40.6163 28.1186 40.6199 28.1027C40.6681 27.9063 40.7925 27.6966 40.9268 27.5141C40.9887 27.4293 41.6661 27.3064 40.5901 27.1887C40.4089 27.1251 40.8779 26.9634 40.8918 26.92C40.9057 26.8766 40.7206 26.8092 40.7236 26.7737C40.733 26.6668 40.8832 26.6157 40.7385 26.4592C40.7005 26.4187 40.4801 26.3451 40.4861 26.3259C40.4937 26.3029 40.717 26.3142 40.736 26.2859C40.7798 26.2181 40.7306 26.0698 40.7803 26.006C40.7899 25.9945 40.9829 26.0223 41.046 26.0141C41.2928 25.9823 41.2859 25.899 40.6697 25.8099C41.0335 25.7771 40.7299 25.6391 40.7247 25.5512C40.715 25.3654 40.9132 25.0633 40.6815 24.864C40.5353 24.7382 40.2596 24.6945 40.5215 24.5896C40.5796 24.5663 40.656 24.5462 40.7255 24.5178C40.8887 24.4513 41.4114 24.453 40.8103 24.2803C40.9863 24.2055 40.8872 24.1057 41.4239 24.1185C41.2997 24.0885 41.1755 24.0585 41.0513 24.0285C41.0503 24.0155 41.0493 24.0025 41.0482 23.9896C41.1688 24.0059 41.2893 24.0221 41.4098 24.0384C41.4571 23.9547 40.9834 23.7587 40.9997 23.6839C41.0265 23.5583 41.2727 23.2646 41.4547 23.1718C41.5513 23.1226 41.2951 23.076 41.829 23.1283C41.7947 23.1079 41.7604 23.0874 41.7261 23.067C41.612 23.0387 41.4979 23.0103 41.3839 22.982C41.393 22.8995 41.5888 22.8327 41.6001 22.7546C41.6202 22.6121 41.338 22.3456 41.5708 22.2383C41.6295 22.2114 41.8753 22.2069 41.8785 22.1714C41.8834 22.1199 41.49 22.041 41.4935 21.9752C41.5002 21.8618 41.9945 21.7317 41.9771 21.6206C41.9721 21.5876 41.8274 21.5483 41.8153 21.5241C41.7631 21.4222 41.7876 21.3499 41.5748 21.2249C41.9694 21.1955 42.4573 21.2858 42.9557 21.3399C43.332 21.3807 44.2066 21.4588 44.5345 21.5041C44.7649 21.536 45.0556 21.6106 45.3095 21.6436C45.4922 21.7892 45.2625 21.7987 44.8923 21.8297C44.8783 21.9995 44.8643 22.1693 44.8503 22.339C44.71 22.3311 44.5697 22.3232 44.4294 22.3153C44.4291 22.3152 44.4288 22.3152 44.4285 22.3151C44.2587 22.3527 44.6088 22.4396 44.6835 22.4878C45.3986 22.9493 44.6854 23.5012 44.537 23.852C44.5053 23.9276 44.6478 24.215 44.4151 24.2314C44.3544 24.2356 44.1414 24.2038 44.1297 24.2171C44.2336 24.3713 44.3375 24.5255 44.4415 24.6797C44.0655 24.8977 44.2905 25.2262 44.295 25.5103C44.3074 26.2788 44.3507 27.045 44.1765 27.7696C44.1425 27.9096 44.2714 28.1162 44.1455 28.2377C44.0932 28.2884 43.7481 28.2552 43.9895 28.374C43.8975 28.3594 43.8054 28.3447 43.7134 28.33C43.8132 28.4151 44.0151 28.4927 44.0239 28.5706C44.0309 28.6363 44.0167 28.8044 43.9722 28.8538C43.9498 28.8796 43.7799 28.84 43.7763 28.8669C43.7714 28.9133 43.9923 29.0511 43.9816 29.1144C43.972 29.1717 43.758 29.235 43.7792 29.2839C43.8542 29.4597 44.1183 29.6818 44.0113 29.8377C43.9812 29.8807 43.7485 29.9033 43.7523 29.919C43.7604 29.9497 43.9752 29.9946 43.9998 30.0185C44.1239 30.1396 43.8413 30.2484 43.8151 30.3422C43.7294 30.648 43.7684 30.9938 43.6765 31.2971C43.6186 31.4888 43.6019 31.8207 43.4088 31.9742C43.3671 32.0073 43.1319 31.9571 43.1264 31.9898C43.1204 32.0261 43.2771 32.0727 43.2872 32.0919C43.358 32.2245 43.4762 32.511 43.294 32.5944C43.259 32.6102 43.0708 32.5943 43.0693 32.6071C43.0683 32.6135 43.1925 32.6493 43.2021 32.6715C43.2869 32.8682 43.1912 32.9852 43.1186 33.1517C42.9803 33.4709 43.1511 33.8963 42.9647 34.2246C42.9242 34.2962 42.5482 34.2867 42.5501 34.298C42.5535 34.3228 42.798 34.3794 42.851 34.4373C43.0249 34.6294 42.7255 34.7983 42.824 34.9698C42.8724 35.0544 43.1688 35.2094 43.2258 35.2943C43.2715 35.3621 43.1252 35.4796 43.2585 35.5287C43.339 35.5584 43.6049 35.6106 43.6352 35.6351ZM39.8086 32.9655C40.2339 33.0477 39.8974 32.8785 39.6613 32.881C39.6081 32.8816 39.6982 32.9441 39.8086 32.9655ZM41.4125 27.9624C41.2904 27.9428 41.1682 27.9233 41.046 27.9038C41.0944 27.9267 41.1427 27.9496 41.1911 27.9726C41.2658 27.9768 41.3405 27.9811 41.4151 27.9853C41.4143 27.9777 41.4134 27.97 41.4125 27.9624Z" fill="#EDAE00"/>
</g>
<defs>
<clipPath id="clip0_1_431">
<rect width="70" height="70" fill="white"/>
</clipPath>
</defs>
</svg>
