<svg width="34" height="46" viewBox="0 0 34 46" fill="none" xmlns="http://www.w3.org/2000/svg">
<path d="M18.8221 15.6629C18.8701 15.8385 18.7327 16.1065 18.7423 16.3161C18.7769 17.1325 18.6992 17.4784 18.6717 18.1546L18.6735 18.1967C18.67 18.2462 18.6668 18.2965 18.6641 18.3496C18.571 19.3427 19.1836 22.6164 18.0634 22.7546C18.0633 22.7546 18.0633 22.7546 18.0633 22.7546C18.0523 22.7559 18.0412 22.7569 18.0299 22.7575C17.8151 22.7685 17.55 22.5162 17.3039 22.5002C17.0579 22.4857 15.5045 22.6984 15.3707 22.3037C15.1869 21.7343 15.436 20.2696 15.395 19.9472C15.3639 19.7289 15.2003 19.4666 15.1574 19.1804C15.1075 18.8471 15.0911 18.5701 15.0697 18.3177L15.0709 18.346C15.0254 17.9257 14.9562 17.5695 14.6717 17.0991C14.8511 16.7776 15.0273 16.4525 15.2 16.1255C15.0674 15.7332 15.2632 15.0958 15.2159 14.854C15.1777 14.6548 15.0021 14.5612 14.9651 14.3556C14.9225 14.1253 15.0414 13.745 14.942 13.3283C14.7776 12.6493 14.3366 12.6115 14.1996 12.2259C14.057 11.8271 14.1215 11.1311 13.8276 10.6635C13.7642 10.6122 13.7008 10.5619 13.6373 10.5128C13.551 10.5884 13.4643 10.6635 13.3774 10.7383C13.256 10.5038 13.4267 10.3331 13.3547 10.1048C13.2691 9.83722 13.0291 9.7749 12.965 9.60294C12.9131 9.46354 12.9893 9.21427 12.9028 9.03924C12.7781 8.78847 12.5866 8.9406 12.4864 8.82833C12.4594 8.79375 12.1714 8.3535 11.9757 8.11157L12.2064 8.43187C12.0379 8.26283 11.9345 8.15174 11.9186 8.13358C11.726 7.90076 11.7278 7.77887 11.7344 7.66002C11.7449 7.54592 11.7662 7.44016 11.7265 7.38614C11.697 7.15589 10.5801 7.19949 9.6153 7.32644C9.6071 7.3274 9.59895 7.32837 9.59083 7.32934C9.21896 7.37442 8.86953 7.39204 8.56405 7.41117C8.93892 6.47332 7.51501 6.17569 8.34159 7.28787C7.94962 7.21673 7.89861 7.63159 7.66224 7.72444C7.5033 7.79285 7.28451 7.73503 7.0896 7.95965C6.73237 8.37533 6.91526 9.20819 5.98921 9.04866C5.81639 9.88677 5.29962 10.621 6.00372 11.1464C5.99375 11.3807 5.42421 11.8731 5.26818 12.1568C5.26217 12.1672 5.25681 12.1774 5.25213 12.1871C5.11722 12.4265 4.55413 14.3921 4.5245 14.7243C4.47176 15.0517 4.40682 15.6279 4.46203 15.9081C4.52932 16.2694 5.35516 16.5126 4.36755 17.1086C4.45174 17.8204 4.43591 18.0657 4.382 18.7288C4.37348 18.8486 4.22998 18.878 4.23772 18.9475C4.25413 19.0912 4.392 19.3188 4.44603 19.5651C4.53465 19.9683 4.28985 20.2637 4.73808 20.1195C4.8714 20.3639 5.01254 20.5998 5.16085 20.8243C5.0995 20.9367 5.03985 21.0505 4.98228 21.1665C5.05131 21.2184 5.12066 21.2688 5.19031 21.3178C5.26377 21.3787 5.33707 21.4396 5.41023 21.5003C4.70644 21.5425 5.45752 22.4932 5.70575 22.0158C5.76403 22.62 5.81699 23.2189 5.87056 23.8139C5.11255 23.9872 6.19855 25.0468 6.55817 24.7976C6.57918 24.8597 6.60024 24.9217 6.62136 24.9837C6.61827 25.5929 6.95302 26.028 7.07155 26.7199C7.19319 27.4126 7.1025 27.3785 6.85232 27.7087C6.93307 27.8528 7.01444 27.9957 7.09682 28.1385C8.32842 28.529 6.71386 29.0885 8.03061 30.094C7.68676 30.7878 8.52199 31.682 9.07005 32.2437C9.13352 32.3097 9.23672 32.2509 9.32857 32.3346C9.43335 32.4318 9.53978 32.6314 9.66186 32.8026C9.8096 33.0115 9.96541 33.1749 10.1348 33.058C10.1794 33.3512 10.2192 33.6429 10.2552 33.9332C10.4244 34.0918 10.5923 34.2517 10.759 34.4123C10.8636 34.3542 10.9681 34.296 11.0727 34.2379C10.9289 34.825 11.3884 35.363 11.4581 35.7099C11.4717 35.779 11.3321 35.8681 11.3881 36.0745C11.4531 36.3166 11.7036 36.6978 11.7897 36.9782C12.0037 36.9948 12.2172 37.0101 12.431 37.026C12.7539 37.4357 12.4087 37.8165 12.5151 38.0992C12.5334 38.1523 13.0263 38.9937 13.0624 39.0318C13.3442 39.3588 13.6309 39.0732 14.1752 40.1219C14.2738 40.3069 14.2468 40.5245 14.3479 40.6831C14.5233 40.9786 15.3694 41.5281 15.6341 41.3613C15.6031 41.6626 15.8633 41.9928 16.1087 42.2188C16.2323 42.3341 16.1634 42.2623 16.031 42.2755C15.945 42.2931 15.8564 42.4931 15.6581 42.5844C15.5053 42.6627 15.4962 42.5973 15.6006 42.4063C15.624 42.3637 15.653 42.3196 15.685 42.2854C15.8517 42.105 16.0817 42.1012 16.1612 41.9934C16.237 41.8875 16.1546 41.7035 16.2401 41.5424C16.5093 41.0386 16.9754 40.6412 17.18 40.1971C17.4758 39.5535 17.2869 38.7811 17.336 38.1381C17.4086 38.0345 17.5247 37.9514 17.6001 37.8449C17.617 37.8208 17.6318 37.7957 17.6437 37.769C18.4476 35.9723 19.463 33.9901 20.4622 32.266C20.9175 31.4563 22.589 29.7699 21.3499 29.7805C21.338 29.3981 22.8691 27.6078 23.083 27.2476C23.1992 27.0512 23.2527 26.8495 23.3013 26.6596C23.3448 26.4907 23.3966 26.3129 23.4741 26.1757C23.9921 25.2608 24.4759 24.7239 24.9279 23.5671C25.0413 23.2727 25.0025 22.8641 25.0914 22.7043C25.2017 22.5073 25.5084 22.4039 25.6557 22.1517C26.0062 21.5571 26.4992 20.3761 26.7942 19.7976C26.85 19.6907 27.0447 19.7328 27.169 19.6004C27.6568 19.0821 27.9098 18.3734 27.2814 18.2712C27.9185 17.6139 27.871 16.7653 28.0703 16.0304C28.5445 14.4799 29.1333 11.6104 28.7959 10.281C28.6024 9.44691 28.3505 9.50374 28.4238 8.29287C28.431 8.11284 28.443 7.93086 28.4472 7.7303C28.4464 7.61746 28.4448 7.50141 28.4403 7.3782C28.4133 6.51792 28.7248 5.62391 27.9555 5.25749C27.8625 4.40278 27.4845 4.0515 27.8659 3.72203C27.7943 3.82754 27.7502 3.95324 27.7428 4.09083C27.78 4.11044 27.8252 4.12959 27.8739 4.14459C27.8393 4.13662 27.8002 4.12789 27.7659 4.12083C27.7695 3.9965 27.7684 3.87129 27.7688 3.74666C27.1004 3.55148 26.2998 4.06535 25.8328 4.16552C25.2554 4.24059 23.9974 4.66263 23.0325 5.37224C22.6381 5.644 22.2521 5.96566 21.9893 6.16882C21.5309 6.52681 21.693 6.74124 21.0738 6.62913C21.0131 6.75321 20.9511 6.87972 20.8881 7.00853C20.9213 7.14862 20.9567 7.28664 20.991 7.42627C20.4912 8.01146 19.7651 8.61062 19.3024 9.1951C18.4514 10.2636 17.474 12.0919 16.4929 13.0793C16.2459 13.3265 15.7974 13.5332 15.6009 13.8109C15.3161 14.2135 15.5721 14.5444 15.2174 15.0573C14.605 15.9378 13.0803 17.3292 12.5481 18.1964C12.3933 18.447 12.4343 18.6555 12.3342 18.836C11.9121 19.6016 11.5144 20.1955 11.2817 21.0135C10.5007 21.5579 10.1206 21.2398 9.54657 21.2331C9.1154 21.2252 8.04653 21.3583 7.66097 21.4973C7.3977 21.5397 7.27246 21.0175 6.97551 21.079C7.46264 19.5563 7.85041 19.4974 8.64898 18.8607C9.52792 17.4327 10.4343 16.059 11.3639 14.6858C11.5633 14.6428 11.7633 14.5994 11.9637 14.5557C11.9639 14.5559 11.9642 14.5561 11.9644 14.5562C12.4605 14.1254 12.3165 13.7058 12.4493 13.3759C13.7286 10.2536 17.8656 5.44246 20.8948 2.85311C20.9065 2.84361 20.9182 2.83418 20.9298 2.82481C21.5104 2.19727 24.1288 0.636244 24.8753 0.833771C25.0486 0.854722 25.1379 1.05593 25.3042 1.03425C26.4008 0.732798 27.6017 0.686127 28.7503 0.90089C29.4729 1.06284 29.9892 1.50294 30.327 1.87705C31.4639 3.88574 31.5535 5.39277 32.0024 7.00033C32.2884 8.19621 32.4561 9.42236 32.4672 10.6312C32.4857 17.3238 29.3396 23.268 26.3413 28.3724C25.7644 29.3994 25.1825 30.3823 24.6273 31.3625C23.9532 32.542 23.3096 34.1333 22.6386 35.284C22.3592 35.7623 21.9439 35.828 21.8679 36.5989C21.7802 36.5666 21.6924 36.5343 21.6047 36.5021C21.4372 37.1292 21.4605 37.588 21.1861 38.2525C21.0947 38.4739 20.94 38.8375 20.7695 39.2341C20.5164 39.8234 20.2277 40.4854 20.0746 40.7803C19.9436 41.0346 19.8272 40.8671 19.72 41.1114C19.5383 41.5295 19.3491 42.533 19.0153 43.1517C18.8325 43.4891 18.5093 43.9327 18.0862 44.3862C17.8074 44.6855 17.4625 44.9812 17.1394 45.192C16.7163 45.5026 15.8738 45.7414 15.1963 45.572C14.5244 45.4207 14.1279 45.1285 13.8193 44.9096C12.6946 44.1019 11.7968 43.0841 11.1815 42.0153C10.9306 41.5802 10.8145 40.9279 10.736 40.8018C10.5796 40.5532 10.3467 40.5847 10.2266 40.4257C9.61502 39.6162 9.16814 38.1555 8.7547 37.3343C8.2415 36.3137 7.69988 35.3071 7.11045 34.3615C6.03714 32.6425 5.07786 30.8075 4.35221 28.9808C3.58673 27.1208 2.56648 24.0609 2.14897 22.382C2.14832 22.3795 2.14767 22.3771 2.14703 22.3746C2.03974 21.9473 2.30582 21.9856 2.20259 21.6421C2.09309 21.262 1.88771 21.0913 1.83268 20.912C1.39407 19.6791 1.10551 16.866 1.39033 15.7206C1.43634 15.5007 1.63683 15.3563 1.64717 15.2258C1.65281 15.1598 1.53767 14.9985 1.54585 14.7888C1.59814 13.5204 1.78891 12.5085 2.04877 11.4486C2.16528 10.9809 2.29212 10.4885 2.44755 9.94084C2.84519 8.60508 3.27033 6.99872 4.54204 5.53492C5.8155 4.02842 7.95737 3.40605 9.6153 3.45135C10.3461 3.45734 11.0825 3.49338 11.9027 3.68431C12.88 3.89877 13.4368 4.71079 13.5297 4.78592C13.7937 4.97252 14.1712 4.96045 14.5975 5.36934C14.8149 5.57956 14.9798 5.76274 15.1272 5.91447L15.289 6.13908C16.2003 7.53984 16.6035 9.32313 17.0304 10.5655C17.287 11.2978 17.8124 12.2737 18.0056 13.0129C18.1699 13.6047 18.2274 15.0269 18.3899 15.2748C18.4913 15.4259 18.7686 15.4711 18.8221 15.6629ZM6.7177 8.09542C6.39732 7.77435 6.28095 8.66273 6.63916 8.51515C6.71471 8.48242 6.79584 8.17475 6.7177 8.09542ZM19.4153 35.6843C19.299 35.6412 19.1826 35.5981 19.0663 35.555C19.0539 35.7041 19.0392 35.8589 19.0275 36.0076C19.1273 35.9685 19.2297 35.9238 19.3306 35.8827C19.359 35.8161 19.3872 35.75 19.4153 35.6843Z" fill="#BF57F3"/>
</svg>
