<svg width="240" height="34" viewBox="0 0 240 34" fill="none" xmlns="http://www.w3.org/2000/svg" preserveAspectRatio="none">
<path d="M159.216 6.22457C162.411 6.34834 173.698 7.06946 180.961 7.18978C197.77 7.45931 214.363 5.95339 230.911 8.98678C233.496 9.46425 238.058 10.9216 237.342 18.8652C236.595 27.1315 234.033 31.2791 229.492 30.8345C218.501 29.7486 206.834 28.8174 195.726 29.9274C179.478 31.548 163.51 29.9327 147.41 29.8759C132.954 29.8247 118.556 28.9654 104.094 28.9915C90.5097 29.0108 76.8217 30.4071 63.2819 29.921C51.5957 29.4999 40.7379 28.1119 29.1004 27.0232C26.3611 26.7665 22.2651 27.123 19.2564 26.9082C16.7689 26.7284 12.6118 26.541 10.1935 25.7801C9.15008 25.4484 8.07124 25.0361 7.003 25.3032C1.58911 24.4448 2.21544 19.061 3.37741 14.549C3.88904 12.5617 3.70928 11.7251 3.68922 10.7445C3.66406 8.78159 4.17908 7.88333 4.22827 7.80956C8.18434 2.41081 12.53 5.63297 16.1801 5.6098C34.0904 5.52302 51.9616 5.98443 69.8462 6.24899C80.82 6.40758 91.7662 7.087 102.791 6.34491C105.809 6.1435 108.37 5.59407 111.885 5.83565L111.833 5.83144C115.027 5.65125 118.243 5.21132 121.413 5.32607C133.408 5.7651 143.858 5.51828 157.031 6.16232C157.483 6.19881 158.549 6.19893 159.216 6.22457Z" fill="#BF57F3"/>
</svg>
