<svg viewBox="0 0 186 23" fill="none" preserveAspectRatio="none" xmlns="http://www.w3.org/2000/svg">
<path d="M123.604 2.13568C126.135 2.23291 135.078 2.80308 140.834 2.89545C154.153 3.10212 167.302 1.89087 180.412 4.30512C182.461 4.68515 186.075 5.8468 185.503 12.1916C184.908 18.7942 182.875 22.1081 179.277 21.7553C170.568 20.8936 161.324 20.1559 152.522 21.0481C139.646 22.3508 126.994 21.0689 114.236 21.0318C102.781 20.9983 91.373 20.3193 79.9138 20.3476C69.1495 20.3699 58.3025 21.4921 47.5739 21.1108C38.3141 20.7804 29.7112 19.6774 20.4903 18.8138C18.3198 18.6102 15.0739 18.8971 12.69 18.7271C10.719 18.5848 7.42508 18.4372 5.50924 17.8307C4.68259 17.5663 3.82794 17.2376 2.98133 17.4515C-1.30815 16.7686 -0.809095 12.4684 0.113948 8.86405C0.520382 7.27655 0.378364 6.60848 0.362972 5.82528C0.344045 4.25757 0.752603 3.53988 0.791618 3.48093C3.92914 -0.832998 7.37096 1.73827 10.2633 1.7179C24.4553 1.63942 38.6161 1.99879 52.7875 2.20094C61.483 2.32198 70.1564 2.85903 78.8923 2.26068C81.2845 2.09827 83.3142 1.65814 86.0989 1.84929L86.0576 1.84595C88.5885 1.7004 91.1371 1.34739 93.649 1.43742C103.154 1.78193 111.434 1.57944 121.872 2.08709C122.23 2.116 123.075 2.11554 123.604 2.13568Z" fill="#BF57F3"/>
</svg>
