<svg width="113" height="67" viewBox="0 0 113 67" fill="none" xmlns="http://www.w3.org/2000/svg">
<path d="M1.24854 35.9711C0.589189 35.3151 -0.119717 33.6225 0.0171095 32.7316C0.0948132 32.2252 0.293014 31.6511 0.481079 31.2029C0.66464 31.1683 0.838629 31.0929 0.92309 31.006L1.15845 30.7624C1.21589 30.703 1.34539 30.9456 1.44675 31.1067L1.9704 30.4138L2.14946 30.5788L2.64665 29.8738L4.27336 27.9821C4.43834 28.4237 3.53968 28.906 3.30094 29.7792L4.11739 29.2585L3.67651 30.1482C3.60274 30.2978 3.65511 30.6591 3.71423 30.8317L4.54138 29.9123C4.62528 30.0091 4.72551 30.124 4.68328 30.1537L4.46987 30.3033C4.3612 30.3797 4.30546 30.6629 4.26041 30.8235L3.9952 31.0434C3.93552 31.0929 4.03124 31.3316 3.99014 31.3992C3.88203 31.5796 3.75252 31.9117 3.70466 32.13L3.52279 32.9626C3.22436 34.3302 3.39779 35.9684 4.2041 35.7413L5.828 35.2832C7.98118 34.4677 10.0015 33.4531 11.9277 32.2191L12.6209 31.7748C15.4002 29.9942 17.764 28.5947 20.0382 26.1152C20.4853 25.628 20.813 25.0687 21.0202 24.454C19.4036 23.7325 17.7837 23.4135 16.0787 23.1369L11.9503 22.4671C10.5769 22.2444 9.1946 21.9904 7.95866 21.3904C6.80042 20.8284 5.74748 20.1378 4.88373 19.2442C3.47155 17.7825 3.64497 16.1653 4.59769 14.449C5.46482 12.8867 6.98117 11.0528 8.31058 9.87932L9.1107 9.1727C9.92884 8.45012 10.7875 7.80784 11.6569 7.1452L12.6119 6.41658C13.0387 6.09104 13.4407 5.81389 13.925 5.52134L13.7538 5.96181L14.1012 5.7787C14.1738 5.7402 14.0973 5.53399 14.0466 5.38991L15.7285 4.28956L16.7155 3.68082L18.0922 2.81362C19.4594 1.95247 20.9138 1.35253 22.4206 0.774029C23.0264 0.54142 23.5636 0.415491 24.2111 0.284614L25.2883 0.0668517C25.8632 -0.0491778 26.2708 -0.0563248 26.6582 0.395146L27.8728 1.81225C28.1425 2.12679 28.2754 2.82682 28.3154 3.26564C27.8992 4.01681 27.451 4.62115 26.9623 5.29863L23.2956 10.3808L22.6126 11.3641L21.813 12.5359L21.5197 12.9934C20.9774 13.8397 20.4155 14.6525 20.0247 15.5774C20.0123 15.7402 20.0427 16.019 19.9453 16.1191C19.8141 16.2543 19.4464 16.3462 19.3169 16.2351L18.2437 15.3179L17.7583 14.8598C17.3343 14.4589 17.3524 13.7281 17.5765 13.1875C18.273 11.5065 19.1807 9.9926 20.2015 8.47982L23.005 4.3242C22.1328 4.66074 21.3699 5.00883 20.6024 5.4592L18.7127 6.56671L17.3045 7.48119L15.0697 9.08911C14.6857 9.36571 14.3563 9.63517 13.9492 9.84413L13.4953 10.3137L11.5347 11.9992L9.34832 14.1108L8.48006 15.1083C7.67544 16.0327 6.66866 17.5307 6.99243 18.6591C7.94514 18.9632 8.89674 19.1732 9.89112 19.3267L14.7014 20.069C16.2155 20.3027 17.6576 20.6283 19.1007 21.1226C21.6784 22.0058 22.1447 23.5081 22.5839 23.8804C23.7843 24.8988 24.1605 26.5144 23.3789 27.9139C22.3068 29.8337 19.5303 31.9744 17.5269 33.16L14.4098 35.0044L13.7769 35.3167L12.8163 35.8254L11.8574 36.2884C11.3213 36.5474 10.7599 36.8911 10.185 36.9928C10.0133 37.0231 9.71431 36.9862 9.57298 37.066L8.77117 37.5169C7.92713 37.9915 5.93949 38.5177 5.11966 37.9139L5.76043 37.6841C5.22101 37.4674 4.6478 37.7237 4.16131 37.5389L2.60442 36.9488C2.06162 36.7432 1.64157 36.3615 1.24798 35.97L1.24854 35.9711ZM12.7538 7.82433C12.8883 7.77979 13.0837 7.55873 13.2121 7.4581C14.5804 6.38414 15.974 5.43281 17.434 4.48532L18.2172 3.87878C17.9762 3.83314 17.7651 3.89748 17.5455 4.02835L15.4768 5.25464C15.2938 5.36297 15.0381 5.33052 14.9452 5.15455C14.7448 5.42126 14.4419 5.70226 14.1248 5.95686L12.1535 7.54003C11.4379 8.11523 10.8044 8.70583 10.1332 9.38056C11.1293 9.04897 11.5995 8.20542 12.7538 7.82488V7.82433ZM17.1908 6.64974C17.8203 6.14933 18.5416 5.82764 19.0669 5.1837C16.9892 6.27856 15.1665 7.58512 13.3979 9.01322C12.8506 9.50649 12.2892 9.89747 11.8681 10.5376L17.1913 6.64974H17.1908Z" fill="#EDAE00"/>
<path d="M42.3283 29.2698C41.8908 29.1191 41.5716 28.9739 41.3593 28.6137C39.6408 28.0831 40.6481 26.0946 41.0564 24.3212L39.4758 26.0011L38.393 27.1543L37.8761 27.6663C37.241 28.2953 36.5839 28.9376 35.7078 29.2362C35.0529 29.4595 34.4313 29.0537 33.978 28.6335L33.2032 27.9143C32.8192 27.5579 32.353 27.3847 32.2826 26.7661C32.1542 25.641 32.4256 24.5324 32.9369 23.4831C33.4994 22.3283 34.1351 21.2038 34.9527 20.2041L36.2179 18.6572C36.9662 17.5579 37.9251 16.6687 38.9448 15.7993C39.8356 15.0399 40.8221 14.4504 41.8931 13.972C42.5119 13.696 43.1634 13.735 43.7067 14.1694C44.2174 14.578 44.6735 15.0476 45.0519 15.6267C45.2129 15.873 45.0519 16.4158 45.0119 16.7754C45.4432 16.6121 45.8312 16.6341 46.1865 16.9195L47.0097 17.5799C47.1921 17.7262 47.4399 17.9396 47.4748 18.1177C47.5182 18.3399 47.4072 18.6643 47.3019 18.8678L46.6927 20.0424L45.6336 21.8582L44.2518 24.5687L43.9804 25.1834L43.6302 26.1073L43.2608 27.2093C43.1082 27.6641 42.9353 28.2162 43.1099 28.6566C43.2208 28.9376 43.2794 29.1735 43.0665 29.3671C42.8863 29.531 42.5305 29.482 42.33 29.2698H42.3283ZM35.2477 25.6151C35.1284 25.8972 35.094 26.1436 35.1098 26.4587C36.1515 25.7361 37.0591 25.0086 37.9386 24.1271L39.8503 22.2118L42.7011 19.0801C43.1538 18.2019 43.5356 17.3105 43.8019 16.275C42.7703 16.6489 42.0063 17.2175 41.1921 17.8048C40.1999 18.5203 39.375 19.322 38.5597 20.2228C38.2264 20.5907 37.6931 20.8293 37.5512 21.3495C37.4353 21.7751 37.0287 22.1023 36.8232 22.4603L35.8964 24.0792L35.2472 25.6157L35.2477 25.6151ZM35.9155 20.1485C35.8784 20.1128 36.0326 20.2651 36.0585 20.2184C36.0861 20.1694 36.1582 20.0473 36.1655 20.0094L36.2156 19.7537C36.2247 19.707 36.4459 19.7477 36.4763 19.7075L37.4127 18.4708C37.1532 18.2481 37.1194 18.6165 37.0394 18.6627L36.1171 19.1961L35.4217 20.3509L35.9155 20.1485Z" fill="#EDAE00"/>
<path d="M31.8364 19.1371L31.4563 19.72C31.1427 19.863 30.9439 20.1594 30.976 20.4245C31.2097 20.309 31.2316 20.3629 31.1731 20.4822L31.0481 20.6868C31.0255 20.7236 30.9659 20.6334 30.8831 20.519L30.5852 21.2334C30.7592 21.5633 30.5621 21.7629 30.3763 22.0065C30.3324 22.2221 30.2609 22.5394 30.1607 22.7698L29.5407 24.1995L29.1888 25.0689L28.9388 25.7294L28.5812 26.8446L28.1865 28.127L27.9557 29.1157L27.6618 30.3354C27.4146 31.3609 27.9799 31.5281 27.5745 31.9356C27.4714 32.039 27.2023 32.0208 27.0401 31.9306L26.4838 31.621L25.0277 30.6169C24.49 29.411 25.1719 27.632 25.6375 26.2243C26.2608 24.3414 26.9652 22.563 27.7761 20.7517L28.6145 18.8787L30.8606 14.2051C29.289 14.5801 27.985 15.0211 26.588 15.5435C26.3808 15.6211 26.1432 15.4357 26.0531 15.2763L24.9844 14.1677C24.8233 14.0005 24.7704 13.6403 24.8554 13.4324C24.9579 13.1822 25.2282 13.1789 25.5198 13.0926C27.7761 12.4261 29.9962 11.8966 32.3837 11.549C33.5419 9.24879 34.9338 7.10636 36.5031 5.01618C36.6517 4.81766 36.8235 4.39864 37.1867 4.5933C37.7998 4.9216 38.9063 5.72666 39.0206 6.08079C39.0887 6.29196 39.0009 6.54931 38.85 6.75167C37.806 8.15393 36.8933 9.57378 36.0036 11.1179L39.0921 11.1295L40.0015 11.2493L40.9857 11.433C41.274 11.6403 41.5809 12.089 41.8224 12.4564C41.7633 12.7561 41.6034 13.1245 41.399 13.3995C41.323 13.5017 40.9553 13.345 40.9035 13.1954C39.9598 13.0156 39.0195 13.0525 38.0442 13.125L36.7255 13.2339L34.9338 13.472C34.6421 13.5105 34.2469 13.8988 34.0915 14.1088L34.2198 14.2562C34.2452 14.2853 34.2294 14.3904 34.19 14.3898L33.9862 14.3871C33.9653 14.8287 33.7975 15.2499 33.3217 15.422L32.7553 16.5493L32.0464 17.8548L31.9664 17.7893L32.4715 16.6626L34.0014 13.6546C33.6174 13.6068 33.4135 13.8498 33.2688 14.1253L30.8076 18.8121C30.0188 20.315 29.3757 21.8091 28.7733 23.3906C28.8374 23.9185 28.6713 24.3948 28.2845 24.7621C27.7744 26.1517 27.2434 27.5127 27.1094 29.0458L28.771 24.5537L30.9799 19.7354L31.8673 17.9933C31.9135 18.4025 31.7215 18.6692 31.5447 19.0002L31.8358 19.1371H31.8364ZM33.9045 10.8864L33.9541 10.6444C33.9642 10.5938 33.7125 10.5422 33.668 10.5696C33.5233 10.6582 33.3657 10.9991 33.4242 11.2273C33.5937 11.2092 33.8471 11.0134 33.9051 10.8864H33.9045ZM30.0368 18.276L30.7389 16.926C30.2023 17.0112 30.11 17.4572 30.0773 17.8234L30.0368 18.276ZM28.2321 22.1946L28.3746 22.0951L29.4061 19.7536L29.3138 19.6799L28.9788 20.2903L29.1393 19.2735L28.3673 20.6791C28.0244 21.3043 27.7547 21.9279 27.6544 22.6763L28.3014 21.6013L28.2321 22.194V22.1946ZM26.7608 26.2705L27.2254 25.1278C27.2732 25.0107 27.1122 24.7033 27.0159 24.667C26.66 25.0937 26.378 25.4962 26.4174 26.1187L26.7631 25.6249L26.7608 26.2705Z" fill="#EDAE00"/>
<path d="M66.5895 20.2181L66.5692 20.443C66.5653 20.4859 66.6334 20.4815 66.7939 20.5024L66.4842 21.175L66.317 20.9775L66.1548 21.484C66.1633 21.7755 66.0934 21.9701 65.9932 22.2429L65.6678 23.1271L64.9679 24.8423L64.6818 25.4994L64.3552 26.3803L63.9994 27.3927L63.6407 28.6107L63.1514 30.2726C62.7657 31.5813 63.2905 32.0839 62.8997 32.3022C62.6356 32.4496 62.1626 32.2209 61.8575 32.03L60.519 31.1953C60.3056 31.0474 60.1626 30.4909 60.2274 30.2115L60.8603 27.4862C61.6914 24.7741 62.7235 22.1972 63.9346 19.6193L66.6948 13.7452L63.1993 14.6531C63.0591 14.6894 62.8029 14.828 62.6874 14.7823C62.5557 14.7301 62.398 14.5013 62.2927 14.371L61.3203 13.1656C61.2144 13.0342 61.2561 12.6498 61.3344 12.4606C63.4707 11.9102 65.5794 11.4659 67.7556 11.1007C68.1593 11.0331 68.4026 10.9512 68.5907 10.5987C69.6408 8.63112 70.7968 6.7906 72.0108 4.91543C72.1296 4.73176 72.348 4.38807 72.6042 4.56459L73.7675 5.3691C74.1465 5.63085 74.4719 5.80517 74.455 6.34848L73.6639 7.71718L71.9995 10.5915C73.5299 10.58 74.9387 10.6328 76.3143 11.1046L76.8177 11.7034C77.0987 12.0372 77.1212 12.349 76.8515 12.6878L76.5739 13.0369C76.5001 13.1299 76.2197 12.971 76.1223 12.8269C74.3143 12.5387 72.4122 12.6454 70.6042 13.0034L70.1566 13.8376L69.7393 14.547L68.8362 16.3705L68.7799 15.8156C68.1216 16.6025 68.6239 17.0111 68.3322 17.335L68.2072 16.894L67.6289 18.0636L67.1965 19.0848L67.3874 19.0996C67.4324 19.1029 67.4375 19.302 67.4122 19.3443L66.9138 20.1763L66.8012 19.8596L66.6165 20.167L66.5901 20.2165L66.5895 20.2181ZM72.7895 12.2715L74.8999 12.2011C74.5688 12.0048 74.2276 12.0482 73.8407 12.0686L73.0812 12.1093L72.1414 12.1598C71.8227 12.1769 71.4826 12.228 71.134 12.3556L72.7895 12.2709V12.2715ZM66.496 20.0785L67.8086 17.3218L69.8778 13.1458C69.6414 13.0199 69.4037 13.1942 69.2861 13.4092L68.558 14.7339L66.107 19.5236L64.2561 23.7392L64.4814 24.4414L66.509 20.1466L66.496 20.0785ZM67.3615 16.4628L68.2511 14.7015C68.3542 14.4975 68.5039 14.3435 68.393 14.1351L66.8998 16.9792C66.7004 17.3586 66.5079 17.7045 66.3998 18.1593L67.362 16.4628H67.3615ZM65.1396 19.0908L65.2494 19.1766L66.1452 17.5329L66.9859 15.7914L66.8778 15.7067L66.1582 16.911L65.7111 17.8453L65.139 19.0903L65.1396 19.0908ZM63.7567 22.6811L65.1965 19.3927L64.4127 20.5503C64.5563 19.881 65.1244 19.2811 65.1683 18.382C64.6283 18.6635 64.7556 19.3641 64.2364 20.2885C63.7004 21.2431 63.2792 22.2198 62.9712 23.3548L63.7466 22.0361C63.719 22.3451 63.6182 22.5052 63.7573 22.6811H63.7567ZM62.1908 26.1939L61.947 27.4625L62.465 26.1956L62.8462 24.806L62.3259 25.4285C62.0461 25.7633 61.8293 26.1494 61.8338 26.6591L62.1908 26.1939ZM62.5258 29.6567L64.2347 24.9781L64.0129 25.0815C63.9769 25.0985 63.9408 25.0397 63.8417 24.9198L62.9481 27.3988C62.6891 28.1169 62.5788 28.895 62.5258 29.6561V29.6567Z" fill="#EDAE00"/>
<path d="M56.5735 18.3072L55.1641 19.621C54.7998 19.9602 54.5352 20.2105 54.2717 20.6273C54.1287 20.8538 53.8246 21.1227 53.6202 21.3103C53.5014 21.3152 53.3297 21.3009 53.2993 21.3752L53.15 21.737L52.596 22.635L52.101 23.3762C51.3386 24.5184 50.7333 25.737 50.1275 26.9721C49.7969 27.6457 49.4529 28.2764 49.2998 29.021C49.2446 29.2883 49.2784 29.7661 48.7755 29.6946C48.3887 29.6396 47.918 29.2685 47.5852 29.015L46.5621 28.2357C46.1984 27.9586 46.1038 27.3933 46.24 26.982L46.7293 25.5071C47.3932 23.5055 48.1883 21.6188 49.0971 19.7084L50.7739 16.1819L52.1624 13.4774C52.2655 13.2773 52.3685 13.0051 52.5149 12.9231C52.726 12.8049 53.0954 12.8758 53.2767 13.0139L54.618 14.0334C54.8899 14.2402 55.1839 14.586 55.002 14.9556L53.873 17.2498L57.1563 14.751C57.9029 14.1824 58.7554 13.8387 59.6924 13.6226C60.0764 13.5341 60.4446 13.7101 60.7003 13.9867L62.135 15.5352C62.3928 15.814 62.3112 16.189 62.1186 16.4409C61.8833 16.7477 61.6338 16.8615 61.323 17.0887L60.8703 17.4197L60.7667 16.2127L59.1788 16.8115C58.3314 17.131 57.9682 17.5374 57.6 17.5368L56.9018 18.2017L56.6985 18.0246C56.6625 17.9932 56.614 18.2726 56.5752 18.3083L56.5735 18.3072ZM55.623 16.608L58.1315 15.0144C57.6839 15.0232 57.3776 15.181 57.042 15.3713L56.1456 15.8794L55.623 16.608ZM53.6681 20.3298C54.8815 18.9941 56.1264 17.8783 57.5578 16.734C56.5459 17.0359 55.935 17.8222 55.1878 18.4502C54.1782 19.2987 53.3128 20.2533 52.5554 21.3872C53.0312 21.1491 53.3004 20.7345 53.6681 20.3298ZM50.32 19.2641C50.7333 18.7026 51.0419 18.1472 51.1844 17.4373C50.757 17.9828 50.4816 18.5613 50.32 19.2641Z" fill="#EDAE00"/>
<path d="M92.9355 65.5882C92.3989 65.1884 92.0875 64.6764 92.3578 63.9792C92.7575 62.9481 93.4169 61.9478 94.324 61.1532L93.1759 63.1472C92.9867 63.4754 92.9467 63.8961 93.0627 64.253L93.8848 62.6759C93.9321 62.6825 94.061 62.7171 94.0554 62.7474L94.0171 62.9629L93.9225 63.8241C93.8775 64.2338 93.8944 64.5516 93.9969 64.9943C95.3206 64.8491 96.5053 63.8884 97.5025 63.0383C100.988 60.0671 103.618 55.4265 105.657 51.3627C106.053 50.5736 106.478 49.8906 106.686 48.98L104.934 50.5962C103.804 51.6382 102.741 52.7617 101.336 53.4799C100.373 53.9726 99.3759 53.278 98.7734 52.3861C97.0707 51.6366 97.4091 49.7152 98.1687 48.1018C98.8843 46.5819 99.7317 45.1576 100.774 43.8329C102.561 41.5613 104.528 39.4815 107.268 38.3729C108.069 38.049 108.85 38.1722 109.398 38.7919L110.351 39.8687L110.589 39.3215C110.639 39.2071 110.989 39.2583 111.128 39.2951C111.843 39.713 112.415 40.2437 112.946 40.8585C113.073 41.6844 112.96 42.4131 112.687 43.1813L110.925 47.74L109.324 51.244L108.861 52.1381C108.605 52.633 108.462 53.0564 108.149 53.5315C107.993 53.768 108.105 54.2827 107.637 54.4147C107.708 54.9415 107.422 55.3413 107.142 55.7543L106.625 56.721L106.169 57.5618L105.736 58.3394L104.885 59.707L104.197 60.6379L103.791 61.173L102.451 62.7116L100.662 64.4664C99.4463 65.6586 96.3978 67.6839 94.9929 66.7738C94.7874 66.6407 94.6331 66.5785 94.391 66.5054C93.8527 66.3432 93.4113 65.9434 92.936 65.5893L92.9355 65.5882ZM102.992 45.9099C102.061 47.052 101.289 48.3185 100.703 49.6613C100.547 50.0199 100.425 50.2992 100.431 50.7507C101.648 49.9957 102.683 49.1917 103.688 48.236L105.936 46.1002L108.152 43.7482C108.658 43.2126 109.071 42.6138 109.338 41.9132C107.549 42.881 107.245 42.0254 107.161 42.0298C107.077 42.0342 106.888 42.1095 106.825 42.1607L105.358 43.3336L104.827 43.8989L104.292 44.4175L103.545 45.2319L102.992 45.9099ZM107.661 45.4254C107.879 45.1769 108.178 45.0246 108.143 44.6385L107.032 45.9495L107.178 45.9764L107.661 45.4249L107.661 45.4254ZM102.408 58.4647L103.142 57.6707L103.109 58.0974L103.867 57.0702C105.689 54.2503 107.109 51.2967 108.082 48.1683C107.637 48.6545 107.46 49.1785 107.175 49.6822L107.187 49.9511C107.19 50.0149 106.893 50.0248 106.862 50.0815L106.486 50.7892L105.031 53.6971C104.438 54.8816 103.815 56.0061 102.981 57.0438C103.025 57.636 102.449 57.9192 102.408 58.4636V58.4647ZM103.996 59.2505C104.834 58.5362 105.229 57.6575 105.779 56.8222L107.034 54.5412C107.815 52.683 108.717 50.9597 109.299 48.9795L107.431 52.5362L105.352 56.5918L103.996 59.25V59.2505Z" fill="#EDAE00"/>
<path d="M31.4285 38.7269C31.5608 38.5174 31.6757 38.2771 31.8147 38.2392C31.9825 38.193 32.3142 38.3194 32.4549 38.4289L33.5214 39.2581C33.7326 39.422 34.0062 39.609 34.071 39.7965C34.1774 40.1044 34.0321 40.4228 33.8728 40.6752L32.1841 43.3565L31.5416 44.474L31.1554 45.2108L30.808 45.8768L30.2674 47.0217L29.4932 48.855C29.2466 49.4396 29.0816 50.0214 28.9239 50.7434C30.3519 49.5259 31.5034 48.1973 32.661 46.7819L34.634 44.3695L35.7726 42.8011C36.0113 42.4723 36.1374 41.8845 36.4342 41.6381C36.8289 41.3104 37.2703 41.7607 37.5282 41.9559L38.5023 42.6939C38.8621 42.9667 38.8813 43.4 38.7022 43.8251L38.2619 44.8688L37.1262 47.813C36.723 48.8589 36.4922 49.8795 36.4004 51.0117L37.8002 49.6639C39.9888 47.1448 41.7073 44.3172 42.9619 41.2554L43.4483 40.0681C43.6978 39.4594 43.5998 38.9557 43.0238 38.4569L43.4968 38.1094C43.8706 38.833 44.5013 38.7528 44.9011 39.5006C45.3476 39.6469 45.6432 40.0153 45.6308 40.5476C45.5649 43.4473 43.5857 47.1382 41.8886 49.5946L41.0384 50.7093L40.4309 51.3939L39.0795 52.7566C38.6893 53.1503 38.1887 53.45 37.7304 53.7426C36.9865 54.2182 36.2551 54.2061 35.6104 53.6018L34.821 52.8616C34.0681 52.3909 33.5952 51.8641 33.6087 50.9381L33.6278 49.6172L32.9673 50.3216L32.3609 51.0827L30.7871 52.7753C30.3462 53.2493 29.7252 53.6799 29.09 53.8047C28.6075 53.8993 28.0985 53.5413 27.7916 53.2548L27.2398 52.7406C26.9397 52.4607 26.4048 52.2446 26.2358 51.8102C25.648 50.2974 26.7235 47.4286 27.4842 45.769C28.6109 43.312 29.9656 41.0442 31.4285 38.7264V38.7269Z" fill="#EDAE00"/>
<path d="M74.0322 46.8921L73.7073 47.6487L73.0592 49.3298L72.7985 50.1777L72.3532 51.9688C72.2901 52.2234 72.4844 52.6369 72.6139 52.8382C72.6809 52.9498 72.535 53.2121 72.4264 53.2748C72.3177 53.3375 72.0187 53.3397 71.9027 53.2682L70.7248 52.5401L69.7867 51.7939C68.9956 51.1648 69.8357 48.1794 70.4224 47.0098L72.9067 42.0584L70.1718 44.4549L69.0857 45.6136L68.1527 46.6468L67.8824 46.6325C67.8187 46.6292 67.857 46.9416 67.8126 46.9977L66.9274 48.103L67.0716 47.5014L66.4803 48.186L66.6126 48.6171L66.0569 49.497L65.3677 50.6567C64.9026 51.4398 64.5586 52.2613 64.3333 53.1665C64.2855 53.3595 64.4505 53.8258 64.2506 53.9743C63.9032 54.2322 63.5118 54.0128 63.2207 53.8044L62.3975 53.2149C62.0709 52.9806 61.5799 52.7562 61.3136 52.4345C61.2398 52.2454 61.1509 51.8033 61.1289 51.597C61.5872 49.74 62.1638 47.9891 62.9217 46.2382L64.3592 42.9179C66.8903 37.4871 69.7236 32.2498 72.9517 27.1918L73.512 26.3142C73.6966 26.0244 74.1848 26.1547 74.4264 26.3433L75.49 27.1737C75.6725 27.3161 75.8718 27.5217 75.932 27.7208C75.9912 27.9155 75.8898 28.2251 75.7513 28.434C73.9438 31.1528 72.3346 33.9127 70.8233 36.7975C70.7557 36.9262 70.566 37.1192 70.5429 37.2528C70.4877 37.5712 70.2844 37.7252 70.0333 37.8869C70.0772 38.0287 70.0733 38.417 69.9196 38.4285C69.7214 38.4439 69.6099 38.489 69.513 38.6468C69.4393 38.7673 69.5361 38.9592 69.6527 39.1335C69.3987 39.2077 69.1453 39.3738 69.1848 39.5674C69.2276 39.7752 69.2219 40.0392 69.133 40.1646C69.053 40.2773 68.7788 40.384 68.6425 40.4588C68.6504 40.7728 68.6211 41.0999 68.5186 41.3683L68.3948 41.2187C68.3677 41.1863 68.2135 41.2572 68.2073 41.2979L68.0772 42.1618C68.0642 42.2465 67.8948 42.3543 67.8401 42.3499L67.3621 43.6427L66.9786 44.9416C67.4257 44.6226 67.6549 44.3477 68.0085 43.9974L68.1206 43.8913C68.1481 43.8649 68.1988 43.9259 68.2979 44.0205L70.1932 42.1327L70.0609 42.0766L69.3537 42.7634L69.2636 42.6023C69.2501 42.5775 69.2276 42.445 69.2078 42.4654L69.0463 42.6276C68.812 42.8624 68.6251 43.112 68.2743 43.1841C69.33 41.9506 70.5035 40.9333 71.7873 39.9534C72.5114 39.4007 73.3115 38.9069 74.1916 38.6226C74.5925 38.4934 74.9861 39.0015 75.231 39.1901L76.2496 39.9748C76.7462 40.357 76.9867 40.8794 76.686 41.5091L75.307 44.3911L74.0322 46.8921ZM64.5665 43.8698L64.7067 44.015L64.8052 43.844L65.2973 42.9883L65.4741 43.3304L66.272 41.6603L69.1448 36.0128C69.1003 35.8038 69.1667 35.6713 69.3176 35.4909L69.3807 34.8663C69.718 34.3994 70.0491 34.0029 70.0992 33.3925L69.2557 34.6237L68.1476 36.7546L68.6313 36.4912L68.0901 37.4849L67.8672 37.1802L67.0361 38.6391L66.5062 39.7829L65.437 41.9484L64.5676 43.8698H64.5665ZM66.6008 44.3977L68.0333 41.183L69.6245 37.9265L71.6904 33.5102C69.5812 36.7458 67.8064 40.2119 66.2635 43.7653C66.0721 44.2058 66.0214 44.5935 66.0625 45.0658C66.281 44.8761 66.4876 44.6512 66.6008 44.3977ZM65.906 48.318L70.6144 42.9399C68.7709 44.3603 66.9787 46.1547 65.906 48.318ZM71.9765 49.6091L72.0958 49.6179L72.6555 48.169L74.0576 44.8354C73.2338 46.0216 72.566 47.293 72.2186 48.6573L71.9759 49.6097L71.9765 49.6091ZM71.5316 47.6273C71.5502 47.5844 71.5446 47.3991 71.4984 47.3963L71.2895 47.3831L71.8205 46.4417C71.5851 46.4032 71.4415 46.5181 71.3351 46.7068C70.9855 47.3281 70.6887 47.8984 70.5907 48.55C70.7197 48.4379 70.8363 48.2701 70.9173 48.2877L71.2771 48.3658L71.0435 48.0238C71.2946 47.9424 71.4477 47.8192 71.5311 47.6273H71.5316Z" fill="#EDAE00"/>
<path d="M95.8441 51.915L95.1059 52.5232L95.8475 52.4479L95.2287 52.912C94.9871 53.0929 94.5761 53.364 94.2889 53.4036C93.6408 53.4933 93.1689 53.0902 92.7449 52.7536C91.6379 51.8743 91.241 50.6646 91.5479 49.2826C91.9116 47.645 92.6143 46.1482 93.3981 44.6536L95.0029 41.5939C93.9589 42.2026 93.1903 42.9016 92.3992 43.667L91.0197 45.0011L89.5321 46.4968L87.273 49.1716L85.5512 51.6511L84.4211 53.5917C84.3327 53.7435 84.3299 54.0146 84.2285 54.1058C84.1271 54.1971 83.7353 54.2532 83.6024 54.1647L82.1063 53.1666C81.5291 52.7817 81.0736 52.2879 81.3929 51.5306L82.9014 47.948L85.5748 42.7344L86.777 40.4798L88.1278 38.0261L88.3457 37.6275C88.3992 37.5296 88.795 37.5367 88.9009 37.6115L90.2466 38.5612C90.5011 38.7405 90.7748 38.9516 90.839 39.1683C90.9302 39.4751 90.8339 39.7776 90.6774 40.0498L88.7381 43.4251C89.5664 43.1452 89.9347 42.515 90.5034 42.003L91.6273 40.9907L93.7928 39.314C94.6318 38.6646 95.5153 38.1224 96.5034 37.7264C96.9308 37.5549 97.3284 37.7237 97.6279 38.0041L98.1189 38.4633L99.1071 39.3289C99.9883 40.1004 97.9286 43.2794 97.1769 44.5485L96.0716 46.416L95.3593 47.5719L94.8052 48.5711L94.3339 49.5961L94.1065 50.322C93.7816 51.3585 93.616 52.5386 94.2534 52.3605L95.8435 51.9161L95.8441 51.915ZM92.8339 48.4341L93.4662 46.8108L93.9167 45.7715C93.571 46.0267 93.4708 46.405 93.2647 46.7509L92.7461 47.6219C92.5214 47.9986 92.3119 48.46 92.4246 48.8235C92.4888 48.6283 92.5192 48.2054 92.8334 48.4341H92.8339ZM94.7061 47.1039C94.3486 47.6241 94.1532 48.0124 94.0029 48.5832C94.3069 48.2274 94.7016 47.4707 94.7061 47.1039Z" fill="#EDAE00"/>
<path d="M52.584 52.9486L51.2935 52.7737L51.4641 53.1317C50.7073 52.7671 50.0468 52.1804 49.6189 51.4946C49.165 50.7671 50.142 49.7328 51.0266 49.14C50.754 49.8867 50.0913 50.1721 50.1026 51.0239L50.6938 50.3206L50.7253 51.3429C52.0046 51.4144 53.6065 50.859 54.7327 50.2634L56.7575 49.1933C57.333 48.8892 57.735 48.4674 58.1432 47.8631L55.807 47.0327C54.8599 46.6956 54.3492 46.1996 53.8323 45.4215C53.0423 44.2326 52.9207 42.8441 53.9095 41.6772C54.8982 40.5103 56.0632 39.7267 57.3487 38.9761C58.5728 38.2607 59.7975 37.68 61.2125 37.4122C61.6399 36.9525 62.2542 37.1411 62.6664 37.5552L63.6365 38.6467C63.9411 38.9893 64.3702 39.3247 64.2446 39.9142C64.1821 40.2062 63.7463 40.479 63.4845 40.6137L62.9299 41.0657L62.779 39.8345C62.23 39.9874 61.6038 40.198 61.0791 40.4883L58.8386 41.7267C58.5019 41.5942 58.2153 41.6783 57.9095 41.9186L56.3898 43.1125C55.8825 43.5112 55.4692 44.0655 55.1989 44.6753C56.4776 45.0531 57.5689 45.4875 58.5396 46.2832L59.4304 47.449C59.7784 47.9038 60.181 48.3717 60.2463 48.9436C60.2575 49.0426 60.3544 49.3055 60.3245 49.4028C60.1855 49.8515 59.8561 50.5356 59.4343 50.8782C57.5953 52.3695 55.3644 53.2395 53.0035 53.5837L51.7197 53.1306L52.5834 52.9497L52.584 52.9486ZM54.9855 41.824L56.6015 40.556L58.0143 39.6134L57.9214 39.487L56.2434 40.5758L55.0013 41.4485C54.9359 41.4941 54.8295 41.6354 54.7941 41.6871C54.7676 41.7262 54.9534 41.8186 54.9849 41.824H54.9855Z" fill="#EDAE00"/>
<path d="M47.2645 51.0503L47.0967 51.5589C46.7251 52.684 47.2752 53.1569 46.9312 53.4594C46.8304 53.5479 46.4987 53.5551 46.3788 53.4731L45.5899 52.9331L44.4514 52.0076C44.0606 51.6904 44.1716 50.8649 44.3382 50.4267L45.3895 47.659C46.153 45.6497 47.2392 43.8223 48.3146 41.9516L49.8468 39.2862C49.9262 39.1476 50.0461 38.9431 50.1626 38.9051C50.2792 38.8672 50.5669 38.9375 50.675 39.0173L52.0281 40.0203C52.3783 40.2799 52.5777 40.7253 52.3226 41.1614L50.4019 44.4415L49.157 46.3497C48.9881 47.0019 48.7279 47.6167 48.3856 48.1726L47.8878 49.2581L47.6277 50.0054L47.2651 51.0492L47.2645 51.0503Z" fill="#EDAE00"/>
<path d="M79.084 49.9451L78.6893 51.0207L78.5176 51.7015C78.2388 52.8079 78.7118 53.1538 78.3892 53.4464C78.2777 53.5475 77.9156 53.5316 77.7811 53.431L75.8784 52.0111C75.3385 50.8217 76.1217 49.1197 76.691 47.7955L77.4224 46.0952L79.1009 42.9366L81.0688 39.5151C81.1938 39.2979 81.3656 38.9839 81.6302 38.9141C82.4084 39.2715 83.0413 39.7455 83.6601 40.3174C83.7327 40.5165 83.7243 40.913 83.6787 41.1269L81.8014 44.3746L80.8205 46.015C80.5148 46.1502 80.3515 46.4351 80.4906 46.7766L79.789 48.2069L79.2355 49.305C79.2118 49.4728 79.1549 49.7505 79.0834 49.9451H79.084Z" fill="#EDAE00"/>
<path d="M84.8463 38.1108C84.7641 38.2411 84.6121 38.4286 84.5012 38.4352C84.3672 38.4429 84.1143 38.3324 84.0079 38.2285L82.7714 37.0198C82.6633 36.9136 82.5456 36.7729 82.5079 36.675C82.464 36.5612 82.5372 36.2774 82.6109 36.1531L84.6166 32.758C84.7033 32.6107 84.8215 32.4088 84.9364 32.3577C85.0676 32.2994 85.3914 32.3945 85.513 32.4891L86.9882 33.634C87.4753 34.0124 87.3593 34.5249 87.0519 34.9417L85.5873 36.9312L84.8458 38.1113L84.8463 38.1108Z" fill="#EDAE00"/>
<path d="M53.9151 37.4145L53.1656 38.5011C52.4556 38.0953 51.9939 37.5954 51.4815 37.0142C51.2805 36.786 51.1538 36.5347 51.2878 36.2053C51.6386 35.3447 52.0879 34.5605 52.5817 33.7692L53.441 32.3917C53.7704 32.1613 54.1932 32.5457 54.441 32.7376L55.4545 33.5223C55.6719 33.6906 55.8948 33.9259 55.9365 34.1338C56.0086 34.494 55.8318 34.7244 55.6415 34.9922L53.9156 37.4151L53.9151 37.4145Z" fill="#EDAE00"/>
<path d="M2.17439 21.3936L2.04489 21.7434C2.01505 21.8237 1.81403 21.8077 1.604 21.7907L2.3039 20.5325C3.00605 19.5234 3.67892 18.5347 4.77578 17.8242L3.64176 19.3573L2.17383 21.3936H2.17439Z" fill="#EDAE00"/>
</svg>
